<svg width="170" height="64" viewBox="0 0 170 64" fill="none" xmlns="http://www.w3.org/2000/svg">
<path d="M74.88 24.3C73.4267 22.8867 72.7 21.12 72.7 19C72.7 16.88 73.4267 15.12 74.88 13.72C76.3467 12.3067 78.22 11.6 80.5 11.6C83.02 11.6 85 12.52 86.44 14.36C87.08 15.2 87.5333 16.1133 87.8 17.1H84C83.8 16.6867 83.5533 16.34 83.26 16.06C82.5533 15.3533 81.6333 15 80.5 15C79.5133 15 78.6867 15.2667 78.02 15.8C77.3667 16.32 76.9533 16.9533 76.78 17.7H81.4V20.3H76.78C76.9533 21.06 77.3667 21.7 78.02 22.22C78.6733 22.74 79.5 23 80.5 23C81.7533 23 82.7267 22.6 83.42 21.8C83.74 21.44 83.9667 21.04 84.1 20.6H87.9C87.6067 21.68 87.1333 22.6467 86.48 23.5C85.0533 25.4333 83.06 26.4 80.5 26.4C78.22 26.4 76.3467 25.7 74.88 24.3ZM88.6039 28.4V22.6H90.2039L93.0039 12H99.9039L102.704 22.6H104.304V28.4H100.804V26H92.1039V28.4H88.6039ZM93.7039 22.6H99.2039L97.3039 15.4H95.6039L93.7039 22.6ZM105.702 26V12H109.402V17.2H114.802V12H118.502V26H114.802V20.6H109.402V26H105.702ZM121.093 26V12H124.793V26H121.093ZM128.982 24.3C127.528 22.8867 126.802 21.12 126.802 19C126.802 16.88 127.528 15.12 128.982 13.72C130.448 12.3067 132.322 11.6 134.602 11.6C137.122 11.6 139.102 12.52 140.542 14.36C141.182 15.2 141.635 16.1133 141.902 17.1H138.102C137.902 16.6867 137.655 16.34 137.362 16.06C136.655 15.3533 135.735 15 134.602 15C133.442 15 132.502 15.3667 131.782 16.1C131.062 16.8333 130.702 17.8 130.702 19C130.702 20.2 131.062 21.1667 131.782 21.9C132.502 22.6333 133.442 23 134.602 23C135.855 23 136.828 22.6 137.522 21.8C137.842 21.44 138.068 21.04 138.202 20.6H142.002C141.708 21.68 141.235 22.6467 140.582 23.5C139.155 25.4333 137.162 26.4 134.602 26.4C132.322 26.4 130.448 25.7 128.982 24.3ZM142.805 15.4V12H155.305V15.4H150.905V26H147.205V15.4H142.805ZM156.796 26V12H160.496V16.2H163.496C165.296 16.2 166.709 16.66 167.736 17.58C168.776 18.4867 169.296 19.66 169.296 21.1C169.296 22.54 168.776 23.72 167.736 24.64C166.709 25.5467 165.296 26 163.496 26H156.796ZM160.496 22.6H163.696C164.256 22.6 164.696 22.4667 165.016 22.2C165.336 21.92 165.496 21.5533 165.496 21.1C165.496 20.6467 165.336 20.2867 165.016 20.02C164.696 19.74 164.256 19.6 163.696 19.6H160.496V22.6Z" fill="#92C431"/>
<path d="M73.17 50V37.4H82.35V40.46H76.5V50H73.17ZM83.7872 50V37.4H89.9072C91.4552 37.4 92.7092 37.844 93.6692 38.732C94.6412 39.608 95.1272 40.694 95.1272 41.99C95.1272 43.286 94.6412 44.378 93.6692 45.266C92.7092 46.142 91.4552 46.58 89.9072 46.58H87.1172V50H83.7872ZM87.1172 43.52H89.8172C90.4412 43.52 90.9092 43.382 91.2212 43.106C91.5452 42.83 91.7072 42.458 91.7072 41.99C91.7072 41.522 91.5452 41.15 91.2212 40.874C90.9092 40.598 90.4412 40.46 89.8172 40.46H87.1172V43.52ZM98.2702 48.416C96.9502 47.108 96.2902 45.536 96.2902 43.7C96.2902 41.864 96.9502 40.298 98.2702 39.002C99.6022 37.694 101.282 37.04 103.31 37.04C105.338 37.04 107.012 37.694 108.332 39.002C109.664 40.298 110.33 41.864 110.33 43.7C110.33 45.536 109.664 47.108 108.332 48.416C107.012 49.712 105.338 50.36 103.31 50.36C101.282 50.36 99.6022 49.712 98.2702 48.416ZM100.772 41.09C100.124 41.75 99.8002 42.62 99.8002 43.7C99.8002 44.78 100.124 45.65 100.772 46.31C101.42 46.97 102.266 47.3 103.31 47.3C104.354 47.3 105.2 46.97 105.848 46.31C106.496 45.65 106.82 44.78 106.82 43.7C106.82 42.62 106.496 41.75 105.848 41.09C105.2 40.43 104.354 40.1 103.31 40.1C102.266 40.1 101.42 40.43 100.772 41.09ZM112.123 50V37.4H116.803L119.413 43.88H119.863L122.473 37.4H127.153V50H123.823V42.8L124.093 41.18H123.913L121.483 47.12H117.793L115.363 41.18H115.183L115.453 42.8V50H112.123ZM128.32 50L131.74 37.4H137.86L141.28 50H137.86L137.23 47.48H132.37L131.74 50H128.32ZM133.09 44.6H136.51L135.43 40.46H134.17L133.09 44.6ZM141.365 52.16V46.94H142.805L145.325 37.4H151.535L154.055 46.94H155.495V52.16H152.345V50H144.515V52.16H141.365ZM145.955 46.94H150.905L149.195 40.46H147.665L145.955 46.94ZM156.754 50V37.4H160.084V43.61L159.814 45.23H159.994L164.584 37.4H168.454V50H165.124V43.79L165.394 42.17H165.214L160.624 50H156.754Z" fill="#559849"/>
<path fill-rule="evenodd" clip-rule="evenodd" d="M32.0046 23.188C34.65 20.3518 39.3441 19.0327 42.1558 21.1793C46.7856 24.7141 47.2519 34.4916 32.005 45C17.0648 34.7038 17.1899 24.8592 21.5792 21.1793C24.3896 18.8231 29.2716 20.2579 32.0046 23.188Z" fill="#E82827"/>
<path d="M25.6914 28.2693C29.593 28.6445 37.1176 32.3802 32.1012 43.1822C37.1176 41.4937 37.1176 33.0527 36.5602 30.5204C36.0028 27.988 32.1012 23.7674 32.6586 24.6115C33.1045 25.2868 33.216 26.5811 33.216 27.1439C33.4017 27.988 33.1602 29.4511 30.7078 28.5507C28.2553 27.6503 26.3417 27.9879 25.6914 28.2693Z" fill="white"/>
<ellipse rx="1.86062" ry="2.49094" transform="matrix(0.841368 -0.540463 0.533128 0.846035 30.2567 25.364)" fill="white"/>
<path fill-rule="evenodd" clip-rule="evenodd" d="M13.9823 17.793C11.303 23.7375 8.90621 25.153 6.12747 22.4274C4.26514 20.6006 4.77502 22.7547 7.17676 26.8638C8.38649 28.9319 10.3532 31.2539 11.5481 32.0225C13.562 33.3191 13.755 33.2564 14.1753 31.1593C15.5966 24.0639 17.3901 12 17.0219 12C16.7857 12 15.4175 14.6068 13.9823 17.793ZM41.5098 14.294L39.1928 15.555L41.6683 17.3981C43.0296 18.4119 46.9029 21.6173 50.2742 24.5225C56.2451 29.6647 56.3603 29.7149 54.6761 26.4535C53.7253 24.6103 52.0578 22.1474 50.9701 20.9801C48.6767 18.519 49.2604 15.9286 52.2822 15.1533C53.8385 14.7546 54.0146 14.4331 53.0156 13.8122C51.0322 12.5793 44.1311 12.868 41.5098 14.294ZM6.26134 16.4085C5.40892 18.5895 7.1551 21.1722 9.48302 21.1722C12.433 21.1722 12.0993 15.4845 9.12571 15.0703C7.7329 14.8762 6.6659 15.3744 6.26134 16.4085ZM52.6277 17.2533C51.0991 18.3674 50.9347 18.9941 51.8068 20.3911C53.176 22.5857 55.7913 23.1331 57.6547 21.6163C59.4796 20.1314 59.455 19.2605 57.5375 17.3788C55.6319 15.5096 55.0423 15.4951 52.6277 17.2533ZM31.1952 49.664C26.4133 51.1625 22.2063 52.6783 21.8461 53.0307C21.4868 53.3841 23.8492 53.6013 27.0955 53.5154C30.3427 53.4285 33.525 53.3937 34.1678 53.4372C34.8096 53.4806 35.474 54.9279 35.6443 56.6542L35.9524 59.7921L38.551 56.4128C41.6339 52.406 43.2098 46.7096 41.1978 46.8477C40.4783 46.8979 35.977 48.1646 31.1952 49.664ZM28.2422 55.1258C27.2421 56.1068 27.4597 60.0846 28.5493 60.745C30.3162 61.8158 33.4916 59.3209 33.4916 56.8618C33.4916 55.0119 32.9797 54.4818 31.1952 54.4818C29.9313 54.4818 28.6025 54.7715 28.2422 55.1258Z" fill="#92C431"/>
<path fill-rule="evenodd" clip-rule="evenodd" d="M29.3667 3.79927C28.1566 6.11918 29.4688 8.28051 31.8114 7.8247C32.9681 7.59929 33.7515 6.46527 33.9459 4.73382C34.1928 2.54756 33.8584 2 32.2799 2C31.1932 2 29.8829 2.80987 29.3667 3.79927ZM24.0498 6.42338C23.0535 7.98229 22.0183 10.9525 21.7471 13.025L21.2543 16.7922L29.877 13.2874C34.6185 11.3604 38.7175 9.56214 38.9848 9.29085C39.2521 9.01956 36.6393 8.95174 33.1799 9.13925L26.8881 9.48035L26.3739 6.53509L25.8597 3.58883L24.0498 6.42338ZM46.8387 37.6564C46.1223 42.4567 45.3282 47.0567 45.0735 47.8795C44.8198 48.7023 45.5303 48.0291 46.652 46.3834C47.7737 44.7378 48.6952 42.6612 48.6981 41.7676C48.7098 38.9639 51.3469 37.4579 54.0413 38.7166C56.3216 39.7838 56.3693 39.7279 55.4089 37.1178C54.4408 34.4887 49.9044 28.9293 48.7273 28.9293C48.4046 28.9293 47.5541 32.857 46.8387 37.6564ZM8.85241 35.5489C8.85241 36.1314 10.1219 38.548 11.6742 40.9188C14.7506 45.6204 14.7127 47.0746 11.4691 48.6834C9.51046 49.6538 9.61252 49.7536 12.7405 49.9211C17.3391 50.1685 19.6972 49.8523 21.7841 48.7113C23.3889 47.8326 23.3072 47.5753 20.8121 45.6583C19.3132 44.5074 16.0093 41.5232 13.4695 39.0278C10.9296 36.5313 8.85241 34.9664 8.85241 35.5489ZM5.93637 41.8683C4.80884 42.6163 4.72233 43.2377 5.55437 44.6101C6.84715 46.7395 8.81353 47.2282 10.7964 45.9117C11.924 45.1636 12.0105 44.5423 11.1784 43.1699C9.88566 41.0405 7.91928 40.5518 5.93637 41.8683ZM50.3253 41.5631C48.0236 43.9239 51.7075 48.6764 54.4777 46.92C56.3654 45.7232 54.9696 40.8978 52.7368 40.8978C51.7668 40.8978 50.681 41.1971 50.3253 41.5631Z" fill="#559849"/>
</svg>
