<svg width="172" height="64" viewBox="0 0 172 64" fill="none" xmlns="http://www.w3.org/2000/svg">
<circle cx="32" cy="32" r="26.5" stroke="#000046" stroke-width="3"/>
<path d="M41 22L42 16H43L42 22H41Z" fill="#BBB8CD"/>
<path d="M42.8352 31.9237C44.6998 30.0761 46.7576 29.4477 49 28.6986C48.5515 28.1785 46.6473 28.1785 45.9746 27.7623C45.3018 27.3462 44.2928 27.2421 43.8443 27.1381C43.4855 27.0549 43.0221 27.1034 42.8352 27.1381C42.4615 27.2768 41.6691 27.5751 41.4898 27.6583C41.2655 27.7623 39.9201 28.1785 39.8079 28.2825C39.6958 28.3865 38.5746 28.6986 38.2383 28.6986C37.9019 28.6986 37.0049 28.4906 36.2201 28.1785C35.4353 27.8664 34.6504 27.4502 34.4262 27.3462C34.2019 27.2421 33.2859 26.221 33.0617 26.0129C32.8374 25.8048 33.278 28.1785 33.5292 28.6986C33.7172 29.0881 34.0576 32.193 35.0989 34.2125C36.3396 36.6187 39.7855 41.3701 39.6958 39.6223C39.5837 37.4376 40.7049 34.9408 40.7049 34.9408C40.7049 34.9408 41.79 32.9595 42.8352 31.9237Z" fill="#F9B143"/>
<path fill-rule="evenodd" clip-rule="evenodd" d="M15.4396 29.0322C17.2439 29.9609 17.4798 30.5756 17.2828 33.836C17.1214 36.5184 17.5957 38.5209 18.9613 40.9244C20.8293 44.2116 20.9733 44.2844 26.6353 44.8254C29.8094 45.1286 33.8964 45.9594 35.7172 46.6729C40.8528 48.6846 44.2901 48.4166 46.6688 45.8187C49.0301 43.2409 48.5326 42.7208 42.8723 41.8499C38.196 41.1305 34.729 39.2813 34.0602 37.1507C33.4362 35.1617 28.9271 32.6853 20.8972 29.9216C14.6095 27.7575 12.1969 27.3647 15.4396 29.0322Z" fill="#000046"/>
<path d="M33.112 24.4037C33.3972 22.7322 34.112 20.8128 34.7006 20.1376C36.068 18.5688 36.494 18.5931 39.195 20.3943C40.4948 21.2618 42.6922 21.7751 44.4737 21.6289C48.054 21.3357 52 23.4962 52 25.7515C52 28.0938 48.0147 29.5678 45.0998 28.3035C43.3101 27.5274 42.0432 27.5422 39.6456 28.3679C34.9529 29.9828 32.4228 28.4471 33.112 24.4037Z" fill="#376AC5"/>
<path d="M37.1655 15.3345C35.9607 14.4557 33.5512 13.4586 32.3464 14.4557C31.1416 15.4528 33.3906 15.3041 34.3544 15.6556C35.5592 16.095 35.1576 16.5344 36.764 17.4133C37.8998 18.0347 38.3703 18.2921 40.3783 17.5315C42.2758 16.8128 42.8606 16.6216 43.1895 16.2133C43.9927 15.2162 43.8588 15.0416 43.9927 14.4557C44.1265 13.8698 42.3863 14.0163 42.3863 14.0163C41.8508 14.0163 40.9215 14.3807 40.3783 14.8951C39.5751 15.6556 38.3703 16.2133 37.1655 15.3345Z" fill="#000046"/>
<path d="M17 46.634C22.7105 45.2679 22.7105 44.5849 28.4211 45.2679C32.9895 45.8144 35.7632 46.634 36.5789 46.9755C38.0746 47.4308 41.2576 48 42.2895 48C43.5132 48 46.5044 47.4308 48 47.317" stroke="#376AC5" stroke-width="3" stroke-linecap="round"/>
<path d="M74.556 24.434C73.212 23.138 72.54 21.56 72.54 19.7C72.54 17.84 73.212 16.268 74.556 14.984C75.912 13.688 77.61 13.04 79.65 13.04C81.69 13.04 83.382 13.688 84.726 14.984C86.082 16.268 86.76 17.84 86.76 19.7C86.76 21.56 86.082 23.138 84.726 24.434C83.382 25.718 81.69 26.36 79.65 26.36C77.61 26.36 75.912 25.718 74.556 24.434ZM77.598 17.504C77.046 18.08 76.77 18.812 76.77 19.7C76.77 20.588 77.046 21.32 77.598 21.896C78.15 22.472 78.834 22.76 79.65 22.76C80.466 22.76 81.15 22.472 81.702 21.896C82.254 21.32 82.53 20.588 82.53 19.7C82.53 18.812 82.254 18.08 81.702 17.504C81.15 16.928 80.466 16.64 79.65 16.64C78.834 16.64 78.15 16.928 77.598 17.504ZM87.383 28.16V22.58H88.733L91.163 13.4H98.003L100.433 22.58H101.783V28.16H98.003V26H91.163V28.16H87.383ZM92.603 22.58H96.563L95.123 16.82H94.043L92.603 22.58ZM102.945 26V13.4H113.025V16.82H106.995V18.26H111.765V21.14H106.995V22.58H113.025V26H102.945ZM116.392 24.434C115.048 23.138 114.376 21.56 114.376 19.7C114.376 17.84 115.048 16.268 116.392 14.984C117.748 13.688 119.446 13.04 121.486 13.04C123.874 13.04 125.71 13.898 126.994 15.614C127.57 16.346 127.984 17.198 128.236 18.17H124.096C123.964 17.858 123.79 17.606 123.574 17.414C123.01 16.898 122.314 16.64 121.486 16.64C120.61 16.64 119.908 16.916 119.38 17.468C118.864 18.02 118.606 18.764 118.606 19.7C118.606 20.636 118.864 21.38 119.38 21.932C119.908 22.484 120.61 22.76 121.486 22.76C122.422 22.76 123.154 22.448 123.682 21.824C123.91 21.572 124.078 21.254 124.186 20.87H128.326C128.05 21.89 127.618 22.808 127.03 23.624C125.71 25.448 123.862 26.36 121.486 26.36C119.446 26.36 117.748 25.718 116.392 24.434ZM128.424 26L131.934 13.4H138.504L142.014 26H138.054L137.424 23.57H133.014L132.384 26H128.424ZM133.824 20.51H136.614L135.714 16.91H134.724L133.824 20.51ZM145.709 17V13.4H157.499V17H153.629V26H149.579V17H145.709ZM156.865 26L160.375 13.4H166.945L170.455 26H166.495L165.865 23.57H161.455L160.825 26H156.865ZM162.265 20.51H165.055L164.155 16.91H163.165L162.265 20.51ZM74.556 47.434C73.212 46.138 72.54 44.56 72.54 42.7C72.54 40.84 73.212 39.268 74.556 37.984C75.912 36.688 77.61 36.04 79.65 36.04C81.69 36.04 83.382 36.688 84.726 37.984C86.082 39.268 86.76 40.84 86.76 42.7C86.76 44.56 86.082 46.138 84.726 47.434C83.382 48.718 81.69 49.36 79.65 49.36C77.61 49.36 75.912 48.718 74.556 47.434ZM77.598 40.504C77.046 41.08 76.77 41.812 76.77 42.7C76.77 43.588 77.046 44.32 77.598 44.896C78.15 45.472 78.834 45.76 79.65 45.76C80.466 45.76 81.15 45.472 81.702 44.896C82.254 44.32 82.53 43.588 82.53 42.7C82.53 41.812 82.254 41.08 81.702 40.504C81.15 39.928 80.466 39.64 79.65 39.64C78.834 39.64 78.15 39.928 77.598 40.504ZM87.383 51.16V45.58H88.733L91.163 36.4H98.003L100.433 45.58H101.783V51.16H98.003V49H91.163V51.16H87.383ZM92.603 45.58H96.563L95.123 39.82H94.043L92.603 45.58ZM102.945 49V36.4H113.025V39.82H106.995V41.26H111.765V44.14H106.995V45.58H113.025V49H102.945ZM116.392 47.434C115.048 46.138 114.376 44.56 114.376 42.7C114.376 40.84 115.048 39.268 116.392 37.984C117.748 36.688 119.446 36.04 121.486 36.04C123.874 36.04 125.71 36.898 126.994 38.614C127.57 39.346 127.984 40.198 128.236 41.17H124.096C123.964 40.858 123.79 40.606 123.574 40.414C123.01 39.898 122.314 39.64 121.486 39.64C120.61 39.64 119.908 39.916 119.38 40.468C118.864 41.02 118.606 41.764 118.606 42.7C118.606 43.636 118.864 44.38 119.38 44.932C119.908 45.484 120.61 45.76 121.486 45.76C122.422 45.76 123.154 45.448 123.682 44.824C123.91 44.572 124.078 44.254 124.186 43.87H128.326C128.05 44.89 127.618 45.808 127.03 46.624C125.71 48.448 123.862 49.36 121.486 49.36C119.446 49.36 117.748 48.718 116.392 47.434ZM129.945 49V36.4H133.995V41.35L133.725 43.06H133.905L137.865 36.4H142.365V49H138.315V44.05L138.585 42.34H138.405L134.445 49H129.945ZM143.618 40V36.4H155.408V40H151.538V49H147.488V40H143.618ZM156.664 49V36.4H160.714V41.35L160.444 43.06H160.624L164.584 36.4H169.084V49H165.034V44.05L165.304 42.34H165.124L161.164 49H156.664Z" fill="#000046"/>
</svg>
