<?xml version="1.0" standalone="no"?>
<!DOCTYPE svg PUBLIC "-//W3C//DTD SVG 1.1//EN" "http://www.w3.org/Graphics/SVG/1.1/DTD/svg11.dtd" >
<svg>
<metadata>
Created by FontForge 20090914 at Fri Aug 26 20:58:30 2022
 By www-data
Copyright (c) 2018 by Typetype. Designer Ivan Gladkikh, technical designers Philipp Nurullin, Vika Usmanova, Nadyr Rakhimov, Marina Khodak. All rights reserved. |DCNT
</metadata>
<defs>
<font id="TTFirsNeue-Bold" horiz-adv-x="645" >
  <font-face 
    font-family="TT Firs Neue"
    font-weight="700"
    font-stretch="normal"
    units-per-em="1000"
    panose-1="2 0 8 3 3 0 0 2 0 4"
    ascent="800"
    descent="-200"
    x-height="520"
    cap-height="700"
    bbox="-455 -345.003 1438 1035"
    underline-thickness="50"
    underline-position="-200"
    unicode-range="U+000D-U+FB02"
  />
<missing-glyph horiz-adv-x="0" 
 />
    <glyph glyph-name="ff" unicode="ff" horiz-adv-x="725" 
d="M15 365v135h65v200h290v-135h-120v-65h170v200h310v-135h-140v-65h115v-135h-115v-365h-170v365h-170v-365h-170v365h-65z" />
    <glyph glyph-name="fi" unicode="fi" horiz-adv-x="640" 
d="M15 365v135h65v200h420v-135h-250v-65h340v-500h-170v365h-170v-365h-170v365h-65z" />
    <glyph glyph-name="fl" unicode="fl" horiz-adv-x="715" 
d="M15 365v135h65v200h510v-575h115v-125h-285v565h-170v-65h115v-135h-115v-365h-170v365h-65z" />
    <glyph glyph-name="f_t" unicode="ft" horiz-adv-x="760" 
d="M15 365v135h65v200h510v-200h135v-135h-135v-240h145v-125h-315v365h-170v-365h-170v365h-65zM250 500h170v65h-170v-65z" />
    <glyph glyph-name="f_j" unicode="fj" horiz-adv-x="640" 
d="M15 365v135h65v200h420v-135h-250v-65h340v-690h-305v125h135v430h-170v-365h-170v365h-65z" />
    <glyph glyph-name=".notdef" horiz-adv-x="0" 
 />
    <glyph glyph-name="NULL" horiz-adv-x="0" 
 />
    <glyph glyph-name="NULL" horiz-adv-x="0" 
 />
    <glyph glyph-name="CR" unicode="&#xd;" horiz-adv-x="0" 
 />
    <glyph glyph-name="space" unicode=" " horiz-adv-x="280" 
 />
    <glyph glyph-name="exclam" unicode="!" horiz-adv-x="310" 
d="M70 390v310h170v-310l-30 -160h-110zM65 75c0 25.333 8.66699 46.666 26 63.999s38.666 26 63.999 26s46.666 -8.66699 63.999 -26s26 -38.666 26 -63.999s-8.66699 -46.666 -26 -63.999s-38.666 -26 -63.999 -26s-46.666 8.66699 -63.999 26s-26 38.666 -26 63.999z" />
    <glyph glyph-name="quotedbl" unicode="&#x22;" horiz-adv-x="480" 
d="M55 550v150h155v-150l-20 -95h-115zM270 550v150h155v-150l-20 -95h-115z" />
    <glyph glyph-name="numbersign" unicode="#" horiz-adv-x="720" 
d="M25 160v130h115l35 120h-90v130h125l45 160h150l-45 -160h105l45 160h150l-45 -160h80v-130h-115l-35 -120h90v-130h-125l-45 -160h-150l45 160h-105l-45 -160h-150l45 160h-80zM290 290h105l35 120h-105z" />
    <glyph glyph-name="dollar" unicode="$" horiz-adv-x="690" 
d="M25 225l190 0.00195312c6 -16.667 15 -31 27 -43c28 -28 67.333 -42 118 -42c35.333 0 61.666 5.66699 78.999 17s26 25.666 26 42.999c0 7.33301 -1.83301 14.166 -5.5 20.499s-9.66699 12.166 -18 17.499s-16.5 9.83301 -24.5 13.5s-19.5 7.66699 -34.5 12l-37.5 10.5
c-10 2.66699 -24.5 6.33398 -43.5 11.001s-33.5 8.33398 -43.5 11.001c-63.333 17.333 -113.833 41.333 -151.5 72s-56.5 74.667 -56.5 132c0 50 20.5 95.333 61.5 136s93.833 67 158.5 79v95h170v-100c75.333 -20.667 132 -62 170 -124c18 -28 29.667 -56.667 35 -86h-190
c-4 10.667 -10.667 20.667 -20 30c-21.333 20 -53 30 -95 30c-32.667 0 -56.667 -4.83301 -72 -14.5s-23 -21.5 -23 -35.5c0 -18.667 11.167 -33.5 33.5 -44.5s55.166 -21.5 98.499 -31.5c25.333 -6 43.5 -10.5 54.5 -13.5s28.667 -8.33301 53 -16
s42.833 -14.834 55.5 -21.501s27.834 -15.834 45.501 -27.501s31 -24 40 -37s17 -28.833 24 -47.5s10.5 -39 10.5 -61c0 -55.333 -19 -102 -57 -140s-92.333 -64.667 -163 -80v-100h-170v100c-85.333 17.333 -151.666 62 -198.999 134
c-22 32.667 -37.333 66.334 -46 101.001z" />
    <glyph glyph-name="percent" unicode="%" horiz-adv-x="830" 
d="M35 540c0 48 16.667 88.333 50 121s75 49 125 49s91.667 -16.333 125 -49s50 -73 50 -121s-16.667 -88.333 -50 -121s-75 -49 -125 -49s-91.667 16.333 -125 49s-50 73 -50 121zM140 0l420 700h130l-420 -700h-130zM150 540c0 -17.333 5.66699 -31.666 17 -42.999
s25.666 -17 42.999 -17s31.666 5.66699 42.999 17s17 25.666 17 42.999s-5.66699 31.666 -17 42.999s-25.666 17 -42.999 17s-31.666 -5.66699 -42.999 -17s-17 -25.666 -17 -42.999zM445 160c0 48 16.667 88.333 50 121s75 49 125 49s91.667 -16.333 125 -49
s50 -73 50 -121s-16.667 -88.333 -50 -121s-75 -49 -125 -49s-91.667 16.333 -125 49s-50 73 -50 121zM560 160c0 -17.333 5.66699 -31.666 17 -42.999s25.666 -17 42.999 -17s31.666 5.66699 42.999 17s17 25.666 17 42.999s-5.66699 31.666 -17 42.999
s-25.666 17 -42.999 17s-31.666 -5.66699 -42.999 -17s-17 -25.666 -17 -42.999z" />
    <glyph glyph-name="ampersand" unicode="&#x26;" horiz-adv-x="760" 
d="M15 225c0 66.667 25.167 123.333 75.5 170s113.5 70 189.5 70h20v10l-50 20l-40 60v145h490v-150h-280v-10l360 -540h-205l-50 70l5 70h-10c0 -35.333 -22.5 -70.833 -67.5 -106.5s-99.167 -53.5 -162.5 -53.5c-80.667 0 -146.667 23.667 -198 71s-77 105.333 -77 174z
M195 229.999c0 -30 9.16699 -54.167 27.5 -72.5s42.5 -27.5 72.5 -27.5s54.167 9.16699 72.5 27.5s27.5 42.5 27.5 72.5s-9.16699 54.167 -27.5 72.5s-42.5 27.5 -72.5 27.5s-54.167 -9.16699 -72.5 -27.5s-27.5 -42.5 -27.5 -72.5z" />
    <glyph glyph-name="quotesingle" unicode="'" horiz-adv-x="265" 
d="M55 550v150h155v-150l-20 -95h-115z" />
    <glyph glyph-name="parenleft" unicode="(" horiz-adv-x="410" 
d="M55 290c0 126.667 42.333 243 127 349c36 46 78.667 86.333 128 121l85 -115c-30.667 -26 -59 -57.667 -85 -95c-56.667 -82 -85 -168.667 -85 -260s28.333 -178 85 -260c26 -37.333 54.333 -69 85 -95l-85 -115c-49.333 34.667 -92 75 -128 121
c-84.667 106 -127 222.333 -127 349z" />
    <glyph glyph-name="parenright" unicode=")" horiz-adv-x="410" 
d="M100 30c56.667 82 85 168.665 85 259.998s-28.333 178 -85 260c-24.667 35.333 -53 67 -85 95l85 115c49.333 -35.333 91.666 -75.666 126.999 -120.999c85.333 -106.667 128 -223 128 -349s-42.667 -242.333 -128 -349
c-35.333 -45.333 -77.666 -85.666 -126.999 -120.999l-85 115c32 28 60.333 59.667 85 95z" />
    <glyph glyph-name="asterisk" unicode="*" horiz-adv-x="420" 
d="M45 500v100h115v100h100v-100h115v-100h-85l65 -90l-85 -60l-60 100l-60 -100l-85 60l65 90h-85z" />
    <glyph glyph-name="plus" unicode="+" horiz-adv-x="540" 
d="M50 220v140h150v150h140v-150h150v-140h-150v-150h-140v150h-150z" />
    <glyph glyph-name="comma" unicode="," horiz-adv-x="240" 
d="M30 75c0 25.333 8.66797 46.667 26.001 64s38.666 26 63.999 26c29.333 0 52.5 -10.5 69.5 -31.5s25.5 -52.167 25.5 -93.5c0 -60 -15 -105.833 -45 -137.5s-71.667 -47.5 -125 -47.5v65c24.667 0 44.167 6.5 58.5 19.5s21.5 29.833 21.5 50.5v10l-7 -3
c-6.66699 -1.33301 -12.667 -2 -18 -2c-20.667 0 -37.5 7.16699 -50.5 21.5s-19.5 33.833 -19.5 58.5z" />
    <glyph glyph-name="hyphen" unicode="-" horiz-adv-x="490" 
d="M50 200v140h390v-140h-390z" />
    <glyph glyph-name="period" unicode="." horiz-adv-x="240" 
d="M30 75c0 25.333 8.66699 46.666 26 63.999s38.666 26 63.999 26s46.666 -8.66699 63.999 -26s26 -38.666 26 -63.999s-8.66699 -46.666 -26 -63.999s-38.666 -26 -63.999 -26s-46.666 8.66699 -63.999 26s-26 38.666 -26 63.999z" />
    <glyph glyph-name="slash" unicode="/" horiz-adv-x="440" 
d="M0 0l265 700h175l-265 -700h-175z" />
    <glyph glyph-name="zero" unicode="0" horiz-adv-x="780" 
d="M40 350c0 109.333 33.167 198.333 99.5 267s149.833 103 250.5 103s184.167 -34.333 250.5 -103s99.5 -157.667 99.5 -267s-33.167 -198.333 -99.5 -267s-149.833 -103 -250.5 -103s-184.167 34.333 -250.5 103s-99.5 157.667 -99.5 267zM235 350
c0 -65.333 14 -115 42 -149s65.667 -51 113 -51s85 17 113 51s42 83.667 42 149s-14 115 -42 149s-65.667 51 -113 51s-85 -17 -113 -51s-42 -83.667 -42 -149z" />
    <glyph glyph-name="one" unicode="1" horiz-adv-x="410" 
d="M30 405v195l145 100h170v-700h-190v490z" />
    <glyph glyph-name="two" unicode="2" horiz-adv-x="655" 
d="M35 0v159.999l235 145c55.333 33.333 94.166 62.5 116.499 87.5s33.5 50.833 33.5 77.5c0 23.333 -8.16699 42.5 -24.5 57.5s-38.166 22.5 -65.499 22.5c-42 0 -73 -13.333 -93 -40c-8 -10.667 -13.667 -24 -17 -40h-190c6.66699 45.333 22.334 87 47.001 125
c54.667 83.333 139 125 253 125c88 0 157.5 -22.667 208.5 -68s76.5 -102.666 76.5 -171.999c0 -57.333 -16.333 -106.5 -49 -147.5s-81.334 -80.167 -146.001 -117.5l-70 -40l-40 -15v-10l70 10h235v-160h-580z" />
    <glyph glyph-name="three" unicode="3" horiz-adv-x="660" 
d="M20 220l189.999 -0.000976562c4 -15.333 11.333 -28.666 22 -39.999c22.667 -26.667 55.334 -40 98.001 -40c34 0 60.833 8.16699 80.5 24.5s29.5 36.5 29.5 60.5c0 23.333 -9.83301 43.333 -29.5 60s-46.5 25 -80.5 25h-160v120l160 100v10h-270v160h525v-160l-155 -95
l-11 -4v-12l2 1c59.333 0 109 -19.667 149 -59s60 -88 60 -146c0 -70 -27 -128.333 -81 -175s-127 -70 -219 -70c-118 0 -204.667 40 -260 120c-25.333 35.333 -42 75.333 -50 120z" />
    <glyph glyph-name="four" unicode="4" horiz-adv-x="665" 
d="M20 120v160l235 420h205l-235 -420h160v155h10h175v-155h90v-160h-90v-120h-185v120h-365z" />
    <glyph glyph-name="five" unicode="5" horiz-adv-x="675" 
d="M40 215l190.001 -0.00195312c4 -14 10.667 -26.667 20 -38c20.667 -24.667 52.334 -37 95.001 -37c34.667 0 61.667 8.33301 81 25s29 38.334 29 65.001s-9.66699 48.334 -29 65.001s-46.333 25 -81 25c-26 0 -48.333 -5 -67 -15
c-6.66699 -4.66699 -12.667 -9.66699 -18 -15h-195l30 410h490v-160h-330l-10 -110h10c9.33301 7.33301 20.666 14 33.999 20c28 13.333 61.667 20 101 20c74 0 135 -23 183 -69s72 -103 72 -171c0 -72 -26.833 -131.667 -80.5 -179s-126.834 -71 -219.501 -71
c-114 0 -199.333 39 -256 117c-24.667 34.667 -41 74 -49 118z" />
    <glyph glyph-name="six" unicode="6" horiz-adv-x="670" 
d="M30 245c0 73.333 40 161.668 120 265.001l145 190h205l-150 -200l-50 -30v-10c5.33301 3.33301 13.333 6.66602 24 9.99902c21.333 6.66699 45 10 71 10c67.333 0 125 -24 173 -72s72 -105.667 72 -173c0 -72 -27.833 -132.5 -83.5 -181.5s-129.5 -73.5 -221.5 -73.5
c-92.667 0 -166.667 25 -222 75s-83 113.333 -83 190zM220 235.002c0 -28.667 9.83301 -51.667 29.5 -69s48.167 -26 85.5 -26s65.833 8.66699 85.5 26s29.5 40.333 29.5 69s-9.83301 51.667 -29.5 69s-48.167 26 -85.5 26s-65.833 -8.66699 -85.5 -26
s-29.5 -40.333 -29.5 -69z" />
    <glyph glyph-name="seven" unicode="7" horiz-adv-x="580" 
d="M15 540v160h545v-160l-265 -540h-205l265 530v10h-340z" />
    <glyph glyph-name="eight" unicode="8" horiz-adv-x="710" 
d="M35 195c0 60 25 107.333 75 142c22 15.333 47 26.333 75 33v10c-24.667 7.33301 -44.667 17 -60 29c-40 30 -60 68.667 -60 116c0 54 25.333 100 76 138s122 57 214 57s163.333 -19 214 -57s76 -84 76 -138c0 -47.333 -20 -86 -60 -116
c-15.333 -12 -35.333 -21.667 -60 -29v-10c28 -6.66699 53 -17.667 75 -33c50 -36.667 75 -84 75 -142c0 -59.333 -27.833 -110 -83.5 -152s-134.5 -63 -236.5 -63s-180.833 21 -236.5 63s-83.5 92.667 -83.5 152zM260 505c0 -18.667 8.16699 -34.167 24.5 -46.5
s39.833 -18.5 70.5 -18.5s54.167 6.16699 70.5 18.5s24.5 27.833 24.5 46.5s-8.16699 34.167 -24.5 46.5s-39.833 18.5 -70.5 18.5s-54.167 -6.16699 -70.5 -18.5s-24.5 -27.833 -24.5 -46.5zM235 215c0 -24 10.5 -44.167 31.5 -60.5s50.5 -24.5 88.5 -24.5
s67.5 8.16699 88.5 24.5s31.5 36.5 31.5 60.5s-10.5 44.167 -31.5 60.5s-50.5 24.5 -88.5 24.5s-67.5 -8.16699 -88.5 -24.5s-31.5 -36.5 -31.5 -60.5z" />
    <glyph glyph-name="nine" unicode="9" horiz-adv-x="670" 
d="M30 465c0 72 27.833 132.498 83.5 181.498s129.5 73.5 221.5 73.5c92.667 0 166.667 -25 222 -75s83 -113.333 83 -190c0 -73.333 -40 -161.666 -120 -264.999l-145 -190h-205l150 200l50 30v10c-5.33301 -3.33301 -13.333 -6.66602 -24 -9.99902
c-21.333 -6.66699 -45 -10 -71 -10c-67.333 0 -125 24 -173 72s-72 105.667 -72 173zM220 464.998c0 -28.667 9.83301 -51.667 29.5 -69s48.167 -26 85.5 -26s65.833 8.66699 85.5 26s29.5 40.333 29.5 69s-9.83301 51.667 -29.5 69s-48.167 26 -85.5 26
s-65.833 -8.66699 -85.5 -26s-29.5 -40.333 -29.5 -69z" />
    <glyph glyph-name="colon" unicode=":" horiz-adv-x="250" 
d="M35 75c0 25.333 8.66699 46.666 26 63.999s38.666 26 63.999 26s46.666 -8.66699 63.999 -26s26 -38.666 26 -63.999s-8.66699 -46.666 -26 -63.999s-38.666 -26 -63.999 -26s-46.666 8.66699 -63.999 26s-26 38.666 -26 63.999zM35 439
c0 25.333 8.66699 46.666 26 63.999s38.666 26 63.999 26s46.666 -8.66699 63.999 -26s26 -38.666 26 -63.999s-8.66699 -46.666 -26 -63.999s-38.666 -26 -63.999 -26s-46.666 8.66699 -63.999 26s-26 38.666 -26 63.999z" />
    <glyph glyph-name="semicolon" unicode=";" horiz-adv-x="250" 
d="M35 75c0 25.333 8.66797 46.667 26.001 64s38.666 26 63.999 26c29.333 0 52.5 -10.5 69.5 -31.5s25.5 -52.167 25.5 -93.5c0 -60 -15 -105.833 -45 -137.5s-71.667 -47.5 -125 -47.5v65c24.667 0 44.167 6.5 58.5 19.5s21.5 29.833 21.5 50.5v10l-7 -3
c-6.66699 -1.33301 -12.667 -2 -18 -2c-20.667 0 -37.5 7.16699 -50.5 21.5s-19.5 33.833 -19.5 58.5zM35.001 439.001c0 25.333 8.66699 46.666 26 63.999s38.666 26 63.999 26s46.666 -8.66699 63.999 -26s26 -38.666 26 -63.999s-8.66699 -46.666 -26 -63.999
s-38.666 -26 -63.999 -26s-46.666 8.66699 -63.999 26s-26 38.666 -26 63.999z" />
    <glyph glyph-name="less" unicode="&#x3c;" horiz-adv-x="540" 
d="M55 180v160l425 180v-140l-280 -115v-10l280 -115v-140z" />
    <glyph glyph-name="equal" unicode="=" horiz-adv-x="540" 
d="M65 305v135h410v-135h-410zM65 100v135h410v-135h-410z" />
    <glyph glyph-name="greater" unicode="&#x3e;" horiz-adv-x="540" 
d="M60 0v140l280 115v10l-280 115v140l425 -180v-160z" />
    <glyph glyph-name="question" unicode="?" horiz-adv-x="605" 
d="M190 485l-179.998 -0.000976562c9.33301 43.333 26.333 82.333 51 117c57.333 78.667 140.333 118 249 118c79.333 0 143.333 -20.667 192 -62s73 -90.666 73 -147.999c0 -71.333 -32.333 -126 -97 -164c-17.333 -10.667 -30 -18.834 -38 -24.501
s-17.667 -13.5 -29 -23.5s-19.333 -20.5 -24 -31.5s-7 -23.167 -7 -36.5h-180c0 70.667 32.667 126.334 98 167.001l14 9l15 9.5l13.5 8.5c6.33301 4 10.666 7.16699 12.999 9.5s6 5.5 11 9.5s8.5 7.33301 10.5 10s4.66699 6 8 10s5.66602 7.83301 6.99902 11.5
s2.5 7.66699 3.5 12s1.5 8.83301 1.5 13.5c0 21.333 -8 38.333 -24 51s-39.667 19 -71 19c-41.333 0 -72.333 -14.333 -93 -43c-8 -10.667 -13.667 -24.667 -17 -42zM200.002 74.999c0 25.333 8.66699 46.666 26 63.999s38.666 26 63.999 26s46.666 -8.66699 63.999 -26
s26 -38.666 26 -63.999s-8.66699 -46.666 -26 -63.999s-38.666 -26 -63.999 -26s-46.666 8.66699 -63.999 26s-26 38.666 -26 63.999z" />
    <glyph glyph-name="at" unicode="@" horiz-adv-x="815" 
d="M35 315c0 110 36.998 201.666 110.998 274.999s167 110 279 110c108.667 0 196.667 -30.667 264 -92s101 -134 101 -218c0 -71.333 -21.667 -129.166 -65 -173.499s-99.666 -66.5 -168.999 -66.5h-91v45h-5c-6 -10.667 -12.333 -19 -19 -25
c-19.333 -16.667 -43 -25 -71 -25c-38.667 0 -71.667 15.667 -99 47s-41 72.333 -41 123s13.667 91.667 41 123s60.333 47 99 47c26.667 0 50.334 -8.33301 71.001 -25c6.66699 -6 13 -14.333 19 -25h5v45h125v-220c56.667 0 85 43.333 85 130
c0 55.333 -22.667 103.333 -68 144s-106 61 -182 61c-80 0 -145.833 -26.167 -197.5 -78.5s-77.5 -119.5 -77.5 -201.5c0 -82.667 25.5 -149.167 76.5 -199.5s118.833 -75.5 203.5 -75.5c47.333 0 90.333 6.66699 129 20c16.667 5.33301 33.667 12 51 20v-105
c-17.333 -8 -34.333 -14.667 -51 -20c-38.667 -13.333 -81.667 -20 -129 -20c-117.333 0 -212.5 35.667 -285.5 107s-109.5 162.333 -109.5 273zM364.998 314.999c0 -21.333 5 -38.333 15 -51s21.667 -19 35 -19s25 6.33301 35 19s15 29.667 15 51s-5 38.333 -15 51
s-21.667 19 -35 19s-25 -6.33301 -35 -19s-15 -29.667 -15 -51z" />
    <glyph glyph-name="A" unicode="A" horiz-adv-x="720" 
d="M0 0l190 700h340l190 -700h-190l-35 140h-270l-35 -140h-190zM265 300h190l-60 230h-70z" />
    <glyph glyph-name="B" unicode="B" horiz-adv-x="730" 
d="M65 0v699.998h375c72 0 128.333 -16.667 169 -50s61 -75 61 -125s-18.333 -89.333 -55 -118c-17.333 -12 -35.666 -21 -54.999 -27v-5c25.333 -7.33301 47.666 -17.666 66.999 -30.999c45.333 -31.333 68 -77.666 68 -138.999c0 -60 -23 -109.167 -69 -147.5
s-111.333 -57.5 -196 -57.5h-365zM250 429.998h150c24.667 0 43.334 5.5 56.001 16.5s19 25.5 19 43.5s-6.33301 32.5 -19 43.5s-31.334 16.5 -56.001 16.5h-150v-120zM250 149.998h160c31.333 0 55 6.33301 71 19s24 29.667 24 51s-8 38.333 -24 51s-39.667 19 -71 19h-160
v-140z" />
    <glyph glyph-name="C" unicode="C" horiz-adv-x="825" 
d="M35 350c0 106 36.5 194.167 109.5 264.5s166.5 105.5 280.5 105.5c126 0 225 -46 297 -138c32 -42 54.667 -87.667 68 -137h-190c-10 20.667 -22.333 38 -37 52c-35.333 35.333 -81.333 53 -138 53c-58 0 -105 -18.333 -141 -55s-54 -85 -54 -145s18 -108.333 54 -145
s83 -55 141 -55c62.667 0 111.334 20 146.001 60c16 18 27.333 38 34 60h190c-14.667 -54 -38.334 -102.333 -71.001 -145c-71.333 -96.667 -171 -145 -299 -145c-114 0 -207.5 35.167 -280.5 105.5s-109.5 158.5 -109.5 264.5z" />
    <glyph glyph-name="D" unicode="D" horiz-adv-x="760" 
d="M65 0v700h271c115.333 0 209 -33.5 281 -100.5s108 -150.167 108 -249.5s-36 -182.5 -108 -249.5s-165.667 -100.5 -281 -100.5h-271zM250 170h85c62 0 110 16 144 48s51 76 51 132s-17 100 -51 132s-82 48 -144 48h-85v-360z" />
    <glyph glyph-name="E" unicode="E" 
d="M65 0v700h540v-170h-355v-105h285v-150h-285v-105h355v-170h-540z" />
    <glyph glyph-name="F" unicode="F" horiz-adv-x="620" 
d="M65 0v700h530v-170h-345v-135h265v-160h-265v-235h-185z" />
    <glyph glyph-name="G" unicode="G" horiz-adv-x="875" 
d="M35 350c0 106 36.499 194.167 109.499 264.5s166.5 105.5 280.5 105.5c126.667 0 225.667 -44.333 297 -133c31.333 -39.333 54 -83.333 68 -132h-190c-9.33301 18 -21.666 33.667 -36.999 47c-36 32 -82 48 -138 48c-58 0 -105 -18.333 -141 -55s-54 -85 -54 -145
s18 -108.333 54 -145s83 -55 141 -55c57.333 0 104 16.667 140 50c16 16 27.667 32.667 35 50h-95v140h365v-140h-79c-16 -50.667 -40 -95.667 -72 -135c-72.667 -90 -170.667 -135 -294 -135c-114 0 -207.5 35.167 -280.5 105.5s-109.5 158.5 -109.5 264.5z" />
    <glyph glyph-name="H" unicode="H" horiz-adv-x="770" 
d="M65 0v700h185v-260h270v260h185v-700h-185v270h-270v-270h-185z" />
    <glyph glyph-name="I" unicode="I" horiz-adv-x="315" 
d="M65 0v700h185v-700h-185z" />
    <glyph glyph-name="J" unicode="J" horiz-adv-x="610" 
d="M0 170l170 35.999c5.33301 -12 11.666 -22.333 18.999 -31c20 -20 45.333 -30 76 -30c66.667 0 100 33.333 100 100v455h185v-455c0 -83.333 -25.167 -149.166 -75.5 -197.499s-120.166 -72.5 -209.499 -72.5s-161 32.333 -215 97c-22 28 -38.667 60.667 -50 98z" />
    <glyph glyph-name="K" unicode="K" horiz-adv-x="725" 
d="M65 0v700h185v-260h80l170 260h210l-220 -330l235 -370h-210l-175 270h-90v-270h-185z" />
    <glyph glyph-name="L" unicode="L" horiz-adv-x="595" 
d="M65 0v700h185v-530h335v-170h-520z" />
    <glyph glyph-name="M" unicode="M" horiz-adv-x="965" 
d="M65 0v700h260l145 -360h25l145 360h260v-700h-185v400l15 90h-10l-135 -330h-205l-135 330h-10l15 -90v-400h-185z" />
    <glyph glyph-name="N" unicode="N" horiz-adv-x="780" 
d="M65 0v700h225l245 -440h10l-15 90v350h185v-700h-225l-245 440h-10l15 -90v-350h-185z" />
    <glyph glyph-name="O" unicode="O" horiz-adv-x="850" 
d="M35 350c0 102 36.833 189.167 110.5 261.5s166.834 108.5 279.501 108.5s205.834 -36.167 279.501 -108.5s110.5 -159.5 110.5 -261.5s-36.833 -189.167 -110.5 -261.5s-166.834 -108.5 -279.501 -108.5s-205.834 36.167 -279.501 108.5s-110.5 159.5 -110.5 261.5z
M230 350c0 -60 18 -108.333 54 -145s83 -55 141 -55s105 18.333 141 55s54 85 54 145s-18 108.333 -54 145s-83 55 -141 55s-105 -18.333 -141 -55s-54 -85 -54 -145z" />
    <glyph glyph-name="P" unicode="P" horiz-adv-x="725" 
d="M65 0v700h340c86 0 155.833 -24.5 209.5 -73.5s80.5 -109.5 80.5 -181.5s-26.833 -132.5 -80.5 -181.5s-123.5 -73.5 -209.5 -73.5h-155v-190h-185zM250 360h150c34.667 0 60.834 7.66699 78.501 23s26.5 36 26.5 62s-8.83301 46.667 -26.5 62s-43.834 23 -78.501 23
h-150v-170z" />
    <glyph glyph-name="Q" unicode="Q" horiz-adv-x="850" 
d="M35 350c0 102 36.8311 189.167 110.498 261.5s166.834 108.5 279.501 108.5s205.834 -36.167 279.501 -108.5s110.5 -159.5 110.5 -261.5c0 -91.333 -27.667 -169 -83 -233s-126 -106.333 -212 -127v-195h-190v195c-86 20.667 -156.667 63 -212 127s-83 141.667 -83 233z
M229.998 350c0 -60 18 -108.333 54 -145s83 -55 141 -55s105 18.333 141 55s54 85 54 145s-18 108.333 -54 145s-83 55 -141 55s-105 -18.333 -141 -55s-54 -85 -54 -145z" />
    <glyph glyph-name="R" unicode="R" horiz-adv-x="735" 
d="M65 0v700h350c83.333 0 150.833 -23.5 202.5 -70.5s77.5 -105.167 77.5 -174.5c0 -90 -46.667 -160 -140 -210l145 -245h-200l-125 210h-125v-210h-185zM250 380l160 -0.00195312c28.667 0 51.667 7.33301 69 22s26 32.334 26 53.001s-8.66699 38.334 -26 53.001
s-40.333 22 -69 22h-160v-150z" />
    <glyph glyph-name="S" unicode="S" horiz-adv-x="690" 
d="M25 225l190.001 0.00292969c6 -16.667 15 -31 27 -43c28 -28 67.333 -42 118 -42c35.333 0 61.666 5.66699 78.999 17s26 25.666 26 42.999c0 7.33301 -1.83301 14.166 -5.5 20.499s-9.66699 12.166 -18 17.499s-16.5 9.83301 -24.5 13.5s-19.5 7.66699 -34.5 12
l-37.5 10.5c-10 2.66699 -24.5 6.33398 -43.5 11.001s-33.5 8.33398 -43.5 11.001c-63.333 17.333 -113.833 41.333 -151.5 72s-56.5 74.667 -56.5 132c0 60.667 26.167 112.5 78.5 155.5s122.833 64.5 211.5 64.5c113.333 0 198 -36.667 254 -110
c24.667 -32 41.667 -68.667 51 -110h-190c-4 10.667 -10.667 20.667 -20 30c-21.333 20 -53 30 -95 30c-32.667 0 -56.667 -4.83301 -72 -14.5s-23 -21.5 -23 -35.5c0 -18.667 11.167 -33.5 33.5 -44.5s55.166 -21.5 98.499 -31.5c25.333 -6 43.5 -10.5 54.5 -13.5
s28.667 -8.33301 53 -16s42.833 -14.834 55.5 -21.501s27.834 -15.834 45.501 -27.501s31 -24 40 -37s17 -28.833 24 -47.5s10.5 -39 10.5 -61c0 -64 -26.333 -118.333 -79 -163s-126.334 -67 -221.001 -67c-118.667 0 -210 40.667 -274 122
c-27.333 35.333 -47.666 76.333 -60.999 123z" />
    <glyph glyph-name="T" unicode="T" 
d="M10 530v170h625v-170h-220v-530h-185v530h-220z" />
    <glyph glyph-name="U" unicode="U" horiz-adv-x="750" 
d="M60 280l0.00195312 420h185v-415c0 -42 11.667 -75 35 -99s55 -36 95 -36s71.667 12 95 36s35 57 35 99v415h185v-420c0 -90.667 -28.333 -163.334 -85 -218.001s-133.334 -82 -230.001 -82s-173.334 27.333 -230.001 82s-85 127.334 -85 218.001z" />
    <glyph glyph-name="V" unicode="V" horiz-adv-x="715" 
d="M5 700h190l130 -530h65l130 530h190l-180 -700h-345z" />
    <glyph glyph-name="W" unicode="W" horiz-adv-x="1010" 
d="M15 700h185l90 -490h10l94 490h222l94 -490h10l90 490h185l-145 -700h-250l-90 470h-10l-90 -470h-250z" />
    <glyph glyph-name="X" unicode="X" horiz-adv-x="700" 
d="M5 0l175 345l-160 355h195l110 -270h50l110 270h195l-160 -355l175 -345h-200l-120 260h-50l-120 -260h-200z" />
    <glyph glyph-name="Y" unicode="Y" horiz-adv-x="685" 
d="M-10 700h195l150 -270h15l150 270h195l-260 -450v-250h-185v250z" />
    <glyph glyph-name="Z" unicode="Z" horiz-adv-x="665" 
d="M35 0v170l345 350v10h-335v170h575v-170l-345 -350v-10h355v-170h-595z" />
    <glyph glyph-name="bracketleft" unicode="[" horiz-adv-x="385" 
d="M65 -150v880h300v-150h-130v-580h130v-150h-300z" />
    <glyph glyph-name="backslash" unicode="\" horiz-adv-x="440" 
d="M0 700h175l265 -700h-175z" />
    <glyph glyph-name="bracketright" unicode="]" horiz-adv-x="385" 
d="M20 -150v150h130v580h-130v150h300v-880h-300z" />
    <glyph glyph-name="asciicircum" unicode="^" horiz-adv-x="505" 
d="M15 375l150 325h175l150 -325h-140l-90 190h-15l-90 -190h-140z" />
    <glyph glyph-name="underscore" unicode="_" horiz-adv-x="375" 
d="M-20 -210v130h415v-130h-415z" />
    <glyph glyph-name="grave" unicode="`" horiz-adv-x="305" 
d="M30 695v5h170l75 -155h-115z" />
    <glyph glyph-name="a" unicode="a" 
d="M30 260c0 82.667 22.333 149.167 67 199.5s99 75.5 163 75.5c41.333 0 80.333 -14.333 117 -43c15.333 -12.667 28 -26.667 38 -42h10v70h170v-520h-170v70h-10c-9.33301 -16 -22 -30.333 -38 -43c-36 -28 -75 -42 -117 -42c-64 0 -118.333 25.167 -163 75.5
s-67 116.833 -67 199.5zM205 260c0 -41.333 10 -73.333 30 -96s46.667 -34 80 -34s60 11.333 80 34s30 54.667 30 96s-10 73.333 -30 96s-46.667 34 -80 34s-60 -11.333 -80 -34s-30 -54.667 -30 -96z" />
    <glyph glyph-name="b" unicode="b" 
d="M50 0v700h170v-250h10c9.33301 15.333 22 29.333 38 42c36.667 28.667 75.667 43 117 43c64 0 118.333 -25.167 163 -75.5s67 -116.833 67 -199.5s-22.333 -149.167 -67 -199.5s-99 -75.5 -163 -75.5c-42 0 -81 14 -117 42c-16 12.667 -28.667 27 -38 43h-10v-70h-170z
M220 260c0 -41.333 10 -73.333 30 -96s46.667 -34 80 -34s60 11.333 80 34s30 54.667 30 96s-10 73.333 -30 96s-46.667 34 -80 34s-60 -11.333 -80 -34s-30 -54.667 -30 -96z" />
    <glyph glyph-name="c" unicode="c" horiz-adv-x="605" 
d="M25 260c0 74.667 27.332 139.166 81.999 193.499s120.667 81.5 198 81.5c96.667 0 172.334 -36 227.001 -108c22.667 -32 38.667 -67.667 48 -107h-175c-4 10 -11.333 21.667 -22 35c-22 23.333 -48 35 -78 35c-29.333 0 -54.166 -12 -74.499 -36
s-30.5 -55.333 -30.5 -94s10.167 -70 30.5 -94s45.166 -36 74.499 -36c34.667 0 61.334 11.667 80.001 35c7.33301 8.66699 14 20.334 20 35.001h175c-9.33301 -40 -25.333 -76 -48 -108c-52.667 -71.333 -128.334 -107 -227.001 -107c-77.333 0 -143.333 27.167 -198 81.5
s-82 118.833 -82 193.5z" />
    <glyph glyph-name="d" unicode="d" 
d="M30 260c0 82.667 22.333 149.167 67 199.5s99 75.5 163 75.5c41.333 0 80.333 -14.333 117 -43c15.333 -12.667 28 -26.667 38 -42h10v250h170v-700h-170v70h-10c-9.33301 -16 -22 -30.333 -38 -43c-36 -28 -75 -42 -117 -42c-64 0 -118.333 25.167 -163 75.5
s-67 116.833 -67 199.5zM205 260c0 -41.333 10 -73.333 30 -96s46.667 -34 80 -34s60 11.333 80 34s30 54.667 30 96s-10 73.333 -30 96s-46.667 34 -80 34s-60 -11.333 -80 -34s-30 -54.667 -30 -96z" />
    <glyph glyph-name="e" unicode="e" horiz-adv-x="625" 
d="M25 260c0 75.333 27.666 140.002 82.999 194.002s122.666 81 201.999 81c80.667 0 148.334 -27 203.001 -81s82 -118.667 82 -194v-30h-395c5.33301 -35.333 17.5 -62.5 36.5 -81.5s43.5 -28.5 73.5 -28.5c35.333 0 62 9 80 27c8 7.33301 14.667 16.666 20 27.999h180
c-12 -36.667 -30 -68.334 -54 -95.001c-52.667 -63.333 -128 -95 -226 -95c-79.333 0 -146.666 27 -201.999 81s-83 118.667 -83 194zM204.999 315.002h210.002c-6 24 -18.333 44.167 -37 60.5s-41.334 24.5 -68.001 24.5s-49.334 -8.16699 -68.001 -24.5
s-31 -36.5 -37 -60.5z" />
    <glyph glyph-name="f" unicode="f" horiz-adv-x="385" 
d="M15 365v135h65v200h310v-135h-140v-65h115v-135h-115v-365h-170v365h-65z" />
    <glyph glyph-name="g" unicode="g" 
d="M30 270c0 78 22.334 141.668 67.001 191.001s99 74 163 74c46 0 85.667 -13.333 119 -40c15.333 -12 27.333 -25.333 36 -40h10v65h170v-710h-495v135h325v135h-10c-9.33301 -14.667 -21.333 -27.334 -36 -38.001c-32.667 -24.667 -72.334 -37 -119.001 -37
c-64 0 -118.333 24.667 -163 74s-67 113 -67 191zM205.001 270.001c0 -37.333 10 -66.666 30 -87.999s46.667 -32 80 -32s60 10.667 80 32s30 50.666 30 87.999s-10 66.666 -30 87.999s-46.667 32 -80 32s-60 -10.667 -80 -32s-30 -50.666 -30 -87.999z" />
    <glyph glyph-name="h" unicode="h" horiz-adv-x="625" 
d="M50 0l0.000976562 700h170v-250h10c9.33301 16 21.333 30 36 42c34 28.667 73.667 43 119 43c61.333 0 109.166 -18.5 143.499 -55.5s51.5 -90.167 51.5 -159.5v-320h-170v295c0 30 -8 53.333 -24 70s-38 25 -66 25c-28.667 0 -52.5 -10.5 -71.5 -31.5
s-28.5 -48.833 -28.5 -83.5v-275h-170z" />
    <glyph glyph-name="i" unicode="i" horiz-adv-x="280" 
d="M45 660c0 24 9 44.167 27 60.5s40.667 24.5 68 24.5s50 -8.16699 68 -24.5s27 -36.5 27 -60.5c0 -23.333 -9 -43.333 -27 -60s-40.667 -25 -68 -25s-50 8.33301 -68 25s-27 36.667 -27 60zM55 0v520h170v-520h-170z" />
    <glyph glyph-name="j" unicode="j" horiz-adv-x="280" 
d="M45 660c0 24 9 44.167 27 60.5s40.667 24.5 68 24.5s50 -8.16699 68 -24.5s27 -36.5 27 -60.5c0 -23.333 -9 -43.333 -27 -60s-40.667 -25 -68 -25s-50 8.33301 -68 25s-27 36.667 -27 60zM-80 -190v135h135v575h170v-710h-305z" />
    <glyph glyph-name="k" unicode="k" horiz-adv-x="585" 
d="M50 0v700h170v-365h55l115 185h180l-150 -245l165 -275h-185l-115 190h-65v-190h-170z" />
    <glyph glyph-name="l" unicode="l" horiz-adv-x="345" 
d="M50 0v700h170v-565h115v-135h-285z" />
    <glyph glyph-name="m" unicode="m" horiz-adv-x="955" 
d="M50 0l0.000976562 520h170v-70h10c9.33301 16.667 20.666 30.667 33.999 42c32.667 28.667 71.334 43 116.001 43c54 0 97.667 -16 131 -48c14 -13.333 25.333 -29 34 -47h10c8 17.333 19 33 33 47c32 32 74.333 48 127 48c61.333 0 109.166 -18.5 143.499 -55.5
s51.5 -90.167 51.5 -159.5v-320h-170v295c0 63.333 -26.667 95 -80 95c-28.667 0 -51.667 -9.66699 -69 -29s-26 -46.333 -26 -81v-280h-170v295c0 63.333 -26.667 95 -80 95c-28.667 0 -51.667 -9.66699 -69 -29s-26 -46.333 -26 -81v-280h-170z" />
    <glyph glyph-name="n" unicode="n" horiz-adv-x="625" 
d="M50 0l0.000976562 520h170v-70h10c9.33301 16 21.333 30 36 42c34 28.667 73.667 43 119 43c61.333 0 109.166 -18.5 143.499 -55.5s51.5 -90.167 51.5 -159.5v-320h-170v295c0 30 -8 53.333 -24 70s-38 25 -66 25c-28.667 0 -52.5 -10.5 -71.5 -31.5
s-28.5 -48.833 -28.5 -83.5v-275h-170z" />
    <glyph glyph-name="o" unicode="o" horiz-adv-x="630" 
d="M25 260c0 75.333 28 140 84 194s124.667 81 206 81s150 -27 206 -81s84 -118.667 84 -194s-28 -140 -84 -194s-124.667 -81 -206 -81s-150 27 -206 81s-84 118.667 -84 194zM200 260c0 -39.333 10.833 -70.833 32.5 -94.5s49.167 -35.5 82.5 -35.5
s60.833 11.833 82.5 35.5s32.5 55.167 32.5 94.5s-10.833 70.833 -32.5 94.5s-49.167 35.5 -82.5 35.5s-60.833 -11.833 -82.5 -35.5s-32.5 -55.167 -32.5 -94.5z" />
    <glyph glyph-name="p" unicode="p" 
d="M50 -190v710h170v-70h10c9.33301 15.333 22 29.333 38 42c36.667 28.667 75.667 43 117 43c64 0 118.333 -25.167 163 -75.5s67 -116.833 67 -199.5s-22.333 -149.167 -67 -199.5s-99 -75.5 -163 -75.5c-42 0 -81 14 -117 42c-16 12.667 -28.667 27 -38 43h-10v-260h-170
zM220 260c0 -41.333 10 -73.333 30 -96s46.667 -34 80 -34s60 11.333 80 34s30 54.667 30 96s-10 73.333 -30 96s-46.667 34 -80 34s-60 -11.333 -80 -34s-30 -54.667 -30 -96z" />
    <glyph glyph-name="q" unicode="q" 
d="M30 260c0 82.667 22.333 149.167 67 199.5s99 75.5 163 75.5c41.333 0 80.333 -14.333 117 -43c15.333 -12.667 28 -26.667 38 -42h10v70h170v-710h-170v260h-10c-9.33301 -16 -22 -30.333 -38 -43c-36 -28 -75 -42 -117 -42c-64 0 -118.333 25.167 -163 75.5
s-67 116.833 -67 199.5zM205 260c0 -41.333 10 -73.333 30 -96s46.667 -34 80 -34s60 11.333 80 34s30 54.667 30 96s-10 73.333 -30 96s-46.667 34 -80 34s-60 -11.333 -80 -34s-30 -54.667 -30 -96z" />
    <glyph glyph-name="r" unicode="r" horiz-adv-x="420" 
d="M50 0l0.000976562 520h165v-75h10c6 16 15 30 27 42c27.333 28.667 60.666 43 99.999 43h53v-165h-85c-30 0 -54.167 -9.16699 -72.5 -27.5s-27.5 -42.5 -27.5 -72.5v-265h-170z" />
    <glyph glyph-name="s" unicode="s" horiz-adv-x="555" 
d="M20 170l170.003 0.00195312c2.66699 -10 8.33398 -19.333 17.001 -28c18 -18 44 -27 78 -27c46.667 0 70 11.667 70 35c0 10.667 -6.66699 19.167 -20 25.5s-33.333 12.833 -60 19.5c-22 5.33301 -36.333 8.66602 -43 9.99902s-20.667 5.16602 -42 11.499
s-36.5 12 -45.5 17s-21.333 12.333 -37 22s-27 19.667 -34 30s-13.5 23.333 -19.5 39s-9 32.5 -9 50.5c0 44 19.667 81.667 59 113s94.666 47 165.999 47c89.333 0 160 -29.333 212 -88c20.667 -25.333 35 -54.333 43 -87h-165c-4 10.667 -8.66699 19 -14 25
c-15.333 16.667 -37.333 25 -66 25c-40 0 -60 -11.667 -60 -35c0 -11.333 6.66699 -20 20 -26s33.666 -11.667 60.999 -17c68.667 -16 115 -30 139 -42c60 -29.333 90 -74.333 90 -135c0 -48 -21.167 -88.333 -63.5 -121s-102.833 -49 -181.5 -49
c-96.667 0 -170.334 30.667 -221.001 92c-22.667 27.333 -37.334 58.333 -44.001 93z" />
    <glyph glyph-name="t" unicode="t" horiz-adv-x="420" 
d="M15 385v135h65v110h170v-110h135v-135h-135v-250h145v-135h-315v385h-65z" />
    <glyph glyph-name="u" unicode="u" horiz-adv-x="630" 
d="M50 200l-0.000976562 320h170v-295c0 -30 8 -53.333 24 -70s38 -25 66 -25c28.667 0 52.5 10.5 71.5 31.5s28.5 48.833 28.5 83.5v275h170v-520h-170v70h-10c-8.66699 -16.667 -20.667 -31 -36 -43c-33.333 -28 -73 -42 -119 -42c-61.333 0 -109.166 18.5 -143.499 55.5
s-51.5 90.167 -51.5 159.5z" />
    <glyph glyph-name="v" unicode="v" horiz-adv-x="575" 
d="M5 520h175l85 -370h45l85 370h175l-130 -520h-305z" />
    <glyph glyph-name="w" unicode="w" horiz-adv-x="860" 
d="M15 520h175l60 -340h15l65 340h200l65 -340h15l60 340h175l-105 -520h-240l-65 340h-10l-65 -340h-240z" />
    <glyph glyph-name="x" unicode="x" horiz-adv-x="580" 
d="M0 0l145 270l-135 250h185l80 -180h30l80 180h185l-135 -250l145 -270h-190l-85 185h-30l-85 -185h-190z" />
    <glyph glyph-name="y" unicode="y" horiz-adv-x="575" 
d="M10 520h175l90 -375h30l100 375h175l-200 -710h-175l55 190h-115z" />
    <glyph glyph-name="z" unicode="z" horiz-adv-x="525" 
d="M25 0v145l245 220v10h-235v145h455v-145l-245 -220v-10h255v-145h-475z" />
    <glyph glyph-name="braceleft" unicode="{" horiz-adv-x="405" 
d="M30 215v149.998h40c10 0 18.333 3.33301 25 10s10 15 10 25v170c0 50 14.5 89.167 43.5 117.5s69.5 42.5 121.5 42.5h115v-145h-65c-14 0 -25 -4 -33 -12s-12 -18.333 -12 -31v-147c0 -36 -13.333 -64 -40 -84c-11.333 -7.33301 -24.666 -12.666 -39.999 -15.999v-10
c15.333 -3.33301 28.666 -8.66602 39.999 -15.999c26.667 -20 40 -48 40 -84v-147c0 -12.667 4 -23 12 -31s19 -12 33 -12h65v-145h-115c-52 0 -92.5 14.167 -121.5 42.5s-43.5 67.5 -43.5 117.5v170c0 10 -3.33301 18.333 -10 25s-15 10 -25 10h-40z" />
    <glyph glyph-name="bar" unicode="|" horiz-adv-x="400" 
d="M120 -100v850h160v-850h-160z" />
    <glyph glyph-name="braceright" unicode="}" horiz-adv-x="405" 
d="M20 -150v145.002h65c14 0 25 4 33 12s12 18.333 12 31v147c0 36 13.333 64 40 84c11.333 7.33301 24.666 12.666 39.999 15.999v10c-15.333 3.33301 -28.666 8.66602 -39.999 15.999c-26.667 20 -40 48 -40 84v147c0 12.667 -4 23 -12 31s-19 12 -33 12h-65v145h115
c52 0 92.5 -14.167 121.5 -42.5s43.5 -67.5 43.5 -117.5v-170c0 -10 3.33301 -18.333 10 -25s15 -10 25 -10h40v-150h-40c-10 0 -18.333 -3.33301 -25 -10s-10 -15 -10 -25v-170c0 -50 -14.5 -89.167 -43.5 -117.5s-69.5 -42.5 -121.5 -42.5h-115z" />
    <glyph glyph-name="asciitilde" unicode="~" horiz-adv-x="540" 
d="M40 210l0.000976562 60c0 42 11.333 75 34 99s53 36 91 36c34.667 0 68.667 -9 102 -27c30 -18.667 52.667 -28 68 -28c10 0 18.333 3.33301 25 10s10 15 10 25v15h130v-60c0 -42 -11.333 -75 -34 -99s-53 -36 -91 -36s-72 9.33301 -102 28
c-2.66699 1.33301 -7.16699 3.83301 -13.5 7.5l-14 8c-3 1.66699 -7 3.5 -12 5.5s-9.83301 3.5 -14.5 4.5s-9.33398 1.5 -14.001 1.5c-10 0 -18.333 -3.33301 -25 -10s-10 -15 -10 -25v-15h-130z" />
    <glyph glyph-name="nbspace" unicode="&#xa0;" horiz-adv-x="280" 
 />
    <glyph glyph-name="exclamdown" unicode="&#xa1;" horiz-adv-x="310" 
d="M65 440c0 25.333 8.66699 46.666 26 63.999s38.666 26 63.999 26s46.666 -8.66699 63.999 -26s26 -38.666 26 -63.999s-8.66699 -46.666 -26 -63.999s-38.666 -26 -63.999 -26s-46.666 8.66699 -63.999 26s-26 38.666 -26 63.999zM70 -190v315l30 160h110l30 -160v-315
h-170z" />
    <glyph glyph-name="cent" unicode="&#xa2;" horiz-adv-x="605" 
d="M25 260c0 61.333 18.8311 116.499 56.498 165.499s85.5 81.5 143.5 97.5v87h155v-83c70.667 -16 125.334 -55 164.001 -117c17.333 -26.667 29.333 -56.667 36 -90h-175c-4 10 -11.333 21.667 -22 35c-22 23.333 -48 35 -78 35c-29.333 0 -54.166 -12 -74.499 -36
s-30.5 -55.333 -30.5 -94s10.167 -70 30.5 -94s45.166 -36 74.499 -36c34.667 0 61.334 11.667 80.001 35c7.33301 8.66699 14 20.334 20 35.001h175c-6.66699 -33.333 -18.667 -63.333 -36 -90c-37.333 -62 -92 -101 -164 -117v-83h-155v87
c-58 16 -105.833 48.333 -143.5 97s-56.5 104 -56.5 166z" />
    <glyph glyph-name="sterling" unicode="&#xa3;" horiz-adv-x="625" 
d="M25 0v159.999h15c46.667 0 70 25 70 75v65h-65v130h65v75c0 68.667 22 123.334 66 164.001s105.333 61 184 61c96 0 165.667 -34.333 209 -103c19.333 -30 31.333 -64 36 -102h-180c-0.666992 10 -3.66699 19 -9 27c-10 18.667 -27 28 -51 28c-46.667 0 -70 -25 -70 -75
v-75h145v-130h-145v-50c0 -28.667 -9.33301 -51 -28 -67c-8 -7.33301 -17 -13.333 -27 -18v-5h370v-160h-585z" />
    <glyph glyph-name="currency" unicode="&#xa4;" horiz-adv-x="715" 
d="M25 80v120h75v60h-75v130h75v310h311c92 0 161.5 -19.667 208.5 -59s70.5 -93 70.5 -161s-23.667 -121.667 -71 -161s-117 -59 -209 -59h-125v-60h215v-120h-215v-80h-185v80h-75zM285 390h115c31.333 0 55.833 7.5 73.5 22.5s26.5 34.167 26.5 57.5
s-8.83301 42.5 -26.5 57.5s-42.167 22.5 -73.5 22.5h-115v-160z" />
    <glyph glyph-name="yen" unicode="&#xa5;" horiz-adv-x="705" 
d="M0 700h195l150 -235h15l150 235h195l-240 -360h120v-100h-140v-65h140v-100h-140v-75h-185v75h-140v100h140v65h-140v100h120z" />
    <glyph glyph-name="brokenbar" unicode="&#xa6;" horiz-adv-x="400" 
d="M120 385v365h160v-365h-160zM120 -100v365h160v-365h-160z" />
    <glyph glyph-name="section" unicode="&#xa7;" horiz-adv-x="600" 
d="M30 145l170.003 -0.00390625c6 -10.667 12.333 -19 19 -25c19.333 -16.667 44.666 -25 75.999 -25c50 0 75 13.333 75 40c0 4 -1.5 8 -4.5 12s-7.83301 7.66699 -14.5 11s-13.5 6.5 -20.5 9.5s-16.167 6.16699 -27.5 9.5l-30 8.5l-35 9
c-14.667 3.66699 -26.334 6.83398 -35.001 9.50098c-112 28 -168 76.667 -168 146c0 32 15 60.333 45 85c12 9.33301 27 17.666 45 24.999v10c-12.667 6.66699 -23.667 15.334 -33 26.001c-21.333 22.667 -32 47.334 -32 74.001c0 43.333 20.667 80 62 110
s100.666 45 177.999 45c94.667 0 167.667 -27.667 219 -83c21.333 -23.333 36.666 -50.666 45.999 -81.999h-170c-3.33301 9.33301 -8.66602 17.666 -15.999 24.999c-18 16.667 -41 25 -69 25c-50 0 -75 -13.333 -75 -40c0 -18 47 -38.333 141 -61
c4 -1.33301 7.16699 -2.16602 9.5 -2.49902s5.16602 -1 8.49902 -2s6.33301 -1.83301 9 -2.5c111.333 -30.667 167 -79.667 167 -147c0 -34.667 -15 -63 -45 -85c-12 -10.667 -27 -19 -45 -25v-10c12 -7.33301 22.667 -16 32 -26c22 -23.333 33 -48 33 -74
c0 -43.333 -20.667 -80 -62 -110s-100.666 -45 -177.999 -45c-97.333 0 -173.333 27.333 -228 82c-22 22.667 -37.667 50.334 -47 83.001zM215.003 369.996c0 -13.333 6.5 -24.167 19.5 -32.5s33.833 -16.166 62.5 -23.499l63 -19l15 9c10 10 15 20.333 15 31
c0 14 -6.16699 24.667 -18.5 32s-33.5 15.666 -63.5 24.999l-63 18c-6 -2.66699 -11 -5.66699 -15 -9c-10 -8.66699 -15 -19 -15 -31z" />
    <glyph glyph-name="dieresis" unicode="&#xa8;" horiz-adv-x="425" 
d="M235 630c0 22.667 7.66699 41.667 23 57s34.333 23 57 23s41.667 -7.66699 57 -23s23 -34.333 23 -57s-7.66699 -41.667 -23 -57s-34.333 -23 -57 -23s-41.667 7.66699 -57 23s-23 34.333 -23 57zM30 630c0 22.667 7.66699 41.667 23 57s34.333 23 57 23
s41.667 -7.66699 57 -23s23 -34.333 23 -57s-7.66699 -41.667 -23 -57s-34.333 -23 -57 -23s-41.667 7.66699 -57 23s-23 34.333 -23 57z" />
    <glyph glyph-name="copyright" unicode="&#xa9;" horiz-adv-x="845" 
d="M35 350c0 101.333 37.833 188.333 113.5 261s167.834 109 276.501 109s200.834 -36.333 276.501 -109s113.5 -159.667 113.5 -261s-37.833 -188.333 -113.5 -261s-167.834 -109 -276.501 -109s-200.834 36.333 -276.501 109s-113.5 159.667 -113.5 261zM150 350
c0 -75.333 26 -138.333 78 -189s117.667 -76 197 -76s145 25.333 197 76s78 113.667 78 189s-26 138.333 -78 189s-117.667 76 -197 76s-145 -25.333 -197 -76s-78 -113.667 -78 -189zM240 350c0 50.667 17.833 94.167 53.5 130.5s79.5 54.5 131.5 54.5
c64 0 114.333 -25 151 -75c15.333 -21.333 26.666 -46.333 33.999 -75h-120c-2.66699 5.33301 -7 11 -13 17c-12 12 -27.667 18 -47 18c-20 0 -36.667 -6.66699 -50 -20s-20 -30 -20 -50s6.66699 -36.667 20 -50s30 -20 50 -20s35.667 5.66699 47 17c6 6 10.333 12 13 18
h120c-7.33301 -28.667 -18.666 -53.667 -33.999 -75c-34.667 -50 -85 -75 -151 -75c-52 0 -95.833 18.167 -131.5 54.5s-53.5 79.833 -53.5 130.5z" />
    <glyph glyph-name="ordfeminine" unicode="&#xaa;" horiz-adv-x="390" 
d="M30 460c0 30.667 10.168 55 30.501 73s50.166 27 89.499 27h90v20c0 26.667 -13.333 40 -40 40c-12 0 -23 -5 -33 -15c-4 -6.66699 -6.33301 -11.667 -7 -15h-115c5.33301 24 14 44 26 60c30 40 74.667 60 134 60c51.333 0 90 -11.333 116 -34s39 -54.667 39 -96v-210
h-120v50h-5c-4.66699 -10.667 -11.667 -20.667 -21 -30c-20 -20 -44.667 -30 -74 -30c-33.333 0 -60 9.5 -80 28.5s-30 42.833 -30 71.5zM155.001 480c0 -16.667 10 -25 30 -25c15.333 0 28.333 5.16699 39 15.5s16 21.833 16 34.5h-55c-20 0 -30 -8.33301 -30 -25z" />
    <glyph glyph-name="guillemotleft" unicode="&#xab;" horiz-adv-x="640" 
d="M285 260l225 260l95 -90l-150 -170l150 -170l-95 -90zM20 260l225 260l95 -90l-150 -170l150 -170l-95 -90z" />
    <glyph glyph-name="logicalnot" unicode="&#xac;" horiz-adv-x="540" 
d="M55 245v140h425v-240h-150v100h-275z" />
    <glyph glyph-name="uni00AD" unicode="&#xad;" horiz-adv-x="490" 
d="M50 200v140h390v-140h-390z" />
    <glyph glyph-name="registered" unicode="&#xae;" horiz-adv-x="605" 
d="M25 450c0 75.333 26.833 139.166 80.5 191.499s120.167 78.5 199.5 78.5s145.833 -26.167 199.5 -78.5s80.5 -116.166 80.5 -191.499s-26.833 -139.166 -80.5 -191.499s-120.167 -78.5 -199.5 -78.5s-145.833 26.167 -199.5 78.5s-80.5 116.166 -80.5 191.499zM115 450
c0 -56.667 17.667 -101.667 53 -135s81 -50 137 -50s101.667 16.667 137 50s53 78.333 53 135s-17.667 101.667 -53 135s-81 50 -137 50s-101.667 -16.667 -137 -50s-53 -78.333 -53 -135zM195 335l-0.000976562 245.001h125c36.667 0 65 -8.33301 85 -25
s30 -38.334 30 -65.001c0 -24.667 -7.66699 -44.667 -23 -60c-7.33301 -7.33301 -14.666 -12.333 -21.999 -15l55 -80h-95l-45 65h-20v-65h-90zM284.999 465.001h30c16.667 0 25 6.66699 25 20s-8.33301 20 -25 20h-30v-40z" />
    <glyph glyph-name="overscore" unicode="&#xaf;" horiz-adv-x="380" 
d="M30 590v105h320v-105h-320z" />
    <glyph glyph-name="degree" unicode="&#xb0;" horiz-adv-x="340" 
d="M30 570c0 38 13.333 70 40 96s60 39 100 39s73.333 -13 100 -39s40 -58 40 -96s-13.333 -70 -40 -96s-60 -39 -100 -39s-73.333 13 -100 39s-40 58 -40 96zM125 570c0 -12.667 4.33301 -23.334 13 -32.001s19.334 -13 32.001 -13s23.334 4.33301 32.001 13
s13 19.334 13 32.001s-4.33301 23.334 -13 32.001s-19.334 13 -32.001 13s-23.334 -4.33301 -32.001 -13s-13 -19.334 -13 -32.001z" />
    <glyph glyph-name="plusminus" unicode="&#xb1;" horiz-adv-x="540" 
d="M50 0v135h150v130h-150v135h150v150h140v-150h150v-135h-150v-130h150v-135h-440z" />
    <glyph glyph-name="twosuperior" unicode="&#xb2;" horiz-adv-x="370" 
d="M30 460v100l80 40c44 22 72.5 38.167 85.5 48.5s19.5 20.833 19.5 31.5c0 8 -3.33301 15 -10 21s-15 9 -25 9c-12 0 -23 -5 -33 -15c-4 -6.66699 -6.33301 -11.667 -7 -15h-115c4.66699 23.333 14 45 28 65c31.333 43.333 77 65 137 65c48 0 85 -10.667 111 -32
s39 -49 39 -83c0 -60.667 -40 -104 -120 -130l-15 -5l-15 -5v-5l45 10h105v-100h-310z" />
    <glyph glyph-name="threesuperior" unicode="&#xb3;" horiz-adv-x="355" 
d="M20 570h114.999c2 -6 5 -11 9 -15c8.66699 -10 20.667 -15 36 -15c10 0 18.333 3 25 9s10 13 10 21c0 10 -3.66699 18.333 -11 25s-17 10 -29 10h-70v60l85 50v5l-40 -10h-110v90h275v-85l-75 -45l-10 -5v-5h1c32 0 57.333 -8.83301 76 -26.5s28 -40.5 28 -68.5
c0 -32 -13.167 -59.167 -39.5 -81.5s-63.166 -33.5 -110.499 -33.5c-62 0 -108 20 -138 60c-12.667 17.333 -21.667 37.333 -27 60z" />
    <glyph glyph-name="acute" unicode="&#xb4;" horiz-adv-x="305" 
d="M30 545l75 155h170v-5l-130 -150h-115z" />
    <glyph glyph-name="mu" unicode="&#xb5;" horiz-adv-x="630" 
d="M50 -200l-0.000976562 720h170v-295c0 -30 8 -53.333 24 -70s38 -25 66 -25c28.667 0 52.5 10.5 71.5 31.5s28.5 48.833 28.5 83.5v275h170v-520h-170v70h-10c-5.33301 -16 -14 -30.333 -26 -43c-25.333 -28 -56.666 -42 -93.999 -42c-29.333 0 -53 6.66699 -71 20
c-6.66699 5.33301 -13 12 -19 20h-10l40 -115v-110h-170z" />
    <glyph glyph-name="paragraph" unicode="&#xb6;" horiz-adv-x="525" 
d="M25 475c0 63.333 22.6689 116.666 68.002 159.999s102.666 65 171.999 65h240v-170h-95v-725h-160v445c-62.667 0 -115.834 21.833 -159.501 65.5s-65.5 96.834 -65.5 159.501z" />
    <glyph glyph-name="middot" unicode="&#xb7;" horiz-adv-x="280" 
d="M50 280c0 25.333 8.66699 46.666 26 63.999s38.666 26 63.999 26s46.666 -8.66699 63.999 -26s26 -38.666 26 -63.999s-8.66699 -46.666 -26 -63.999s-38.666 -26 -63.999 -26s-46.666 8.66699 -63.999 26s-26 38.666 -26 63.999z" />
    <glyph glyph-name="cedilla" unicode="&#xb8;" horiz-adv-x="285" 
d="M30 -245l-0.00195312 84.998c6.66699 -3.33301 15 -6.66602 25 -9.99902c20 -6.66699 40 -10 60 -10c30 0 45 11.667 45 35c0 8 -3.66699 15 -11 21s-17 9 -29 9h-55l50 135h75l-25 -65c18 -3.33301 33 -8.66602 45 -15.999c30 -19.333 45 -47.333 45 -84
c0 -33.333 -12.667 -61.666 -38 -84.999s-57.666 -35 -96.999 -35c-25.333 0 -48 3.33301 -68 10c-9.33301 3.33301 -16.666 6.66602 -21.999 9.99902z" />
    <glyph glyph-name="onesuperior" unicode="&#xb9;" horiz-adv-x="360" 
d="M40 460v100h90v130l-80 -45v105l90 50h110v-240h80v-100h-290z" />
    <glyph glyph-name="ordmasculine" unicode="&#xba;" horiz-adv-x="400" 
d="M20 535c0 50.667 16.667 92.5 50 125.5s76.666 49.5 129.999 49.5s96.666 -16.5 129.999 -49.5s50 -74.833 50 -125.5s-16.667 -92.5 -50 -125.5s-76.666 -49.5 -129.999 -49.5s-96.666 16.5 -129.999 49.5s-50 74.833 -50 125.5zM145 535
c0 -22 5.16699 -39.167 15.5 -51.5s23.5 -18.5 39.5 -18.5s29.167 6.16699 39.5 18.5s15.5 29.5 15.5 51.5s-5.16699 39.167 -15.5 51.5s-23.5 18.5 -39.5 18.5s-29.167 -6.16699 -39.5 -18.5s-15.5 -29.5 -15.5 -51.5z" />
    <glyph glyph-name="guillemotright" unicode="&#xbb;" horiz-adv-x="640" 
d="M300 90l150 170l-150 170l95 90l225 -260l-225 -260zM35 90l150 170l-150 170l95 90l225 -260l-225 -260z" />
    <glyph glyph-name="onequarter" unicode="&#xbc;" horiz-adv-x="825" 
d="M35 360v100h90v130l-80 -45v105l90 50h110v-240h80v-100h-290zM165 0l420 700h130l-420 -700h-130zM475 60v90l120 190h120l-115 -180h50l25 50h90v-50h40v-100h-40v-60h-115v60h-175z" />
    <glyph glyph-name="onehalf" unicode="&#xbd;" horiz-adv-x="865" 
d="M35 360v100h90v130l-80 -45v105l90 50h110v-240h80v-100h-290zM165 0l420 700h130l-420 -700h-130zM520 0v100l80 40c44 22 72.5 38.167 85.5 48.5s19.5 20.833 19.5 31.5c0 8 -3.33301 15 -10 21s-15 9 -25 9c-12 0 -23 -5 -33 -15c-4 -6.66699 -6.33301 -11.667 -7 -15
h-115c4.66699 23.333 14 45 28 65c31.333 43.333 77 65 137 65c48 0 85 -10.667 111 -32s39 -49 39 -83c0 -60.667 -40 -104 -120 -130l-15 -5l-15 -5v-5l45 10h105v-100h-310z" />
    <glyph glyph-name="threequarters" unicode="&#xbe;" horiz-adv-x="815" 
d="M25 470h114.999c2 -6 5 -11 9 -15c8.66699 -10 20.667 -15 36 -15c10 0 18.333 3 25 9s10 13 10 21c0 10 -3.66699 18.333 -11 25s-17 10 -29 10h-70v60l85 50v5l-40 -10h-110v90h275v-85l-75 -45l-10 -5v-5h1c32 0 57.333 -8.83301 76 -26.5s28 -40.5 28 -68.5
c0 -32 -13.167 -59.167 -39.5 -81.5s-63.166 -33.5 -110.499 -33.5c-62 0 -108 20 -138 60c-13.333 17.333 -22.333 37.333 -27 60zM154.999 0l420 700h130l-420 -700h-130zM464.999 60v90l120 190h120l-115 -180h50l25 50h90v-50h40v-100h-40v-60h-115v60h-175z" />
    <glyph glyph-name="questiondown" unicode="&#xbf;" horiz-adv-x="605" 
d="M225 440c0 25.333 8.66699 46.666 26 63.999s38.666 26 63.999 26s46.666 -8.66699 63.999 -26s26 -38.666 26 -63.999s-8.66699 -46.666 -26 -63.999s-38.666 -26 -63.999 -26s-46.666 8.66699 -63.999 26s-26 38.666 -26 63.999zM30 0
c0 40 8.83203 72.834 26.499 98.501s41.5 48.5 71.5 68.5c20.667 13.333 36.667 24.333 48 33s22.333 20.667 33 36s16 31.666 16 48.999h180c0 -70.667 -32.333 -127 -97 -169l-16 -10.5c-8.66699 -5.66699 -14.167 -9.33398 -16.5 -11.001l-14.5 -10
c-7.33301 -5 -12.166 -8.66699 -14.499 -11l-11.5 -11c-5.33301 -5 -9 -9.16699 -11 -12.5l-7 -12c-2.66699 -4.66699 -4.5 -9.16699 -5.5 -13.5s-1.5 -9.16602 -1.5 -14.499c0 -21.333 8 -38.333 24 -51s39.667 -19 71 -19c41.333 0 72 14 92 42
c9.33301 12 15.333 26.333 18 43h180c-8.66699 -43.333 -25.667 -82.666 -51 -117.999c-56.667 -78 -139.667 -117 -249 -117c-79.333 0 -143.333 20.667 -192 62s-73 90.666 -73 147.999z" />
    <glyph glyph-name="Agrave" unicode="&#xc0;" horiz-adv-x="720" 
d="M0 0l190 700h340l190 -700h-190l-35 140h-270l-35 -140h-190zM265 300h190l-60 230h-70zM180 935v5h170l75 -155h-115z" />
    <glyph glyph-name="Aacute" unicode="&#xc1;" horiz-adv-x="720" 
d="M0 0l190 700h340l190 -700h-190l-35 140h-270l-35 -140h-190zM265 300h190l-60 230h-70zM300 785l75 155h170v-5l-130 -150h-115z" />
    <glyph glyph-name="Acircumflex" unicode="&#xc2;" horiz-adv-x="720" 
d="M0 0l190 700h340l190 -700h-190l-35 140h-270l-35 -140h-190zM265 300h190l-60 230h-70zM180 785v5l110 150h135l110 -150v-5h-115l-55 70h-15l-55 -70h-115z" />
    <glyph glyph-name="Atilde" unicode="&#xc3;" horiz-adv-x="720" 
d="M0 0l190 700h340l190 -700h-190l-35 140h-270l-35 -140h-190zM265 300h190l-60 230h-70zM185 785v50c0 30 8.33301 53.333 25 70s40 25 70 25c26 0 52.333 -7.33301 79 -22c24 -15.333 41 -23 51 -23c16.667 0 25 8.33301 25 25v15h95v-50
c0 -30 -8.33301 -53.333 -25 -70s-40 -25 -70 -25c-28 0 -54 7.66699 -78 23c-26.667 14.667 -44 22 -52 22c-16.667 0 -25 -8.33301 -25 -25v-15h-95z" />
    <glyph glyph-name="Adieresis" unicode="&#xc4;" horiz-adv-x="720" 
d="M0 0l190 700h340l190 -700h-190l-35 140h-270l-35 -140h-190zM265 300h190l-60 230h-70zM385 855c0 22.667 7.66699 41.667 23 57s34.333 23 57 23s41.667 -7.66699 57 -23s23 -34.333 23 -57s-7.66699 -41.667 -23 -57s-34.333 -23 -57 -23s-41.667 7.66699 -57 23
s-23 34.333 -23 57zM180 855c0 22.667 7.66699 41.667 23 57s34.333 23 57 23s41.667 -7.66699 57 -23s23 -34.333 23 -57s-7.66699 -41.667 -23 -57s-34.333 -23 -57 -23s-41.667 7.66699 -57 23s-23 34.333 -23 57z" />
    <glyph glyph-name="Aring" unicode="&#xc5;" horiz-adv-x="720" 
d="M0 0l190 700h340l190 -700h-190l-35 140h-270l-35 -140h-190zM265 300h190l-60 230h-70zM240 865c0 32.667 11.167 60 33.5 82s51.166 33 86.499 33s64.166 -11 86.499 -33s33.5 -49.333 33.5 -82s-11.167 -60 -33.5 -82s-51.166 -33 -86.499 -33s-64.166 11 -86.499 33
s-33.5 49.333 -33.5 82zM315 865c0 -12.667 4.33301 -23.334 13 -32.001s19.334 -13 32.001 -13s23.334 4.33301 32.001 13s13 19.334 13 32.001s-4.33301 23.334 -13 32.001s-19.334 13 -32.001 13s-23.334 -4.33301 -32.001 -13s-13 -19.334 -13 -32.001z" />
    <glyph glyph-name="AE" unicode="&#xc6;" horiz-adv-x="1020" 
d="M0 0l190 700h790v-170h-340v-105h270v-150h-270v-105h340v-170h-525v140h-233l-37 -140h-185zM258 300h197v230h-133z" />
    <glyph glyph-name="Ccedilla" unicode="&#xc7;" horiz-adv-x="825" 
d="M35 350c0 106 36.4971 194.165 109.497 264.498s166.5 105.5 280.5 105.5c126 0 225 -46 297 -138c32 -42 54.667 -87.667 68 -137h-190c-10 20.667 -22.333 38 -37 52c-35.333 35.333 -81.333 53 -138 53c-58 0 -105 -18.333 -141 -55s-54 -85 -54 -145
s18 -108.333 54 -145s83 -55 141 -55c62.667 0 111.334 20 146.001 60c16 18 27.333 38 34 60h190c-15.333 -53.333 -37.666 -100 -66.999 -140c-70 -95.333 -164.333 -145 -283 -149l-10 -26c18 -3.33301 33 -8.66602 45 -15.999c30 -19.333 45 -47.333 45 -84
c0 -33.333 -12.667 -61.666 -38 -84.999s-57.666 -35 -96.999 -35c-25.333 0 -48 3.33301 -68 10c-9.33301 3.33301 -16.666 6.66602 -21.999 9.99902v85c6.66699 -3.33301 15 -6.66602 25 -9.99902c20 -6.66699 40 -10 60 -10c30 0 45 11.667 45 35c0 8 -3.66699 15 -11 21
s-17 9 -29 9h-55l36 98c-100.667 12 -181.834 51.833 -243.501 119.5s-92.5 150.167 -92.5 247.5z" />
    <glyph glyph-name="Egrave" unicode="&#xc8;" 
d="M65 0v700h540v-170h-355v-105h285v-150h-285v-105h355v-170h-540zM160 935v5h170l75 -155h-115z" />
    <glyph glyph-name="Eacute" unicode="&#xc9;" 
d="M65 0v700h540v-170h-355v-105h285v-150h-285v-105h355v-170h-540zM265 785l75 155h170v-5l-130 -150h-115z" />
    <glyph glyph-name="Ecircumflex" unicode="&#xca;" 
d="M65 0v700h540v-170h-355v-105h285v-150h-285v-105h355v-170h-540zM160 785v5l110 150h135l110 -150v-5h-115l-55 70h-15l-55 -70h-115z" />
    <glyph glyph-name="Edieresis" unicode="&#xcb;" 
d="M65 0v700h540v-170h-355v-105h285v-150h-285v-105h355v-170h-540zM363 855c0 22.667 7.66699 41.667 23 57s34.333 23 57 23s41.667 -7.66699 57 -23s23 -34.333 23 -57s-7.66699 -41.667 -23 -57s-34.333 -23 -57 -23s-41.667 7.66699 -57 23s-23 34.333 -23 57z
M158 855c0 22.667 7.66699 41.667 23 57s34.333 23 57 23s41.667 -7.66699 57 -23s23 -34.333 23 -57s-7.66699 -41.667 -23 -57s-34.333 -23 -57 -23s-41.667 7.66699 -57 23s-23 34.333 -23 57z" />
    <glyph glyph-name="Igrave" unicode="&#xcc;" horiz-adv-x="315" 
d="M65 0v700h185v-700h-185zM-30 935v5h170l75 -155h-115z" />
    <glyph glyph-name="Iacute" unicode="&#xcd;" horiz-adv-x="315" 
d="M65 0v700h185v-700h-185zM100 785l75 155h170v-5l-130 -150h-115z" />
    <glyph glyph-name="Icircumflex" unicode="&#xce;" horiz-adv-x="315" 
d="M65 0v700h185v-700h-185zM-20 785v5l110 150h135l110 -150v-5h-115l-55 70h-15l-55 -70h-115z" />
    <glyph glyph-name="Idieresis" unicode="&#xcf;" horiz-adv-x="315" 
d="M65 0v700h185v-700h-185zM180 855c0 22.667 7.66699 41.667 23 57s34.333 23 57 23s41.667 -7.66699 57 -23s23 -34.333 23 -57s-7.66699 -41.667 -23 -57s-34.333 -23 -57 -23s-41.667 7.66699 -57 23s-23 34.333 -23 57zM-25 855c0 22.667 7.66699 41.667 23 57
s34.333 23 57 23s41.667 -7.66699 57 -23s23 -34.333 23 -57s-7.66699 -41.667 -23 -57s-34.333 -23 -57 -23s-41.667 7.66699 -57 23s-23 34.333 -23 57z" />
    <glyph glyph-name="Eth" unicode="&#xd0;" horiz-adv-x="780" 
d="M15 280v140h70v280h271c115.333 0 209 -33.5 281 -100.5s108 -150.167 108 -249.5s-36 -182.5 -108 -249.5s-165.667 -100.5 -281 -100.5h-271v280h-70zM270 170h85c62 0 110 16 144 48s51 76 51 132s-17 100 -51 132s-82 48 -144 48h-85v-110h130v-140h-130v-110z" />
    <glyph glyph-name="Ntilde" unicode="&#xd1;" horiz-adv-x="780" 
d="M65 0v700h225l245 -440h10l-15 90v350h185v-700h-225l-245 440h-10l15 -90v-350h-185zM220 785v50c0 30 8.33301 53.333 25 70s40 25 70 25c26 0 52.333 -7.33301 79 -22c24 -15.333 41 -23 51 -23c16.667 0 25 8.33301 25 25v15h95v-50c0 -30 -8.33301 -53.333 -25 -70
s-40 -25 -70 -25c-28 0 -54 7.66699 -78 23c-26.667 14.667 -44 22 -52 22c-16.667 0 -25 -8.33301 -25 -25v-15h-95z" />
    <glyph glyph-name="Ograve" unicode="&#xd2;" horiz-adv-x="850" 
d="M35 350c0 102 36.833 189.167 110.5 261.5s166.834 108.5 279.501 108.5s205.834 -36.167 279.501 -108.5s110.5 -159.5 110.5 -261.5s-36.833 -189.167 -110.5 -261.5s-166.834 -108.5 -279.501 -108.5s-205.834 36.167 -279.501 108.5s-110.5 159.5 -110.5 261.5z
M230 350c0 -60 18 -108.333 54 -145s83 -55 141 -55s105 18.333 141 55s54 85 54 145s-18 108.333 -54 145s-83 55 -141 55s-105 -18.333 -141 -55s-54 -85 -54 -145zM240 935v5h170l75 -155h-115z" />
    <glyph glyph-name="Oacute" unicode="&#xd3;" horiz-adv-x="850" 
d="M35 350c0 102 36.833 189.167 110.5 261.5s166.834 108.5 279.501 108.5s205.834 -36.167 279.501 -108.5s110.5 -159.5 110.5 -261.5s-36.833 -189.167 -110.5 -261.5s-166.834 -108.5 -279.501 -108.5s-205.834 36.167 -279.501 108.5s-110.5 159.5 -110.5 261.5z
M230 350c0 -60 18 -108.333 54 -145s83 -55 141 -55s105 18.333 141 55s54 85 54 145s-18 108.333 -54 145s-83 55 -141 55s-105 -18.333 -141 -55s-54 -85 -54 -145zM365 785l75 155h170v-5l-130 -150h-115z" />
    <glyph glyph-name="Ocircumflex" unicode="&#xd4;" horiz-adv-x="850" 
d="M35 350c0 102 36.833 189.167 110.5 261.5s166.834 108.5 279.501 108.5s205.834 -36.167 279.501 -108.5s110.5 -159.5 110.5 -261.5s-36.833 -189.167 -110.5 -261.5s-166.834 -108.5 -279.501 -108.5s-205.834 36.167 -279.501 108.5s-110.5 159.5 -110.5 261.5z
M230 350c0 -60 18 -108.333 54 -145s83 -55 141 -55s105 18.333 141 55s54 85 54 145s-18 108.333 -54 145s-83 55 -141 55s-105 -18.333 -141 -55s-54 -85 -54 -145zM245 785v5l110 150h135l110 -150v-5h-115l-55 70h-15l-55 -70h-115z" />
    <glyph glyph-name="Otilde" unicode="&#xd5;" horiz-adv-x="850" 
d="M35 350c0 102 36.833 189.167 110.5 261.5s166.834 108.5 279.501 108.5s205.834 -36.167 279.501 -108.5s110.5 -159.5 110.5 -261.5s-36.833 -189.167 -110.5 -261.5s-166.834 -108.5 -279.501 -108.5s-205.834 36.167 -279.501 108.5s-110.5 159.5 -110.5 261.5z
M230 350c0 -60 18 -108.333 54 -145s83 -55 141 -55s105 18.333 141 55s54 85 54 145s-18 108.333 -54 145s-83 55 -141 55s-105 -18.333 -141 -55s-54 -85 -54 -145zM250 785v50c0 30 8.33301 53.333 25 70s40 25 70 25c26 0 52.333 -7.33301 79 -22
c24 -15.333 41 -23 51 -23c16.667 0 25 8.33301 25 25v15h95v-50c0 -30 -8.33301 -53.333 -25 -70s-40 -25 -70 -25c-28 0 -54 7.66699 -78 23c-26.667 14.667 -44 22 -52 22c-16.667 0 -25 -8.33301 -25 -25v-15h-95z" />
    <glyph glyph-name="Odieresis" unicode="&#xd6;" horiz-adv-x="850" 
d="M35 350c0 102 36.833 189.167 110.5 261.5s166.834 108.5 279.501 108.5s205.834 -36.167 279.501 -108.5s110.5 -159.5 110.5 -261.5s-36.833 -189.167 -110.5 -261.5s-166.834 -108.5 -279.501 -108.5s-205.834 36.167 -279.501 108.5s-110.5 159.5 -110.5 261.5z
M230 350c0 -60 18 -108.333 54 -145s83 -55 141 -55s105 18.333 141 55s54 85 54 145s-18 108.333 -54 145s-83 55 -141 55s-105 -18.333 -141 -55s-54 -85 -54 -145zM445 855c0 22.667 7.66699 41.667 23 57s34.333 23 57 23s41.667 -7.66699 57 -23s23 -34.333 23 -57
s-7.66699 -41.667 -23 -57s-34.333 -23 -57 -23s-41.667 7.66699 -57 23s-23 34.333 -23 57zM240 855c0 22.667 7.66699 41.667 23 57s34.333 23 57 23s41.667 -7.66699 57 -23s23 -34.333 23 -57s-7.66699 -41.667 -23 -57s-34.333 -23 -57 -23s-41.667 7.66699 -57 23
s-23 34.333 -23 57z" />
    <glyph glyph-name="multiply" unicode="&#xd7;" horiz-adv-x="540" 
d="M55 185l115 115l-115 115l100 100l115 -115l115 115l100 -100l-115 -115l115 -115l-100 -100l-115 115l-115 -115z" />
    <glyph glyph-name="Oslash" unicode="&#xd8;" horiz-adv-x="850" 
d="M15 -10l-0.000976562 110l75 55c-10.667 14.667 -20 32 -28 52c-18 42 -27 89.667 -27 143c0 102 36.833 189.167 110.5 261.5s166.834 108.5 279.501 108.5c72.667 0 141.667 -18.333 207 -55c30 -18.667 54.333 -37 73 -55l130 100v-110l-75 -55
c9.33301 -14.667 18.333 -32.334 27 -53.001c18.667 -43.333 28 -90.666 28 -141.999c0 -102 -36.833 -189.167 -110.5 -261.5s-166.834 -108.5 -279.501 -108.5c-77.333 0 -146.666 18.333 -207.999 55c-28.667 16.667 -52.667 35 -72 55zM229.999 350
c0 -20.667 2.33301 -39.666 7 -56.999l3.5 -11c1.66699 -5.33301 3.16699 -9.33301 4.5 -12l310 235c-8.66699 7.33301 -19 14.666 -31 21.999c-29.333 15.333 -62.333 23 -99 23c-58 0 -105 -18.333 -141 -55s-54 -85 -54 -145zM604.999 430.001l-310.001 -235
c8 -8 18.333 -15.667 31 -23c28 -14.667 61 -22 99 -22c58 0 105 18.333 141 55s54 85 54 145c0 18 -2.66699 37 -8 57c-1.33301 3.33301 -3.66602 11 -6.99902 23z" />
    <glyph glyph-name="Ugrave" unicode="&#xd9;" horiz-adv-x="750" 
d="M60 280l0.00195312 420h185v-415c0 -42 11.667 -75 35 -99s55 -36 95 -36s71.667 12 95 36s35 57 35 99v415h185v-420c0 -90.667 -28.333 -163.334 -85 -218.001s-133.334 -82 -230.001 -82s-173.334 27.333 -230.001 82s-85 127.334 -85 218.001zM190.002 935v5h170
l75 -155h-115z" />
    <glyph glyph-name="Uacute" unicode="&#xda;" horiz-adv-x="750" 
d="M60 280l0.00195312 420h185v-415c0 -42 11.667 -75 35 -99s55 -36 95 -36s71.667 12 95 36s35 57 35 99v415h185v-420c0 -90.667 -28.333 -163.334 -85 -218.001s-133.334 -82 -230.001 -82s-173.334 27.333 -230.001 82s-85 127.334 -85 218.001zM315.002 785l75 155
h170v-5l-130 -150h-115z" />
    <glyph glyph-name="Ucircumflex" unicode="&#xdb;" horiz-adv-x="750" 
d="M60 280l0.00195312 420h185v-415c0 -42 11.667 -75 35 -99s55 -36 95 -36s71.667 12 95 36s35 57 35 99v415h185v-420c0 -90.667 -28.333 -163.334 -85 -218.001s-133.334 -82 -230.001 -82s-173.334 27.333 -230.001 82s-85 127.334 -85 218.001zM200.002 785v5l110 150
h135l110 -150v-5h-115l-55 70h-15l-55 -70h-115z" />
    <glyph glyph-name="Udieresis" unicode="&#xdc;" horiz-adv-x="750" 
d="M60 280l0.00195312 420h185v-415c0 -42 11.667 -75 35 -99s55 -36 95 -36s71.667 12 95 36s35 57 35 99v415h185v-420c0 -90.667 -28.333 -163.334 -85 -218.001s-133.334 -82 -230.001 -82s-173.334 27.333 -230.001 82s-85 127.334 -85 218.001zM400.002 855
c0 22.667 7.66699 41.667 23 57s34.333 23 57 23s41.667 -7.66699 57 -23s23 -34.333 23 -57s-7.66699 -41.667 -23 -57s-34.333 -23 -57 -23s-41.667 7.66699 -57 23s-23 34.333 -23 57zM195.002 855c0 22.667 7.66699 41.667 23 57s34.333 23 57 23
s41.667 -7.66699 57 -23s23 -34.333 23 -57s-7.66699 -41.667 -23 -57s-34.333 -23 -57 -23s-41.667 7.66699 -57 23s-23 34.333 -23 57z" />
    <glyph glyph-name="Yacute" unicode="&#xdd;" horiz-adv-x="685" 
d="M-10 700h195l150 -270h15l150 270h195l-260 -450v-250h-185v250zM285 785l75 155h170v-5l-130 -150h-115z" />
    <glyph glyph-name="Thorn" unicode="&#xde;" horiz-adv-x="765" 
d="M65 0v700h185v-100h195c88 0 158.333 -23.5 211 -70.5s79 -105.167 79 -174.5s-26.333 -127.5 -79 -174.5s-123 -70.5 -211 -70.5h-195v-110h-185zM250 280h190c70 0 105 25 105 75s-35 75 -105 75h-190v-150z" />
    <glyph glyph-name="germandbls" unicode="&#xdf;" horiz-adv-x="630" 
d="M50 0v509.997c0 60 22.833 110 68.5 150s106.167 60 181.5 60c71.333 0 129.166 -18.167 173.499 -54.5s66.5 -78.166 66.5 -125.499s-16.667 -85 -50 -113c-15.333 -12.667 -32 -21.667 -50 -27v-10c29.333 -4.66699 56 -15 80 -31c53.333 -36 80 -87.333 80 -154
c0 -62 -21.333 -111.667 -64 -149s-103 -56 -181 -56h-70v145h55c24.667 0 45 7.33301 61 22s24 32.334 24 53.001s-8.16699 38.334 -24.5 53.001s-38.166 22 -65.499 22h-50v145c24.667 0 44.167 6.5 58.5 19.5s21.5 29.833 21.5 50.5c0 18 -6.66699 33.333 -20 46
s-30 19 -50 19c-22 0 -40 -6.66699 -54 -20s-21 -30 -21 -50v-505h-170z" />
    <glyph glyph-name="agrave" unicode="&#xe0;" 
d="M30 260c0 82.667 22.333 149.167 67 199.5s99 75.5 163 75.5c41.333 0 80.333 -14.333 117 -43c15.333 -12.667 28 -26.667 38 -42h10v70h170v-520h-170v70h-10c-9.33301 -16 -22 -30.333 -38 -43c-36 -28 -75 -42 -117 -42c-64 0 -118.333 25.167 -163 75.5
s-67 116.833 -67 199.5zM205 260c0 -41.333 10 -73.333 30 -96s46.667 -34 80 -34s60 11.333 80 34s30 54.667 30 96s-10 73.333 -30 96s-46.667 34 -80 34s-60 -11.333 -80 -34s-30 -54.667 -30 -96zM145 765v5h170l75 -155h-115z" />
    <glyph glyph-name="aacute" unicode="&#xe1;" 
d="M30 260c0 82.667 22.333 149.167 67 199.5s99 75.5 163 75.5c41.333 0 80.333 -14.333 117 -43c15.333 -12.667 28 -26.667 38 -42h10v70h170v-520h-170v70h-10c-9.33301 -16 -22 -30.333 -38 -43c-36 -28 -75 -42 -117 -42c-64 0 -118.333 25.167 -163 75.5
s-67 116.833 -67 199.5zM205 260c0 -41.333 10 -73.333 30 -96s46.667 -34 80 -34s60 11.333 80 34s30 54.667 30 96s-10 73.333 -30 96s-46.667 34 -80 34s-60 -11.333 -80 -34s-30 -54.667 -30 -96zM240 615l75 155h170v-5l-130 -150h-115z" />
    <glyph glyph-name="acircumflex" unicode="&#xe2;" 
d="M30 260c0 82.667 22.333 149.167 67 199.5s99 75.5 163 75.5c41.333 0 80.333 -14.333 117 -43c15.333 -12.667 28 -26.667 38 -42h10v70h170v-520h-170v70h-10c-9.33301 -16 -22 -30.333 -38 -43c-36 -28 -75 -42 -117 -42c-64 0 -118.333 25.167 -163 75.5
s-67 116.833 -67 199.5zM205 260c0 -41.333 10 -73.333 30 -96s46.667 -34 80 -34s60 11.333 80 34s30 54.667 30 96s-10 73.333 -30 96s-46.667 34 -80 34s-60 -11.333 -80 -34s-30 -54.667 -30 -96zM145 615v5l110 150h135l110 -150v-5h-115l-55 70h-15l-55 -70h-115z" />
    <glyph glyph-name="atilde" unicode="&#xe3;" 
d="M30 260c0 82.667 22.333 149.167 67 199.5s99 75.5 163 75.5c41.333 0 80.333 -14.333 117 -43c15.333 -12.667 28 -26.667 38 -42h10v70h170v-520h-170v70h-10c-9.33301 -16 -22 -30.333 -38 -43c-36 -28 -75 -42 -117 -42c-64 0 -118.333 25.167 -163 75.5
s-67 116.833 -67 199.5zM205 260c0 -41.333 10 -73.333 30 -96s46.667 -34 80 -34s60 11.333 80 34s30 54.667 30 96s-10 73.333 -30 96s-46.667 34 -80 34s-60 -11.333 -80 -34s-30 -54.667 -30 -96zM150 610v50c0 30 8.33301 53.333 25 70s40 25 70 25
c26 0 52.333 -7.33301 79 -22c24 -15.333 41 -23 51 -23c16.667 0 25 8.33301 25 25v15h95v-50c0 -30 -8.33301 -53.333 -25 -70s-40 -25 -70 -25c-28 0 -54 7.66699 -78 23c-26.667 14.667 -44 22 -52 22c-16.667 0 -25 -8.33301 -25 -25v-15h-95z" />
    <glyph glyph-name="adieresis" unicode="&#xe4;" 
d="M30 260c0 82.667 22.333 149.167 67 199.5s99 75.5 163 75.5c41.333 0 80.333 -14.333 117 -43c15.333 -12.667 28 -26.667 38 -42h10v70h170v-520h-170v70h-10c-9.33301 -16 -22 -30.333 -38 -43c-36 -28 -75 -42 -117 -42c-64 0 -118.333 25.167 -163 75.5
s-67 116.833 -67 199.5zM205 260c0 -41.333 10 -73.333 30 -96s46.667 -34 80 -34s60 11.333 80 34s30 54.667 30 96s-10 73.333 -30 96s-46.667 34 -80 34s-60 -11.333 -80 -34s-30 -54.667 -30 -96zM345 685c0 22.667 7.66699 41.667 23 57s34.333 23 57 23
s41.667 -7.66699 57 -23s23 -34.333 23 -57s-7.66699 -41.667 -23 -57s-34.333 -23 -57 -23s-41.667 7.66699 -57 23s-23 34.333 -23 57zM140 685c0 22.667 7.66699 41.667 23 57s34.333 23 57 23s41.667 -7.66699 57 -23s23 -34.333 23 -57s-7.66699 -41.667 -23 -57
s-34.333 -23 -57 -23s-41.667 7.66699 -57 23s-23 34.333 -23 57z" />
    <glyph glyph-name="aring" unicode="&#xe5;" 
d="M30 260c0 82.667 22.333 149.167 67 199.5s99 75.5 163 75.5c41.333 0 80.333 -14.333 117 -43c15.333 -12.667 28 -26.667 38 -42h10v70h170v-520h-170v70h-10c-9.33301 -16 -22 -30.333 -38 -43c-36 -28 -75 -42 -117 -42c-64 0 -118.333 25.167 -163 75.5
s-67 116.833 -67 199.5zM205 260c0 -41.333 10 -73.333 30 -96s46.667 -34 80 -34s60 11.333 80 34s30 54.667 30 96s-10 73.333 -30 96s-46.667 34 -80 34s-60 -11.333 -80 -34s-30 -54.667 -30 -96zM200 695c0 32.667 11.167 60 33.5 82s51.166 33 86.499 33
s64.166 -11 86.499 -33s33.5 -49.333 33.5 -82s-11.167 -60 -33.5 -82s-51.166 -33 -86.499 -33s-64.166 11 -86.499 33s-33.5 49.333 -33.5 82zM275 695c0 -12.667 4.33301 -23.334 13 -32.001s19.334 -13 32.001 -13s23.334 4.33301 32.001 13s13 19.334 13 32.001
s-4.33301 23.334 -13 32.001s-19.334 13 -32.001 13s-23.334 -4.33301 -32.001 -13s-13 -19.334 -13 -32.001z" />
    <glyph glyph-name="ae" unicode="&#xe6;" horiz-adv-x="985" 
d="M30 150c0 47.333 17.998 85.835 53.998 115.502s87.667 44.5 155 44.5h156v20c0 20.667 -7.33301 37.5 -22 50.5s-35.667 19.5 -63 19.5c-29.333 0 -52.333 -7.66699 -69 -23c-8 -8 -13.333 -15.333 -16 -22h-175c8 32.667 22.667 62.667 44 90c45.333 60 114 90 206 90
c57.333 0 105 -15 143 -45c16.667 -13.333 30.667 -28.333 42 -45h10c10.667 16.667 25.334 31.667 44.001 45c40.667 30 89.334 45 146.001 45c75.333 0 139.166 -26.833 191.499 -80.5s78.5 -120.167 78.5 -199.5v-25h-395c5.33301 -35.333 17.5 -62.5 36.5 -81.5
s43.5 -28.5 73.5 -28.5c35.333 0 62 9 80 27c8 7.33301 14.667 16.666 20 27.999h180c-12 -36.667 -30 -68.334 -54 -95.001c-52.667 -63.333 -124.667 -95 -216 -95c-66 0 -122 18.333 -168 55c-20.667 16.667 -36.334 35 -47.001 55h-10
c-10 -19.333 -25.333 -37.666 -46 -54.999c-43.333 -36.667 -99.666 -55 -168.999 -55c-65.333 0 -116.666 15.667 -153.999 47s-56 70.666 -56 117.999zM564.998 310.002h209.998c-6 26.667 -18.167 48.334 -36.5 65.001s-41.166 25 -68.499 25
s-50.166 -8.33301 -68.499 -25s-30.5 -38.334 -36.5 -65.001zM209.996 175.002c0 -16 6.16699 -29.167 18.5 -39.5s29.5 -15.5 51.5 -15.5c76.667 0 115 36.667 115 110h-115c-22 0 -39.167 -5.16699 -51.5 -15.5s-18.5 -23.5 -18.5 -39.5z" />
    <glyph glyph-name="ccedilla" unicode="&#xe7;" horiz-adv-x="605" 
d="M25 260c0 74.667 27.3291 139.164 81.9961 193.497s120.667 81.5 198 81.5c96.667 0 172.334 -36 227.001 -108c22.667 -32 38.667 -67.667 48 -107h-175c-4 10 -11.333 21.667 -22 35c-22 23.333 -48 35 -78 35c-29.333 0 -54.166 -12 -74.499 -36
s-30.5 -55.333 -30.5 -94s10.167 -70 30.5 -94s45.166 -36 74.499 -36c34.667 0 61.334 11.667 80.001 35c7.33301 8.66699 14 20.334 20 35.001h175c-8 -36 -22.667 -70 -44 -102c-48 -68.667 -116.667 -106.334 -206 -113.001l-10 -30c18 -3.33301 33 -8.66602 45 -15.999
c30 -19.333 45 -47.333 45 -84c0 -33.333 -12.667 -61.666 -38 -84.999s-57.666 -35 -96.999 -35c-25.333 0 -48 3.33301 -68 10c-9.33301 3.33301 -16.666 6.66602 -21.999 9.99902v85c6.66699 -3.33301 15 -6.66602 25 -9.99902c20 -6.66699 40 -10 60 -10
c30 0 45 11.667 45 35c0 8 -3.66699 15 -11 21s-17 9 -29 9h-55l40 105c-66.667 10 -122.5 39.833 -167.5 89.5s-67.5 109.834 -67.5 180.501z" />
    <glyph glyph-name="egrave" unicode="&#xe8;" horiz-adv-x="625" 
d="M25 260c0 75.333 27.666 140.002 82.999 194.002s122.666 81 201.999 81c80.667 0 148.334 -27 203.001 -81s82 -118.667 82 -194v-30h-395c5.33301 -35.333 17.5 -62.5 36.5 -81.5s43.5 -28.5 73.5 -28.5c35.333 0 62 9 80 27c8 7.33301 14.667 16.666 20 27.999h180
c-12 -36.667 -30 -68.334 -54 -95.001c-52.667 -63.333 -128 -95 -226 -95c-79.333 0 -146.666 27 -201.999 81s-83 118.667 -83 194zM204.999 315.002h210.002c-6 24 -18.333 44.167 -37 60.5s-41.334 24.5 -68.001 24.5s-49.334 -8.16699 -68.001 -24.5
s-31 -36.5 -37 -60.5zM131.001 765.002v5h170l75 -155h-115z" />
    <glyph glyph-name="eacute" unicode="&#xe9;" horiz-adv-x="625" 
d="M25 260c0 75.333 27.666 140.002 82.999 194.002s122.666 81 201.999 81c80.667 0 148.334 -27 203.001 -81s82 -118.667 82 -194v-30h-395c5.33301 -35.333 17.5 -62.5 36.5 -81.5s43.5 -28.5 73.5 -28.5c35.333 0 62 9 80 27c8 7.33301 14.667 16.666 20 27.999h180
c-12 -36.667 -30 -68.334 -54 -95.001c-52.667 -63.333 -128 -95 -226 -95c-79.333 0 -146.666 27 -201.999 81s-83 118.667 -83 194zM204.999 315.002h210.002c-6 24 -18.333 44.167 -37 60.5s-41.334 24.5 -68.001 24.5s-49.334 -8.16699 -68.001 -24.5
s-31 -36.5 -37 -60.5zM246.001 615.002l75 155h170v-5l-130 -150h-115z" />
    <glyph glyph-name="ecircumflex" unicode="&#xea;" horiz-adv-x="625" 
d="M25 260c0 75.333 27.666 140.002 82.999 194.002s122.666 81 201.999 81c80.667 0 148.334 -27 203.001 -81s82 -118.667 82 -194v-30h-395c5.33301 -35.333 17.5 -62.5 36.5 -81.5s43.5 -28.5 73.5 -28.5c35.333 0 62 9 80 27c8 7.33301 14.667 16.666 20 27.999h180
c-12 -36.667 -30 -68.334 -54 -95.001c-52.667 -63.333 -128 -95 -226 -95c-79.333 0 -146.666 27 -201.999 81s-83 118.667 -83 194zM204.999 315.002h210.002c-6 24 -18.333 44.167 -37 60.5s-41.334 24.5 -68.001 24.5s-49.334 -8.16699 -68.001 -24.5
s-31 -36.5 -37 -60.5zM135.001 615.002v5l110 150h135l110 -150v-5h-115l-55 70h-15l-55 -70h-115z" />
    <glyph glyph-name="edieresis" unicode="&#xeb;" horiz-adv-x="625" 
d="M25 260c0 75.333 27.666 140.002 82.999 194.002s122.666 81 201.999 81c80.667 0 148.334 -27 203.001 -81s82 -118.667 82 -194v-30h-395c5.33301 -35.333 17.5 -62.5 36.5 -81.5s43.5 -28.5 73.5 -28.5c35.333 0 62 9 80 27c8 7.33301 14.667 16.666 20 27.999h180
c-12 -36.667 -30 -68.334 -54 -95.001c-52.667 -63.333 -128 -95 -226 -95c-79.333 0 -146.666 27 -201.999 81s-83 118.667 -83 194zM204.999 315.002h210.002c-6 24 -18.333 44.167 -37 60.5s-41.334 24.5 -68.001 24.5s-49.334 -8.16699 -68.001 -24.5
s-31 -36.5 -37 -60.5zM334.001 686.002c0 22.667 7.66699 41.667 23 57s34.333 23 57 23s41.667 -7.66699 57 -23s23 -34.333 23 -57s-7.66699 -41.667 -23 -57s-34.333 -23 -57 -23s-41.667 7.66699 -57 23s-23 34.333 -23 57zM129.001 686.002
c0 22.667 7.66699 41.667 23 57s34.333 23 57 23s41.667 -7.66699 57 -23s23 -34.333 23 -57s-7.66699 -41.667 -23 -57s-34.333 -23 -57 -23s-41.667 7.66699 -57 23s-23 34.333 -23 57z" />
    <glyph glyph-name="igrave" unicode="&#xec;" horiz-adv-x="280" 
d="M55 0v520h170v-520h-170zM-50 765v5h170l75 -155h-115z" />
    <glyph glyph-name="iacute" unicode="&#xed;" horiz-adv-x="280" 
d="M55 0v520h170v-520h-170zM75 615l75 155h170v-5l-130 -150h-115z" />
    <glyph glyph-name="icircumflex" unicode="&#xee;" horiz-adv-x="280" 
d="M55 0v520h170v-520h-170zM-40 615v5l110 150h135l110 -150v-5h-115l-55 70h-15l-55 -70h-115z" />
    <glyph glyph-name="idieresis" unicode="&#xef;" horiz-adv-x="280" 
d="M55 0v520h170v-520h-170zM165 715c0 22.667 7.66699 41.667 23 57s34.333 23 57 23s41.667 -7.66699 57 -23s23 -34.333 23 -57s-7.66699 -41.667 -23 -57s-34.333 -23 -57 -23s-41.667 7.66699 -57 23s-23 34.333 -23 57zM-40 715c0 22.667 7.66699 41.667 23 57
s34.333 23 57 23s41.667 -7.66699 57 -23s23 -34.333 23 -57s-7.66699 -41.667 -23 -57s-34.333 -23 -57 -23s-41.667 7.66699 -57 23s-23 34.333 -23 57z" />
    <glyph glyph-name="eth" unicode="&#xf0;" horiz-adv-x="615" 
d="M25 230c0 67.333 22.5 124.166 67.5 170.499s100.833 69.5 167.5 69.5c48.667 0 91 -13.333 127 -40c16 -12.667 28.667 -26 38 -40h10c-3.33301 18.667 -11.5 38.334 -24.5 59.001s-25.833 38 -38.5 52s-31.667 33.667 -57 59l-1 1l-114 -71v80l60 40l-90 90h175l30 -30
l110 70v-80l-60 -35c28 -26.667 49.5 -48.167 64.5 -64.5s31 -38 48 -65s29.167 -56.667 36.5 -89s11 -69.5 11 -111.5c0 -95.333 -26.5 -170.833 -79.5 -226.5s-121.5 -83.5 -205.5 -83.5s-150.833 23 -200.5 69s-74.5 104.667 -74.5 176zM200 235
c0 -32 9.99902 -58.332 29.999 -78.999s45 -31 75 -31c30.667 0 55.834 10.167 75.501 30.5s29.5 47.166 29.5 80.499c0 32 -9.83301 58.167 -29.5 78.5s-44.5 30.5 -74.5 30.5c-30.667 0 -56 -10.333 -76 -31s-30 -47 -30 -79z" />
    <glyph glyph-name="ntilde" unicode="&#xf1;" horiz-adv-x="625" 
d="M50 0l0.000976562 520h170v-70h10c9.33301 16 21.333 30 36 42c34 28.667 73.667 43 119 43c61.333 0 109.166 -18.5 143.499 -55.5s51.5 -90.167 51.5 -159.5v-320h-170v295c0 30 -8 53.333 -24 70s-38 25 -66 25c-28.667 0 -52.5 -10.5 -71.5 -31.5
s-28.5 -48.833 -28.5 -83.5v-275h-170zM145.001 610v50c0 30 8.33301 53.333 25 70s40 25 70 25c26 0 52.333 -7.33301 79 -22c24 -15.333 41 -23 51 -23c16.667 0 25 8.33301 25 25v15h95v-50c0 -30 -8.33301 -53.333 -25 -70s-40 -25 -70 -25c-28 0 -54 7.66699 -78 23
c-26.667 14.667 -44 22 -52 22c-16.667 0 -25 -8.33301 -25 -25v-15h-95z" />
    <glyph glyph-name="ograve" unicode="&#xf2;" horiz-adv-x="630" 
d="M25 260c0 75.333 28 140 84 194s124.667 81 206 81s150 -27 206 -81s84 -118.667 84 -194s-28 -140 -84 -194s-124.667 -81 -206 -81s-150 27 -206 81s-84 118.667 -84 194zM200 260c0 -39.333 10.833 -70.833 32.5 -94.5s49.167 -35.5 82.5 -35.5
s60.833 11.833 82.5 35.5s32.5 55.167 32.5 94.5s-10.833 70.833 -32.5 94.5s-49.167 35.5 -82.5 35.5s-60.833 -11.833 -82.5 -35.5s-32.5 -55.167 -32.5 -94.5zM135 760v5h170l75 -155h-115z" />
    <glyph glyph-name="oacute" unicode="&#xf3;" horiz-adv-x="630" 
d="M25 260c0 75.333 28 140 84 194s124.667 81 206 81s150 -27 206 -81s84 -118.667 84 -194s-28 -140 -84 -194s-124.667 -81 -206 -81s-150 27 -206 81s-84 118.667 -84 194zM200 260c0 -39.333 10.833 -70.833 32.5 -94.5s49.167 -35.5 82.5 -35.5
s60.833 11.833 82.5 35.5s32.5 55.167 32.5 94.5s-10.833 70.833 -32.5 94.5s-49.167 35.5 -82.5 35.5s-60.833 -11.833 -82.5 -35.5s-32.5 -55.167 -32.5 -94.5zM255 610l75 155h170v-5l-130 -150h-115z" />
    <glyph glyph-name="ocircumflex" unicode="&#xf4;" horiz-adv-x="630" 
d="M25 260c0 75.333 28 140 84 194s124.667 81 206 81s150 -27 206 -81s84 -118.667 84 -194s-28 -140 -84 -194s-124.667 -81 -206 -81s-150 27 -206 81s-84 118.667 -84 194zM200 260c0 -39.333 10.833 -70.833 32.5 -94.5s49.167 -35.5 82.5 -35.5
s60.833 11.833 82.5 35.5s32.5 55.167 32.5 94.5s-10.833 70.833 -32.5 94.5s-49.167 35.5 -82.5 35.5s-60.833 -11.833 -82.5 -35.5s-32.5 -55.167 -32.5 -94.5zM140 610v5l110 150h135l110 -150v-5h-115l-55 70h-15l-55 -70h-115z" />
    <glyph glyph-name="otilde" unicode="&#xf5;" horiz-adv-x="630" 
d="M25 260c0 75.333 28 140 84 194s124.667 81 206 81s150 -27 206 -81s84 -118.667 84 -194s-28 -140 -84 -194s-124.667 -81 -206 -81s-150 27 -206 81s-84 118.667 -84 194zM200 260c0 -39.333 10.833 -70.833 32.5 -94.5s49.167 -35.5 82.5 -35.5
s60.833 11.833 82.5 35.5s32.5 55.167 32.5 94.5s-10.833 70.833 -32.5 94.5s-49.167 35.5 -82.5 35.5s-60.833 -11.833 -82.5 -35.5s-32.5 -55.167 -32.5 -94.5zM145 610v50c0 30 8.33301 53.333 25 70s40 25 70 25c26 0 52.333 -7.33301 79 -22c24 -15.333 41 -23 51 -23
c16.667 0 25 8.33301 25 25v15h95v-50c0 -30 -8.33301 -53.333 -25 -70s-40 -25 -70 -25c-28 0 -54 7.66699 -78 23c-26.667 14.667 -44 22 -52 22c-16.667 0 -25 -8.33301 -25 -25v-15h-95z" />
    <glyph glyph-name="odieresis" unicode="&#xf6;" horiz-adv-x="630" 
d="M25 260c0 75.333 28 140 84 194s124.667 81 206 81s150 -27 206 -81s84 -118.667 84 -194s-28 -140 -84 -194s-124.667 -81 -206 -81s-150 27 -206 81s-84 118.667 -84 194zM200 260c0 -39.333 10.833 -70.833 32.5 -94.5s49.167 -35.5 82.5 -35.5
s60.833 11.833 82.5 35.5s32.5 55.167 32.5 94.5s-10.833 70.833 -32.5 94.5s-49.167 35.5 -82.5 35.5s-60.833 -11.833 -82.5 -35.5s-32.5 -55.167 -32.5 -94.5zM340 685c0 22.667 7.66699 41.667 23 57s34.333 23 57 23s41.667 -7.66699 57 -23s23 -34.333 23 -57
s-7.66699 -41.667 -23 -57s-34.333 -23 -57 -23s-41.667 7.66699 -57 23s-23 34.333 -23 57zM135 685c0 22.667 7.66699 41.667 23 57s34.333 23 57 23s41.667 -7.66699 57 -23s23 -34.333 23 -57s-7.66699 -41.667 -23 -57s-34.333 -23 -57 -23s-41.667 7.66699 -57 23
s-23 34.333 -23 57z" />
    <glyph glyph-name="divide" unicode="&#xf7;" horiz-adv-x="540" 
d="M180 485c0 22.667 8.66699 42.5 26 59.5s38.666 25.5 63.999 25.5s46.666 -8.5 63.999 -25.5s26 -36.833 26 -59.5s-8.66699 -42.5 -26 -59.5s-38.666 -25.5 -63.999 -25.5s-46.666 8.5 -63.999 25.5s-26 36.833 -26 59.5zM55 225v130h430v-130h-430zM180 95
c0 22.667 8.66699 42.5 26 59.5s38.666 25.5 63.999 25.5s46.666 -8.5 63.999 -25.5s26 -36.833 26 -59.5s-8.66699 -42.5 -26 -59.5s-38.666 -25.5 -63.999 -25.5s-46.666 8.5 -63.999 25.5s-26 36.833 -26 59.5z" />
    <glyph glyph-name="oslash" unicode="&#xf8;" horiz-adv-x="630" 
d="M20 -10l-0.000976562 109.998l40 30c-6.66699 10 -12.667 22.333 -18 37c-11.333 28.667 -17 59.667 -17 93c0 75.333 28 140 84 194s124.667 81 206 81c51.333 0 100.333 -12.667 147 -38c18.667 -10.667 36.334 -23 53.001 -37l95 70v-110l-40 -30
c6 -11.333 11.667 -23.666 17 -36.999c12 -30.667 18 -61.667 18 -93c0 -75.333 -28 -140 -84 -194s-124.667 -81 -206 -81c-52.667 0 -101.667 12.333 -147 37c-20 10.667 -37.667 23.334 -53 38.001zM199.999 259.998c0 -5.33301 0.666992 -11.333 2 -18l3 -7l180 130
c-5.33301 4.66699 -12 8.66699 -20 12c-16 8.66699 -32.667 13 -50 13c-33.333 0 -60.833 -11.833 -82.5 -35.5s-32.5 -55.167 -32.5 -94.5zM424.999 284.998l-180 -130c7.33301 -6 14 -10.333 20 -13c14 -8 30.667 -12 50 -12c33.333 0 60.833 11.833 82.5 35.5
s32.5 55.167 32.5 94.5c0 4 -1 10 -3 18z" />
    <glyph glyph-name="ugrave" unicode="&#xf9;" horiz-adv-x="630" 
d="M50 200l-0.000976562 320h170v-295c0 -30 8 -53.333 24 -70s38 -25 66 -25c28.667 0 52.5 10.5 71.5 31.5s28.5 48.833 28.5 83.5v275h170v-520h-170v70h-10c-8.66699 -16.667 -20.667 -31 -36 -43c-33.333 -28 -73 -42 -119 -42c-61.333 0 -109.166 18.5 -143.499 55.5
s-51.5 90.167 -51.5 159.5zM139.999 765v5h170l75 -155h-115z" />
    <glyph glyph-name="uacute" unicode="&#xfa;" horiz-adv-x="630" 
d="M50 200l-0.000976562 320h170v-295c0 -30 8 -53.333 24 -70s38 -25 66 -25c28.667 0 52.5 10.5 71.5 31.5s28.5 48.833 28.5 83.5v275h170v-520h-170v70h-10c-8.66699 -16.667 -20.667 -31 -36 -43c-33.333 -28 -73 -42 -119 -42c-61.333 0 -109.166 18.5 -143.499 55.5
s-51.5 90.167 -51.5 159.5zM249.999 615l75 155h170v-5l-130 -150h-115z" />
    <glyph glyph-name="ucircumflex" unicode="&#xfb;" horiz-adv-x="630" 
d="M50 200l-0.000976562 320h170v-295c0 -30 8 -53.333 24 -70s38 -25 66 -25c28.667 0 52.5 10.5 71.5 31.5s28.5 48.833 28.5 83.5v275h170v-520h-170v70h-10c-8.66699 -16.667 -20.667 -31 -36 -43c-33.333 -28 -73 -42 -119 -42c-61.333 0 -109.166 18.5 -143.499 55.5
s-51.5 90.167 -51.5 159.5zM139.999 615v5l110 150h135l110 -150v-5h-115l-55 70h-15l-55 -70h-115z" />
    <glyph glyph-name="udieresis" unicode="&#xfc;" horiz-adv-x="630" 
d="M50 200l-0.000976562 320h170v-295c0 -30 8 -53.333 24 -70s38 -25 66 -25c28.667 0 52.5 10.5 71.5 31.5s28.5 48.833 28.5 83.5v275h170v-520h-170v70h-10c-8.66699 -16.667 -20.667 -31 -36 -43c-33.333 -28 -73 -42 -119 -42c-61.333 0 -109.166 18.5 -143.499 55.5
s-51.5 90.167 -51.5 159.5zM339.999 685c0 22.667 7.66699 41.667 23 57s34.333 23 57 23s41.667 -7.66699 57 -23s23 -34.333 23 -57s-7.66699 -41.667 -23 -57s-34.333 -23 -57 -23s-41.667 7.66699 -57 23s-23 34.333 -23 57zM134.999 685c0 22.667 7.66699 41.667 23 57
s34.333 23 57 23s41.667 -7.66699 57 -23s23 -34.333 23 -57s-7.66699 -41.667 -23 -57s-34.333 -23 -57 -23s-41.667 7.66699 -57 23s-23 34.333 -23 57z" />
    <glyph glyph-name="yacute" unicode="&#xfd;" horiz-adv-x="575" 
d="M10 520h175l90 -375h30l100 375h175l-200 -710h-175l55 190h-115zM235 615l75 155h170v-5l-130 -150h-115z" />
    <glyph glyph-name="thorn" unicode="&#xfe;" 
d="M50 -190v890h170v-250h10c9.33301 15.333 22 29.333 38 42c36.667 28.667 75.667 43 117 43c64 0 118.333 -25.167 163 -75.5s67 -116.833 67 -199.5s-22.333 -149.167 -67 -199.5s-99 -75.5 -163 -75.5c-42 0 -81 14 -117 42c-16 12.667 -28.667 27 -38 43h-10v-260
h-170zM220 260c0 -41.333 10 -73.333 30 -96s46.667 -34 80 -34s60 11.333 80 34s30 54.667 30 96s-10 73.333 -30 96s-46.667 34 -80 34s-60 -11.333 -80 -34s-30 -54.667 -30 -96z" />
    <glyph glyph-name="ydieresis" unicode="&#xff;" horiz-adv-x="575" 
d="M10 520h175l90 -375h30l100 375h175l-200 -710h-175l55 190h-115zM315 685c0 22.667 7.66699 41.667 23 57s34.333 23 57 23s41.667 -7.66699 57 -23s23 -34.333 23 -57s-7.66699 -41.667 -23 -57s-34.333 -23 -57 -23s-41.667 7.66699 -57 23s-23 34.333 -23 57z
M110 685c0 22.667 7.66699 41.667 23 57s34.333 23 57 23s41.667 -7.66699 57 -23s23 -34.333 23 -57s-7.66699 -41.667 -23 -57s-34.333 -23 -57 -23s-41.667 7.66699 -57 23s-23 34.333 -23 57z" />
    <glyph glyph-name="Amacron" unicode="&#x100;" horiz-adv-x="720" 
d="M0 0l190 700h340l190 -700h-190l-35 140h-270l-35 -140h-190zM265 300h190l-60 230h-70zM200 795v105h320v-105h-320z" />
    <glyph glyph-name="amacron" unicode="&#x101;" 
d="M30 260c0 82.667 22.333 149.167 67 199.5s99 75.5 163 75.5c41.333 0 80.333 -14.333 117 -43c15.333 -12.667 28 -26.667 38 -42h10v70h170v-520h-170v70h-10c-9.33301 -16 -22 -30.333 -38 -43c-36 -28 -75 -42 -117 -42c-64 0 -118.333 25.167 -163 75.5
s-67 116.833 -67 199.5zM205 260c0 -41.333 10 -73.333 30 -96s46.667 -34 80 -34s60 11.333 80 34s30 54.667 30 96s-10 73.333 -30 96s-46.667 34 -80 34s-60 -11.333 -80 -34s-30 -54.667 -30 -96zM165 620v105h320v-105h-320z" />
    <glyph glyph-name="Abreve" unicode="&#x102;" horiz-adv-x="720" 
d="M0 0l190 700h340l190 -700h-190l-35 140h-270l-35 -140h-190zM265 300h190l-60 230h-70zM200 925h100.002c0 -13.333 5.16699 -24.166 15.5 -32.499s25.166 -12.5 44.499 -12.5s34.166 4.16699 44.499 12.5s15.5 19.166 15.5 32.499h100
c0 -43.333 -13.833 -77.5 -41.5 -102.5s-67.167 -37.5 -118.5 -37.5s-90.833 12.5 -118.5 37.5s-41.5 59.167 -41.5 102.5z" />
    <glyph glyph-name="abreve" unicode="&#x103;" 
d="M30 260c0 82.667 22.333 149.167 67 199.5s99 75.5 163 75.5c41.333 0 80.333 -14.333 117 -43c15.333 -12.667 28 -26.667 38 -42h10v70h170v-520h-170v70h-10c-9.33301 -16 -22 -30.333 -38 -43c-36 -28 -75 -42 -117 -42c-64 0 -118.333 25.167 -163 75.5
s-67 116.833 -67 199.5zM205 260c0 -41.333 10 -73.333 30 -96s46.667 -34 80 -34s60 11.333 80 34s30 54.667 30 96s-10 73.333 -30 96s-46.667 34 -80 34s-60 -11.333 -80 -34s-30 -54.667 -30 -96zM150 755h100.002c0 -13.333 5.16699 -24.166 15.5 -32.499
s25.166 -12.5 44.499 -12.5s34.166 4.16699 44.499 12.5s15.5 19.166 15.5 32.499h100c0 -43.333 -13.833 -77.5 -41.5 -102.5s-67.167 -37.5 -118.5 -37.5s-90.833 12.5 -118.5 37.5s-41.5 59.167 -41.5 102.5z" />
    <glyph glyph-name="Aogonek" unicode="&#x104;" horiz-adv-x="720" 
d="M0 0l189.999 699.998h340l190 -700c-20.667 -12.667 -40 -27 -58 -43c-38 -35.333 -57 -66 -57 -92c0 -10 3.66699 -18.333 11 -25s17 -10 29 -10c16.667 0 32 2.33301 46 7c0.666992 0.666992 3.5 1.83398 8.5 3.50098s8.5 3.16699 10.5 4.5v-80
c-5.33301 -3.33301 -13.333 -6.66602 -24 -9.99902c-20 -6.66699 -40.333 -10 -61 -10c-39.333 0 -69.166 9 -89.499 27s-30.5 42.333 -30.5 73c0 10 1.5 19.833 4.5 29.5s7.16699 18.667 12.5 27s11.333 16.333 18 24s13.834 14.667 21.501 21s15.167 12.166 22.5 17.499
s14.666 10.333 21.999 15s13.5 8.33398 18.5 11.001l13.5 7l6 3h-114l-35 140h-270l-35 -140h-190zM264.999 299.998h190l-60 230h-70z" />
    <glyph glyph-name="aogonek" unicode="&#x105;" 
d="M30 260c0 82.667 22.332 149.165 66.999 199.498s99 75.5 163 75.5c41.333 0 80.333 -14.333 117 -43c15.333 -12.667 28 -26.667 38 -42h10v70h170v-520c-20.667 -12.667 -40 -27 -58 -43c-38 -35.333 -57 -66 -57 -92c0 -10 3.66699 -18.333 11 -25s17 -10 29 -10
c16.667 0 32 2.33301 46 7c0.666992 0.666992 3.5 1.83398 8.5 3.50098s8.5 3.16699 10.5 4.5v-80c-5.33301 -3.33301 -13.333 -6.66602 -24 -9.99902c-20 -6.66699 -40.333 -10 -61 -10c-39.333 0 -69.166 9 -89.499 27s-30.5 42.333 -30.5 73c0 10 1.5 19.833 4.5 29.5
s7.16699 18.667 12.5 27s11.333 16.333 18 24s13.834 14.667 21.501 21s15.167 12.166 22.5 17.499s14.666 10.333 21.999 15s13.5 8.33398 18.5 11.001l13.5 7l6 3h-94v70h-10c-9.33301 -16 -22 -30.333 -38 -43c-36 -28 -75 -42 -117 -42c-64 0 -118.333 25.167 -163 75.5
s-67 116.833 -67 199.5zM204.999 259.998c0 -41.333 10 -73.333 30 -96s46.667 -34 80 -34s60 11.333 80 34s30 54.667 30 96s-10 73.333 -30 96s-46.667 34 -80 34s-60 -11.333 -80 -34s-30 -54.667 -30 -96z" />
    <glyph glyph-name="Cacute" unicode="&#x106;" horiz-adv-x="825" 
d="M35 350c0 106 36.5 194.167 109.5 264.5s166.5 105.5 280.5 105.5c126 0 225 -46 297 -138c32 -42 54.667 -87.667 68 -137h-190c-10 20.667 -22.333 38 -37 52c-35.333 35.333 -81.333 53 -138 53c-58 0 -105 -18.333 -141 -55s-54 -85 -54 -145s18 -108.333 54 -145
s83 -55 141 -55c62.667 0 111.334 20 146.001 60c16 18 27.333 38 34 60h190c-14.667 -54 -38.334 -102.333 -71.001 -145c-71.333 -96.667 -171 -145 -299 -145c-114 0 -207.5 35.167 -280.5 105.5s-109.5 158.5 -109.5 264.5zM350 785l75 155h170v-5l-130 -150h-115z" />
    <glyph glyph-name="cacute" unicode="&#x107;" horiz-adv-x="605" 
d="M25 260c0 74.667 27.332 139.166 81.999 193.499s120.667 81.5 198 81.5c96.667 0 172.334 -36 227.001 -108c22.667 -32 38.667 -67.667 48 -107h-175c-4 10 -11.333 21.667 -22 35c-22 23.333 -48 35 -78 35c-29.333 0 -54.166 -12 -74.499 -36
s-30.5 -55.333 -30.5 -94s10.167 -70 30.5 -94s45.166 -36 74.499 -36c34.667 0 61.334 11.667 80.001 35c7.33301 8.66699 14 20.334 20 35.001h175c-9.33301 -40 -25.333 -76 -48 -108c-52.667 -71.333 -128.334 -107 -227.001 -107c-77.333 0 -143.333 27.167 -198 81.5
s-82 118.833 -82 193.5zM244.999 614.999l75 155h170v-5l-130 -150h-115z" />
    <glyph glyph-name="Ccircumflex" unicode="&#x108;" horiz-adv-x="825" 
d="M35 350c0 106 36.5 194.167 109.5 264.5s166.5 105.5 280.5 105.5c126 0 225 -46 297 -138c32 -42 54.667 -87.667 68 -137h-190c-10 20.667 -22.333 38 -37 52c-35.333 35.333 -81.333 53 -138 53c-58 0 -105 -18.333 -141 -55s-54 -85 -54 -145s18 -108.333 54 -145
s83 -55 141 -55c62.667 0 111.334 20 146.001 60c16 18 27.333 38 34 60h190c-14.667 -54 -38.334 -102.333 -71.001 -145c-71.333 -96.667 -171 -145 -299 -145c-114 0 -207.5 35.167 -280.5 105.5s-109.5 158.5 -109.5 264.5zM235 785v5l110 150h135l110 -150v-5h-115
l-55 70h-15l-55 -70h-115z" />
    <glyph glyph-name="ccircumflex" unicode="&#x109;" horiz-adv-x="605" 
d="M25 260c0 74.667 27.332 139.166 81.999 193.499s120.667 81.5 198 81.5c96.667 0 172.334 -36 227.001 -108c22.667 -32 38.667 -67.667 48 -107h-175c-4 10 -11.333 21.667 -22 35c-22 23.333 -48 35 -78 35c-29.333 0 -54.166 -12 -74.499 -36
s-30.5 -55.333 -30.5 -94s10.167 -70 30.5 -94s45.166 -36 74.499 -36c34.667 0 61.334 11.667 80.001 35c7.33301 8.66699 14 20.334 20 35.001h175c-9.33301 -40 -25.333 -76 -48 -108c-52.667 -71.333 -128.334 -107 -227.001 -107c-77.333 0 -143.333 27.167 -198 81.5
s-82 118.833 -82 193.5zM129.999 614.999v5l110 150h135l110 -150v-5h-115l-55 70h-15l-55 -70h-115z" />
    <glyph glyph-name="Ccaron" unicode="&#x10c;" horiz-adv-x="825" 
d="M35 350c0 106 36.5 194.167 109.5 264.5s166.5 105.5 280.5 105.5c126 0 225 -46 297 -138c32 -42 54.667 -87.667 68 -137h-190c-10 20.667 -22.333 38 -37 52c-35.333 35.333 -81.333 53 -138 53c-58 0 -105 -18.333 -141 -55s-54 -85 -54 -145s18 -108.333 54 -145
s83 -55 141 -55c62.667 0 111.334 20 146.001 60c16 18 27.333 38 34 60h190c-14.667 -54 -38.334 -102.333 -71.001 -145c-71.333 -96.667 -171 -145 -299 -145c-114 0 -207.5 35.167 -280.5 105.5s-109.5 158.5 -109.5 264.5zM240 935v5h115l55 -70h15l55 70h115v-5
l-110 -150h-135z" />
    <glyph glyph-name="ccaron" unicode="&#x10d;" horiz-adv-x="605" 
d="M25 260c0 74.667 27.332 139.166 81.999 193.499s120.667 81.5 198 81.5c96.667 0 172.334 -36 227.001 -108c22.667 -32 38.667 -67.667 48 -107h-175c-4 10 -11.333 21.667 -22 35c-22 23.333 -48 35 -78 35c-29.333 0 -54.166 -12 -74.499 -36
s-30.5 -55.333 -30.5 -94s10.167 -70 30.5 -94s45.166 -36 74.499 -36c34.667 0 61.334 11.667 80.001 35c7.33301 8.66699 14 20.334 20 35.001h175c-9.33301 -40 -25.333 -76 -48 -108c-52.667 -71.333 -128.334 -107 -227.001 -107c-77.333 0 -143.333 27.167 -198 81.5
s-82 118.833 -82 193.5zM124.999 764.999v5h115l55 -70h15l55 70h115v-5l-110 -150h-135z" />
    <glyph glyph-name="Dcaron" unicode="&#x10e;" horiz-adv-x="760" 
d="M65 0v700h271c115.333 0 209 -33.5 281 -100.5s108 -150.167 108 -249.5s-36 -182.5 -108 -249.5s-165.667 -100.5 -281 -100.5h-271zM250 170h85c62 0 110 16 144 48s51 76 51 132s-17 100 -51 132s-82 48 -144 48h-85v-360zM160 935v5h115l55 -70h15l55 70h115v-5
l-110 -150h-135z" />
    <glyph glyph-name="dcaron" unicode="&#x10f;" horiz-adv-x="765" 
d="M30 260c0 82.667 22.333 149.167 67 199.5s99 75.5 163 75.5c41.333 0 80.333 -14.333 117 -43c15.333 -12.667 28 -26.667 38 -42h10v250h170v-700h-170v70h-10c-9.33301 -16 -22 -30.333 -38 -43c-36 -28 -75 -42 -117 -42c-64 0 -118.333 25.167 -163 75.5
s-67 116.833 -67 199.5zM205 260c0 -41.333 10 -73.333 30 -96s46.667 -34 80 -34s60 11.333 80 34s30 54.667 30 96s-10 73.333 -30 96s-46.667 34 -80 34s-60 -11.333 -80 -34s-30 -54.667 -30 -96zM640 635c0 20 7.83203 37.5 23.499 52.5s34.5 22.5 56.5 22.5
c56.667 0 85 -41.667 85 -125c0 -38 -14 -70 -42 -96s-64 -39 -108 -39v60c22 0 39.167 4.66699 51.5 14s18.5 21.333 18.5 36v10l-7 -3c-6.66699 -1.33301 -12.667 -2 -18 -2c-19.333 0 -34.166 6.16699 -44.499 18.5s-15.5 29.5 -15.5 51.5z" />
    <glyph glyph-name="Dcroat" unicode="&#x110;" horiz-adv-x="780" 
d="M15 280v140h70v280h271c115.333 0 209 -33.5 281 -100.5s108 -150.167 108 -249.5s-36 -182.5 -108 -249.5s-165.667 -100.5 -281 -100.5h-271v280h-70zM270 170h85c62 0 110 16 144 48s51 76 51 132s-17 100 -51 132s-82 48 -144 48h-85v-110h130v-140h-130v-110z" />
    <glyph glyph-name="dslash" unicode="&#x111;" horiz-adv-x="665" 
d="M30 240c0 76 21.5 137.5 64.5 184.5s96.5 70.5 160.5 70.5c46 0 85.667 -13.333 119 -40c15.333 -12 27.333 -25.333 36 -40h10v125h-110v105h110v55h170v-55h65v-105h-65v-540h-170v65h-10c-8.66699 -14.667 -20.667 -28 -36 -40c-33.333 -26.667 -73 -40 -119 -40
c-64 0 -117.5 23.5 -160.5 70.5s-64.5 108.5 -64.5 184.5zM205 240c0 -32.667 10.167 -59.167 30.5 -79.5s46.833 -30.5 79.5 -30.5c31.333 0 56.666 9.83301 75.999 29.5s29 46.5 29 80.5s-9.66699 60.833 -29 80.5s-44.666 29.5 -75.999 29.5
c-32.667 0 -59.167 -10.167 -79.5 -30.5s-30.5 -46.833 -30.5 -79.5z" />
    <glyph glyph-name="Emacron" unicode="&#x112;" 
d="M65 0v700h540v-170h-355v-105h285v-150h-285v-105h355v-170h-540zM175 795v105h320v-105h-320z" />
    <glyph glyph-name="emacron" unicode="&#x113;" horiz-adv-x="625" 
d="M25 260c0 75.333 27.666 140.002 82.999 194.002s122.666 81 201.999 81c80.667 0 148.334 -27 203.001 -81s82 -118.667 82 -194v-30h-395c5.33301 -35.333 17.5 -62.5 36.5 -81.5s43.5 -28.5 73.5 -28.5c35.333 0 62 9 80 27c8 7.33301 14.667 16.666 20 27.999h180
c-12 -36.667 -30 -68.334 -54 -95.001c-52.667 -63.333 -128 -95 -226 -95c-79.333 0 -146.666 27 -201.999 81s-83 118.667 -83 194zM204.999 315.002h210.002c-6 24 -18.333 44.167 -37 60.5s-41.334 24.5 -68.001 24.5s-49.334 -8.16699 -68.001 -24.5
s-31 -36.5 -37 -60.5zM147.001 623.002v105h320v-105h-320z" />
    <glyph glyph-name="Edotaccent" unicode="&#x116;" 
d="M65 0v700h540v-170h-355v-105h285v-150h-285v-105h355v-170h-540zM250 845c0 26 8 46.667 24 62s38 23 66 23s50 -7.66699 66 -23s24 -36 24 -62s-8 -46.667 -24 -62s-38 -23 -66 -23s-50 7.66699 -66 23s-24 36 -24 62z" />
    <glyph glyph-name="edotaccent" unicode="&#x117;" horiz-adv-x="625" 
d="M25 260c0 75.333 27.666 140.002 82.999 194.002s122.666 81 201.999 81c80.667 0 148.334 -27 203.001 -81s82 -118.667 82 -194v-30h-395c5.33301 -35.333 17.5 -62.5 36.5 -81.5s43.5 -28.5 73.5 -28.5c35.333 0 62 9 80 27c8 7.33301 14.667 16.666 20 27.999h180
c-12 -36.667 -30 -68.334 -54 -95.001c-52.667 -63.333 -128 -95 -226 -95c-79.333 0 -146.666 27 -201.999 81s-83 118.667 -83 194zM204.999 315.002h210.002c-6 24 -18.333 44.167 -37 60.5s-41.334 24.5 -68.001 24.5s-49.334 -8.16699 -68.001 -24.5
s-31 -36.5 -37 -60.5zM216.001 681.002c0 26 8 46.667 24 62s38 23 66 23s50 -7.66699 66 -23s24 -36 24 -62s-8 -46.667 -24 -62s-38 -23 -66 -23s-50 7.66699 -66 23s-24 36 -24 62z" />
    <glyph glyph-name="Eogonek" unicode="&#x118;" 
d="M65 0l-0.000976562 699.998h540v-170h-355v-105h285v-150h-285v-105h355v-170c-20.667 -12.667 -40 -27 -58 -43c-38 -35.333 -57 -66 -57 -92c0 -10 3.66699 -18.333 11 -25s17 -10 29 -10c16.667 0 32 2.33301 46 7c0.666992 0.666992 3.5 1.83398 8.5 3.50098
s8.5 3.16699 10.5 4.5v-80c-5.33301 -3.33301 -13.333 -6.66602 -24 -9.99902c-20 -6.66699 -40.333 -10 -61 -10c-39.333 0 -69.166 9 -89.499 27s-30.5 42.333 -30.5 73c0 10 1.5 19.833 4.5 29.5s7.16699 18.667 12.5 27s11.333 16.333 18 24s13.834 14.667 21.501 21
s15.167 12.166 22.5 17.499s14.666 10.333 21.999 15s13.5 8.33398 18.5 11.001l13.5 7l6 3h-464z" />
    <glyph glyph-name="eogonek" unicode="&#x119;" horiz-adv-x="625" 
d="M25 260c0 75.333 27.666 139.998 82.999 193.998s122.666 81 201.999 81c80.667 0 148.334 -27 203.001 -81s82 -118.667 82 -194v-30h-395c5.33301 -35.333 17.5 -62.5 36.5 -81.5s43.5 -28.5 73.5 -28.5c35.333 0 62 9 80 27c8 7.33301 14.667 16.666 20 27.999h180
c-6.66699 -21.333 -16.667 -42.666 -30 -63.999c-30.667 -46.667 -70.667 -80.334 -120 -101.001c-24 -14.667 -45 -30.667 -63 -48c-41.333 -37.333 -62 -69.666 -62 -96.999c0 -10 3.66699 -18.333 11 -25s17 -10 29 -10c16.667 0 32 2.33301 46 7
c0.666992 0.666992 3.5 1.83398 8.5 3.50098s8.5 3.16699 10.5 4.5v-80c-5.33301 -3.33301 -13.333 -6.66602 -24 -9.99902c-20 -6.66699 -40.333 -10 -61 -10c-39.333 0 -69.166 9 -89.499 27s-30.5 42.333 -30.5 73c0 36.667 18.333 70.667 55 102
c17.333 15.333 35.666 28 54.999 38h-15c-79.333 0 -146.666 27 -201.999 81s-83 118.667 -83 194zM204.999 314.998h210.002c-6 24 -18.333 44.167 -37 60.5s-41.334 24.5 -68.001 24.5s-49.334 -8.16699 -68.001 -24.5s-31 -36.5 -37 -60.5z" />
    <glyph glyph-name="Ecaron" unicode="&#x11a;" 
d="M65 0v700h540v-170h-355v-105h285v-150h-285v-105h355v-170h-540zM160 935v5h115l55 -70h15l55 70h115v-5l-110 -150h-135z" />
    <glyph glyph-name="ecaron" unicode="&#x11b;" horiz-adv-x="625" 
d="M25 260c0 75.333 27.666 140.002 82.999 194.002s122.666 81 201.999 81c80.667 0 148.334 -27 203.001 -81s82 -118.667 82 -194v-30h-395c5.33301 -35.333 17.5 -62.5 36.5 -81.5s43.5 -28.5 73.5 -28.5c35.333 0 62 9 80 27c8 7.33301 14.667 16.666 20 27.999h180
c-12 -36.667 -30 -68.334 -54 -95.001c-52.667 -63.333 -128 -95 -226 -95c-79.333 0 -146.666 27 -201.999 81s-83 118.667 -83 194zM204.999 315.002h210.002c-6 24 -18.333 44.167 -37 60.5s-41.334 24.5 -68.001 24.5s-49.334 -8.16699 -68.001 -24.5
s-31 -36.5 -37 -60.5zM132.001 765.002v5h115l55 -70h15l55 70h115v-5l-110 -150h-135z" />
    <glyph glyph-name="Gbreve" unicode="&#x11e;" horiz-adv-x="875" 
d="M35 350c0 106 36.499 194.167 109.499 264.5s166.5 105.5 280.5 105.5c126.667 0 225.667 -44.333 297 -133c31.333 -39.333 54 -83.333 68 -132h-190c-9.33301 18 -21.666 33.667 -36.999 47c-36 32 -82 48 -138 48c-58 0 -105 -18.333 -141 -55s-54 -85 -54 -145
s18 -108.333 54 -145s83 -55 141 -55c57.333 0 104 16.667 140 50c16 16 27.667 32.667 35 50h-95v140h365v-140h-79c-16 -50.667 -40 -95.667 -72 -135c-72.667 -90 -170.667 -135 -294 -135c-114 0 -207.5 35.167 -280.5 105.5s-109.5 158.5 -109.5 264.5zM254.999 925
h100.002c0 -13.333 5.16699 -24.166 15.5 -32.499s25.166 -12.5 44.499 -12.5s34.166 4.16699 44.499 12.5s15.5 19.166 15.5 32.499h100c0 -43.333 -13.833 -77.5 -41.5 -102.5s-67.167 -37.5 -118.5 -37.5s-90.833 12.5 -118.5 37.5s-41.5 59.167 -41.5 102.5z" />
    <glyph glyph-name="gbreve" unicode="&#x11f;" 
d="M30 270c0 78 22.334 141.668 67.001 191.001s99 74 163 74c46 0 85.667 -13.333 119 -40c15.333 -12 27.333 -25.333 36 -40h10v65h170v-710h-495v135h325v135h-10c-9.33301 -14.667 -21.333 -27.334 -36 -38.001c-32.667 -24.667 -72.334 -37 -119.001 -37
c-64 0 -118.333 24.667 -163 74s-67 113 -67 191zM205.001 270.001c0 -37.333 10 -66.666 30 -87.999s46.667 -32 80 -32s60 10.667 80 32s30 50.666 30 87.999s-10 66.666 -30 87.999s-46.667 32 -80 32s-60 -10.667 -80 -32s-30 -50.666 -30 -87.999zM148.001 755.001
h100.002c0 -13.333 5.16699 -24.166 15.5 -32.499s25.166 -12.5 44.499 -12.5s34.166 4.16699 44.499 12.5s15.5 19.166 15.5 32.499h100c0 -43.333 -13.833 -77.5 -41.5 -102.5s-67.167 -37.5 -118.5 -37.5s-90.833 12.5 -118.5 37.5s-41.5 59.167 -41.5 102.5z" />
    <glyph glyph-name="Gcommaaccent" unicode="&#x122;" horiz-adv-x="875" 
d="M35 350c0 106 36.499 194.167 109.499 264.5s166.5 105.5 280.5 105.5c126.667 0 225.667 -44.333 297 -133c31.333 -39.333 54 -83.333 68 -132h-190c-9.33301 18 -21.666 33.667 -36.999 47c-36 32 -82 48 -138 48c-58 0 -105 -18.333 -141 -55s-54 -85 -54 -145
s18 -108.333 54 -145s83 -55 141 -55c57.333 0 104 16.667 140 50c16 16 27.667 32.667 35 50h-95v140h365v-140h-79c-16 -50.667 -40 -95.667 -72 -135c-72.667 -90 -170.667 -135 -294 -135c-114 0 -207.5 35.167 -280.5 105.5s-109.5 158.5 -109.5 264.5zM334.999 -160
c0 20 7.83203 37.5 23.499 52.5s34.5 22.5 56.5 22.5c56.667 0 85 -41.667 85 -125c0 -38 -14 -70 -42 -96s-64 -39 -108 -39v60c22 0 39.167 4.66699 51.5 14s18.5 21.333 18.5 36v10l-7 -3c-6.66699 -1.33301 -12.667 -2 -18 -2c-19.333 0 -34.166 6.16699 -44.499 18.5
s-15.5 29.5 -15.5 51.5z" />
    <glyph glyph-name="gcommaaccent" unicode="&#x123;" 
d="M235 725c0 38 14.001 70 42.001 96s64 39 108 39v-60c-22 0 -39.167 -4.66699 -51.5 -14s-18.5 -21.333 -18.5 -36v-10l7 2c8 2 14 3 18 3c19.333 0 34.166 -6.16699 44.499 -18.5s15.5 -29.5 15.5 -51.5c0 -20 -7.83301 -37.5 -23.5 -52.5s-34.5 -22.5 -56.5 -22.5
c-56.667 0 -85 41.667 -85 125zM30.001 270c0 78 22.334 141.668 67.001 191.001s99 74 163 74c46 0 85.667 -13.333 119 -40c15.333 -12 27.333 -25.333 36 -40h10v65h170v-710h-495v135h325v135h-10c-9.33301 -14.667 -21.333 -27.334 -36 -38.001
c-32.667 -24.667 -72.334 -37 -119.001 -37c-64 0 -118.333 24.667 -163 74s-67 113 -67 191zM205.002 270.001c0 -37.333 10 -66.666 30 -87.999s46.667 -32 80 -32s60 10.667 80 32s30 50.666 30 87.999s-10 66.666 -30 87.999s-46.667 32 -80 32s-60 -10.667 -80 -32
s-30 -50.666 -30 -87.999z" />
    <glyph glyph-name="Imacron" unicode="&#x12a;" horiz-adv-x="315" 
d="M65 0v700h185v-700h-185zM-5 795v105h320v-105h-320z" />
    <glyph glyph-name="imacron" unicode="&#x12b;" horiz-adv-x="280" 
d="M55 0v520h170v-520h-170zM-22 625v105h320v-105h-320z" />
    <glyph glyph-name="Iogonek" unicode="&#x12e;" horiz-adv-x="315" 
d="M35 -155c0 10 1.49902 19.8311 4.49902 29.498s7.16699 18.667 12.5 27s11.333 16.333 18 24s13.834 14.667 21.501 21s15.167 12.166 22.5 17.499s14.666 10.333 21.999 15s13.5 8.33398 18.5 11.001l13.5 7l6 3h-109v700h185v-700c-20.667 -12.667 -40 -27 -58 -43
c-38 -35.333 -57 -66 -57 -92c0 -10 3.66699 -18.333 11 -25s17 -10 29 -10c16.667 0 32 2.33301 46 7c0.666992 0.666992 3.5 1.83398 8.5 3.50098s8.5 3.16699 10.5 4.5v-80c-5.33301 -3.33301 -13.333 -6.66602 -24 -9.99902c-20 -6.66699 -40.333 -10 -61 -10
c-39.333 0 -69.166 9 -89.499 27s-30.5 42.333 -30.5 73z" />
    <glyph glyph-name="iogonek" unicode="&#x12f;" horiz-adv-x="280" 
d="M10 -155c0 10 1.49902 19.8311 4.49902 29.498s7.16699 18.667 12.5 27s11.333 16.333 18 24s13.834 14.667 21.501 21s15.167 12.166 22.5 17.499s14.666 10.333 21.999 15s13.5 8.33398 18.5 11.001l13.5 7l6 3h-94v520h170v-520c-20.667 -12.667 -40 -27 -58 -43
c-38 -35.333 -57 -66 -57 -92c0 -10 3.66699 -18.333 11 -25s17 -10 29 -10c16.667 0 32 2.33301 46 7c0.666992 0.666992 3.5 1.83398 8.5 3.50098s8.5 3.16699 10.5 4.5v-80c-5.33301 -3.33301 -13.333 -6.66602 -24 -9.99902c-20 -6.66699 -40.333 -10 -61 -10
c-39.333 0 -69.166 9 -89.499 27s-30.5 42.333 -30.5 73zM44.999 659.998c0 24 9 44.167 27 60.5s40.667 24.5 68 24.5s50 -8.16699 68 -24.5s27 -36.5 27 -60.5c0 -23.333 -9 -43.333 -27 -60s-40.667 -25 -68 -25s-50 8.33301 -68 25s-27 36.667 -27 60z" />
    <glyph glyph-name="Idot" unicode="&#x130;" horiz-adv-x="315" 
d="M65 0v700h185v-700h-185zM65 850c0 26 8 46.667 24 62s38 23 66 23s50 -7.66699 66 -23s24 -36 24 -62s-8 -46.667 -24 -62s-38 -23 -66 -23s-50 7.66699 -66 23s-24 36 -24 62z" />
    <glyph glyph-name="dotlessi" unicode="&#x131;" horiz-adv-x="280" 
d="M55 0v520h170v-520h-170z" />
    <glyph glyph-name="Kcommaaccent" unicode="&#x136;" horiz-adv-x="725" 
d="M65 0v700h185v-260h80l170 260h210l-220 -330l235 -370h-210l-175 270h-90v-270h-185zM285 -160c0 20 7.83203 37.5 23.499 52.5s34.5 22.5 56.5 22.5c56.667 0 85 -41.667 85 -125c0 -38 -14 -70 -42 -96s-64 -39 -108 -39v60c22 0 39.167 4.66699 51.5 14
s18.5 21.333 18.5 36v10l-7 -3c-6.66699 -1.33301 -12.667 -2 -18 -2c-19.333 0 -34.166 6.16699 -44.499 18.5s-15.5 29.5 -15.5 51.5z" />
    <glyph glyph-name="kcommaaccent" unicode="&#x137;" horiz-adv-x="585" 
d="M50 0v700h170v-365h55l115 185h180l-150 -245l165 -275h-185l-115 190h-65v-190h-170zM225 -160c0 20 7.83203 37.5 23.499 52.5s34.5 22.5 56.5 22.5c56.667 0 85 -41.667 85 -125c0 -38 -14 -70 -42 -96s-64 -39 -108 -39v60c22 0 39.167 4.66699 51.5 14
s18.5 21.333 18.5 36v10l-7 -3c-6.66699 -1.33301 -12.667 -2 -18 -2c-19.333 0 -34.166 6.16699 -44.499 18.5s-15.5 29.5 -15.5 51.5z" />
    <glyph glyph-name="Lacute" unicode="&#x139;" horiz-adv-x="595" 
d="M65 0v700h185v-530h335v-170h-520zM90 785l75 155h170v-5l-130 -150h-115z" />
    <glyph glyph-name="lacute" unicode="&#x13a;" horiz-adv-x="345" 
d="M50 0v700h170v-565h115v-135h-285zM78 785l75 155h170v-5l-130 -150h-115z" />
    <glyph glyph-name="Lcommaaccent" unicode="&#x13b;" horiz-adv-x="595" 
d="M65 0v700h185v-530h335v-170h-520zM242 -158c0 20 7.83203 37.5 23.499 52.5s34.5 22.5 56.5 22.5c56.667 0 85 -41.667 85 -125c0 -38 -14 -70 -42 -96s-64 -39 -108 -39v60c22 0 39.167 4.66699 51.5 14s18.5 21.333 18.5 36v10l-7 -3
c-6.66699 -1.33301 -12.667 -2 -18 -2c-19.333 0 -34.166 6.16699 -44.499 18.5s-15.5 29.5 -15.5 51.5z" />
    <glyph glyph-name="lcommaaccent" unicode="&#x13c;" horiz-adv-x="345" 
d="M50 0v700h170v-565h115v-135h-285zM110 -160c0 20 7.83203 37.5 23.499 52.5s34.5 22.5 56.5 22.5c56.667 0 85 -41.667 85 -125c0 -38 -14 -70 -42 -96s-64 -39 -108 -39v60c22 0 39.167 4.66699 51.5 14s18.5 21.333 18.5 36v10l-7 -3
c-6.66699 -1.33301 -12.667 -2 -18 -2c-19.333 0 -34.166 6.16699 -44.499 18.5s-15.5 29.5 -15.5 51.5z" />
    <glyph glyph-name="Lcaron" unicode="&#x13d;" horiz-adv-x="595" 
d="M65 0v700h185v-530h335v-170h-520zM320 640c0 20 7.83203 37.5 23.499 52.5s34.5 22.5 56.5 22.5c56.667 0 85 -41.667 85 -125c0 -38 -14 -70 -42 -96s-64 -39 -108 -39v60c22 0 39.167 4.66699 51.5 14s18.5 21.333 18.5 36v10l-7 -3
c-6.66699 -1.33301 -12.667 -2 -18 -2c-19.333 0 -34.166 6.16699 -44.499 18.5s-15.5 29.5 -15.5 51.5z" />
    <glyph glyph-name="lcaron" unicode="&#x13e;" horiz-adv-x="395" 
d="M50 0v700h170v-565h115v-135h-285zM265 640c0 20 7.83203 37.5 23.499 52.5s34.5 22.5 56.5 22.5c56.667 0 85 -41.667 85 -125c0 -38 -14 -70 -42 -96s-64 -39 -108 -39v60c22 0 39.167 4.66699 51.5 14s18.5 21.333 18.5 36v10l-7 -3
c-6.66699 -1.33301 -12.667 -2 -18 -2c-19.333 0 -34.166 6.16699 -44.499 18.5s-15.5 29.5 -15.5 51.5z" />
    <glyph glyph-name="Lslash" unicode="&#x141;" horiz-adv-x="610" 
d="M5 221v139l75 35v305h185v-225l145 65v-140l-145 -65v-165h335v-170h-520v255z" />
    <glyph glyph-name="lslash" unicode="&#x142;" horiz-adv-x="375" 
d="M5 225v130l75 35v310h170v-235l100 45v-130l-100 -45v-210h115v-125h-285v260z" />
    <glyph glyph-name="Nacute" unicode="&#x143;" horiz-adv-x="780" 
d="M65 0v700h225l245 -440h10l-15 90v350h185v-700h-225l-245 440h-10l15 -90v-350h-185zM315 785l75 155h170v-5l-130 -150h-115z" />
    <glyph glyph-name="nacute" unicode="&#x144;" horiz-adv-x="625" 
d="M50 0l0.000976562 520h170v-70h10c9.33301 16 21.333 30 36 42c34 28.667 73.667 43 119 43c61.333 0 109.166 -18.5 143.499 -55.5s51.5 -90.167 51.5 -159.5v-320h-170v295c0 30 -8 53.333 -24 70s-38 25 -66 25c-28.667 0 -52.5 -10.5 -71.5 -31.5
s-28.5 -48.833 -28.5 -83.5v-275h-170zM245.001 615l75 155h170v-5l-130 -150h-115z" />
    <glyph glyph-name="Ncommaaccent" unicode="&#x145;" horiz-adv-x="780" 
d="M65 0v700h225l245 -440h10l-15 90v350h185v-700h-225l-245 440h-10l15 -90v-350h-185zM305 -160c0 20 7.83203 37.5 23.499 52.5s34.5 22.5 56.5 22.5c56.667 0 85 -41.667 85 -125c0 -38 -14 -70 -42 -96s-64 -39 -108 -39v60c22 0 39.167 4.66699 51.5 14
s18.5 21.333 18.5 36v10l-7 -3c-6.66699 -1.33301 -12.667 -2 -18 -2c-19.333 0 -34.166 6.16699 -44.499 18.5s-15.5 29.5 -15.5 51.5z" />
    <glyph glyph-name="ncommaaccent" unicode="&#x146;" horiz-adv-x="625" 
d="M50 0l0.000976562 520h170v-70h10c9.33301 16 21.333 30 36 42c34 28.667 73.667 43 119 43c61.333 0 109.166 -18.5 143.499 -55.5s51.5 -90.167 51.5 -159.5v-320h-170v295c0 30 -8 53.333 -24 70s-38 25 -66 25c-28.667 0 -52.5 -10.5 -71.5 -31.5
s-28.5 -48.833 -28.5 -83.5v-275h-170zM235.001 -160c0 20 7.83203 37.5 23.499 52.5s34.5 22.5 56.5 22.5c56.667 0 85 -41.667 85 -125c0 -38 -14 -70 -42 -96s-64 -39 -108 -39v60c22 0 39.167 4.66699 51.5 14s18.5 21.333 18.5 36v10l-7 -3
c-6.66699 -1.33301 -12.667 -2 -18 -2c-19.333 0 -34.166 6.16699 -44.499 18.5s-15.5 29.5 -15.5 51.5z" />
    <glyph glyph-name="Ncaron" unicode="&#x147;" horiz-adv-x="780" 
d="M65 0v700h225l245 -440h10l-15 90v350h185v-700h-225l-245 440h-10l15 -90v-350h-185zM220 935v5h115l55 -70h15l55 70h115v-5l-110 -150h-135z" />
    <glyph glyph-name="ncaron" unicode="&#x148;" horiz-adv-x="625" 
d="M50 0l0.000976562 520h170v-70h10c9.33301 16 21.333 30 36 42c34 28.667 73.667 43 119 43c61.333 0 109.166 -18.5 143.499 -55.5s51.5 -90.167 51.5 -159.5v-320h-170v295c0 30 -8 53.333 -24 70s-38 25 -66 25c-28.667 0 -52.5 -10.5 -71.5 -31.5
s-28.5 -48.833 -28.5 -83.5v-275h-170zM140.001 765v5h115l55 -70h15l55 70h115v-5l-110 -150h-135z" />
    <glyph glyph-name="Omacron" unicode="&#x14c;" horiz-adv-x="850" 
d="M35 350c0 102 36.833 189.167 110.5 261.5s166.834 108.5 279.501 108.5s205.834 -36.167 279.501 -108.5s110.5 -159.5 110.5 -261.5s-36.833 -189.167 -110.5 -261.5s-166.834 -108.5 -279.501 -108.5s-205.834 36.167 -279.501 108.5s-110.5 159.5 -110.5 261.5z
M230 350c0 -60 18 -108.333 54 -145s83 -55 141 -55s105 18.333 141 55s54 85 54 145s-18 108.333 -54 145s-83 55 -141 55s-105 -18.333 -141 -55s-54 -85 -54 -145zM265 795v105h320v-105h-320z" />
    <glyph glyph-name="omacron" unicode="&#x14d;" horiz-adv-x="630" 
d="M25 260c0 75.333 28 140 84 194s124.667 81 206 81s150 -27 206 -81s84 -118.667 84 -194s-28 -140 -84 -194s-124.667 -81 -206 -81s-150 27 -206 81s-84 118.667 -84 194zM200 260c0 -39.333 10.833 -70.833 32.5 -94.5s49.167 -35.5 82.5 -35.5
s60.833 11.833 82.5 35.5s32.5 55.167 32.5 94.5s-10.833 70.833 -32.5 94.5s-49.167 35.5 -82.5 35.5s-60.833 -11.833 -82.5 -35.5s-32.5 -55.167 -32.5 -94.5zM155 625v105h320v-105h-320z" />
    <glyph glyph-name="Ohungarumlaut" unicode="&#x150;" horiz-adv-x="850" 
d="M35 350c0 102 36.833 189.167 110.5 261.5s166.834 108.5 279.501 108.5s205.834 -36.167 279.501 -108.5s110.5 -159.5 110.5 -261.5s-36.833 -189.167 -110.5 -261.5s-166.834 -108.5 -279.501 -108.5s-205.834 36.167 -279.501 108.5s-110.5 159.5 -110.5 261.5z
M230 350c0 -60 18 -108.333 54 -145s83 -55 141 -55s105 18.333 141 55s54 85 54 145s-18 108.333 -54 145s-83 55 -141 55s-105 -18.333 -141 -55s-54 -85 -54 -145zM455 785l70 155h145v-5l-120 -150h-95zM275 785l70 155h140v-5l-115 -150h-95z" />
    <glyph glyph-name="ohungarumlaut" unicode="&#x151;" horiz-adv-x="630" 
d="M25 260c0 75.333 28 140 84 194s124.667 81 206 81s150 -27 206 -81s84 -118.667 84 -194s-28 -140 -84 -194s-124.667 -81 -206 -81s-150 27 -206 81s-84 118.667 -84 194zM200 260c0 -39.333 10.833 -70.833 32.5 -94.5s49.167 -35.5 82.5 -35.5
s60.833 11.833 82.5 35.5s32.5 55.167 32.5 94.5s-10.833 70.833 -32.5 94.5s-49.167 35.5 -82.5 35.5s-60.833 -11.833 -82.5 -35.5s-32.5 -55.167 -32.5 -94.5zM350 615l70 155h145v-5l-120 -150h-95zM170 615l70 155h140v-5l-115 -150h-95z" />
    <glyph glyph-name="OE" unicode="&#x152;" horiz-adv-x="1175" 
d="M35 350c0 104 34 191.667 102 263s149 107 243 107c64.667 0 123 -16.667 175 -50c22.667 -15.333 41 -32 55 -50v80h525v-170h-340v-105h270v-150h-270v-105h340v-170h-525v80c-14 -18 -32.333 -34.667 -55 -50c-52 -33.333 -110.667 -50 -176 -50
c-93.333 0 -174 35.833 -242 107.5s-102 159.167 -102 262.5zM230 350c0 -60.667 18.167 -109.167 54.5 -145.5s81.5 -54.5 135.5 -54.5s99.167 18.167 135.5 54.5s54.5 84.833 54.5 145.5s-18.167 109.167 -54.5 145.5s-81.5 54.5 -135.5 54.5
s-99.167 -18.167 -135.5 -54.5s-54.5 -84.833 -54.5 -145.5z" />
    <glyph glyph-name="oe" unicode="&#x153;" horiz-adv-x="1010" 
d="M25 260c0 74.667 27.1689 139.167 81.502 193.5s118.833 81.5 193.5 81.5c58.667 0 108.667 -16 150 -48c17.333 -13.333 32.333 -29 45 -47h10c12.667 16.667 29 32.334 49 47.001c44 32 94.333 48 151 48c74.667 0 139.167 -27.167 193.5 -81.5
s81.5 -118.833 81.5 -193.5v-30h-390c2.66699 -35.333 13.5 -62.5 32.5 -81.5s44.833 -28.5 77.5 -28.5s58 9 76 27c8 7.33301 14.333 16.666 19 27.999h180c-12 -36 -29.667 -67.667 -53 -95c-52.667 -63.333 -123.334 -95 -212.001 -95c-57.333 0 -109 15.667 -155 47
c-20.667 14.667 -37.334 30.667 -50.001 48h-10c-12 -18 -27 -34 -45 -48c-40.667 -31.333 -90.667 -47 -150 -47c-74.667 0 -139.167 27.167 -193.5 81.5s-81.5 118.833 -81.5 193.5zM595.002 315h205c-6 24 -18 44.167 -36 60.5s-39.333 24.5 -64 24.5
c-28.667 0 -52.667 -8.33301 -72 -25s-30.333 -36.667 -33 -60zM200.002 260c0 -38.667 10.667 -70 32 -94s47.333 -36 78 -36s56.667 12 78 36s32 55.333 32 94s-10.667 70 -32 94s-47.333 36 -78 36s-56.667 -12 -78 -36s-32 -55.333 -32 -94z" />
    <glyph glyph-name="Racute" unicode="&#x154;" horiz-adv-x="735" 
d="M65 0v700h350c83.333 0 150.833 -23.5 202.5 -70.5s77.5 -105.167 77.5 -174.5c0 -90 -46.667 -160 -140 -210l145 -245h-200l-125 210h-125v-210h-185zM250 380l160 -0.00195312c28.667 0 51.667 7.33301 69 22s26 32.334 26 53.001s-8.66699 38.334 -26 53.001
s-40.333 22 -69 22h-160v-150zM285 784.998l75 155h170v-5l-130 -150h-115z" />
    <glyph glyph-name="racute" unicode="&#x155;" horiz-adv-x="420" 
d="M50 0l0.000976562 520h165v-75h10c6 16 15 30 27 42c27.333 28.667 60.666 43 99.999 43h53v-165h-85c-30 0 -54.167 -9.16699 -72.5 -27.5s-27.5 -42.5 -27.5 -72.5v-265h-170zM165.001 615l75 155h170v-5l-130 -150h-115z" />
    <glyph glyph-name="Rcommaaccent" unicode="&#x156;" horiz-adv-x="735" 
d="M65 0v700h350c83.333 0 150.833 -23.5 202.5 -70.5s77.5 -105.167 77.5 -174.5c0 -90 -46.667 -160 -140 -210l145 -245h-200l-125 210h-125v-210h-185zM250 380l160 -0.00195312c28.667 0 51.667 7.33301 69 22s26 32.334 26 53.001s-8.66699 38.334 -26 53.001
s-40.333 22 -69 22h-160v-150zM290 -160.002c0 20 7.83203 37.5 23.499 52.5s34.5 22.5 56.5 22.5c56.667 0 85 -41.667 85 -125c0 -38 -14 -70 -42 -96s-64 -39 -108 -39v60c22 0 39.167 4.66699 51.5 14s18.5 21.333 18.5 36v10l-7 -3
c-6.66699 -1.33301 -12.667 -2 -18 -2c-19.333 0 -34.166 6.16699 -44.499 18.5s-15.5 29.5 -15.5 51.5z" />
    <glyph glyph-name="rcommaaccent" unicode="&#x157;" horiz-adv-x="420" 
d="M50 0l0.000976562 520h165v-75h10c6 16 15 30 27 42c27.333 28.667 60.666 43 99.999 43h53v-165h-85c-30 0 -54.167 -9.16699 -72.5 -27.5s-27.5 -42.5 -27.5 -72.5v-265h-170zM45.001 -160c0 20 7.83203 37.5 23.499 52.5s34.5 22.5 56.5 22.5
c56.667 0 85 -41.667 85 -125c0 -38 -14 -70 -42 -96s-64 -39 -108 -39v60c22 0 39.167 4.66699 51.5 14s18.5 21.333 18.5 36v10l-7 -3c-6.66699 -1.33301 -12.667 -2 -18 -2c-19.333 0 -34.166 6.16699 -44.499 18.5s-15.5 29.5 -15.5 51.5z" />
    <glyph glyph-name="Rcaron" unicode="&#x158;" horiz-adv-x="735" 
d="M65 0v700h350c83.333 0 150.833 -23.5 202.5 -70.5s77.5 -105.167 77.5 -174.5c0 -90 -46.667 -160 -140 -210l145 -245h-200l-125 210h-125v-210h-185zM250 380l160 -0.00195312c28.667 0 51.667 7.33301 69 22s26 32.334 26 53.001s-8.66699 38.334 -26 53.001
s-40.333 22 -69 22h-160v-150zM185 934.998v5h115l55 -70h15l55 70h115v-5l-110 -150h-135z" />
    <glyph glyph-name="rcaron" unicode="&#x159;" horiz-adv-x="420" 
d="M50 0l0.000976562 520h165v-75h10c6 16 15 30 27 42c27.333 28.667 60.666 43 99.999 43h53v-165h-85c-30 0 -54.167 -9.16699 -72.5 -27.5s-27.5 -42.5 -27.5 -72.5v-265h-170zM50.001 765v5h115l55 -70h15l55 70h115v-5l-110 -150h-135z" />
    <glyph glyph-name="Sacute" unicode="&#x15a;" horiz-adv-x="690" 
d="M25 225l190.001 0.00292969c6 -16.667 15 -31 27 -43c28 -28 67.333 -42 118 -42c35.333 0 61.666 5.66699 78.999 17s26 25.666 26 42.999c0 7.33301 -1.83301 14.166 -5.5 20.499s-9.66699 12.166 -18 17.499s-16.5 9.83301 -24.5 13.5s-19.5 7.66699 -34.5 12
l-37.5 10.5c-10 2.66699 -24.5 6.33398 -43.5 11.001s-33.5 8.33398 -43.5 11.001c-63.333 17.333 -113.833 41.333 -151.5 72s-56.5 74.667 -56.5 132c0 60.667 26.167 112.5 78.5 155.5s122.833 64.5 211.5 64.5c113.333 0 198 -36.667 254 -110
c24.667 -32 41.667 -68.667 51 -110h-190c-4 10.667 -10.667 20.667 -20 30c-21.333 20 -53 30 -95 30c-32.667 0 -56.667 -4.83301 -72 -14.5s-23 -21.5 -23 -35.5c0 -18.667 11.167 -33.5 33.5 -44.5s55.166 -21.5 98.499 -31.5c25.333 -6 43.5 -10.5 54.5 -13.5
s28.667 -8.33301 53 -16s42.833 -14.834 55.5 -21.501s27.834 -15.834 45.501 -27.501s31 -24 40 -37s17 -28.833 24 -47.5s10.5 -39 10.5 -61c0 -64 -26.333 -118.333 -79 -163s-126.334 -67 -221.001 -67c-118.667 0 -210 40.667 -274 122
c-27.333 35.333 -47.666 76.333 -60.999 123zM285.001 785.003l75 155h170v-5l-130 -150h-115z" />
    <glyph glyph-name="sacute" unicode="&#x15b;" horiz-adv-x="555" 
d="M20 170l170.003 0.00195312c2.66699 -10 8.33398 -19.333 17.001 -28c18 -18 44 -27 78 -27c46.667 0 70 11.667 70 35c0 10.667 -6.66699 19.167 -20 25.5s-33.333 12.833 -60 19.5c-22 5.33301 -36.333 8.66602 -43 9.99902s-20.667 5.16602 -42 11.499
s-36.5 12 -45.5 17s-21.333 12.333 -37 22s-27 19.667 -34 30s-13.5 23.333 -19.5 39s-9 32.5 -9 50.5c0 44 19.667 81.667 59 113s94.666 47 165.999 47c89.333 0 160 -29.333 212 -88c20.667 -25.333 35 -54.333 43 -87h-165c-4 10.667 -8.66699 19 -14 25
c-15.333 16.667 -37.333 25 -66 25c-40 0 -60 -11.667 -60 -35c0 -11.333 6.66699 -20 20 -26s33.666 -11.667 60.999 -17c68.667 -16 115 -30 139 -42c60 -29.333 90 -74.333 90 -135c0 -48 -21.167 -88.333 -63.5 -121s-102.833 -49 -181.5 -49
c-96.667 0 -170.334 30.667 -221.001 92c-22.667 27.333 -37.334 58.333 -44.001 93zM210.003 615.002l75 155h170v-5l-130 -150h-115z" />
    <glyph glyph-name="Scedilla" unicode="&#x15e;" horiz-adv-x="690" 
d="M25 225l189.998 0.000976562c6 -16.667 15 -31 27 -43c28 -28 67.333 -42 118 -42c35.333 0 61.666 5.66699 78.999 17s26 25.666 26 42.999c0 7.33301 -1.83301 14.166 -5.5 20.499s-9.66699 12.166 -18 17.499s-16.5 9.83301 -24.5 13.5s-19.5 7.66699 -34.5 12
l-37.5 10.5c-10 2.66699 -24.5 6.33398 -43.5 11.001s-33.5 8.33398 -43.5 11.001c-63.333 17.333 -113.833 41.333 -151.5 72s-56.5 74.667 -56.5 132c0 60.667 26.167 112.5 78.5 155.5s122.833 64.5 211.5 64.5c113.333 0 198 -36.667 254 -110
c24.667 -32 41.667 -68.667 51 -110h-190c-4 10.667 -10.667 20.667 -20 30c-21.333 20 -53 30 -95 30c-32.667 0 -56.667 -4.83301 -72 -14.5s-23 -21.5 -23 -35.5c0 -18.667 11.167 -33.5 33.5 -44.5s55.166 -21.5 98.499 -31.5c25.333 -6 43.5 -10.5 54.5 -13.5
s28.667 -8.33301 53 -16s42.833 -14.834 55.5 -21.501s27.834 -15.834 45.501 -27.501s31 -24 40 -37s17 -28.833 24 -47.5s10.5 -39 10.5 -61c0 -62 -23.833 -114.833 -71.5 -158.5s-115.5 -67.5 -203.5 -71.5l-10 -25c18 -3.33301 33 -8.66602 45 -15.999
c30 -19.333 45 -47.333 45 -84c0 -33.333 -12.667 -61.666 -38 -84.999s-57.666 -35 -96.999 -35c-25.333 0 -48 3.33301 -68 10c-9.33301 3.33301 -16.666 6.66602 -21.999 9.99902v85c6.66699 -3.33301 15 -6.66602 25 -9.99902c20 -6.66699 40 -10 60 -10
c30 0 45 11.667 45 35c0 8 -3.66699 15 -11 21s-17 9 -29 9h-55l35 95c-103.333 11.333 -181 55.333 -233 132c-23.333 33.333 -40.666 71 -51.999 113z" />
    <glyph glyph-name="scedilla" unicode="&#x15f;" horiz-adv-x="555" 
d="M20 170l169.997 0.000976562c2.66699 -10 8.33398 -19.333 17.001 -28c18 -18 44 -27 78 -27c46.667 0 70 11.667 70 35c0 10.667 -6.66699 19.167 -20 25.5s-33.333 12.833 -60 19.5c-22 5.33301 -36.333 8.66602 -43 9.99902s-20.667 5.16602 -42 11.499
s-36.5 12 -45.5 17s-21.333 12.333 -37 22s-27 19.667 -34 30s-13.5 23.333 -19.5 39s-9 32.5 -9 50.5c0 44 19.667 81.667 59 113s94.666 47 165.999 47c89.333 0 160 -29.333 212 -88c20.667 -25.333 35 -54.333 43 -87h-165c-4 10.667 -8.66699 19 -14 25
c-15.333 16.667 -37.333 25 -66 25c-40 0 -60 -11.667 -60 -35c0 -11.333 6.66699 -20 20 -26s33.666 -11.667 60.999 -17c68.667 -16 115 -30 139 -42c60 -29.333 90 -74.333 90 -135c0 -43.333 -18.167 -80.833 -54.5 -112.5s-88.166 -50.5 -155.499 -56.5l-10 -31
c18 -3.33301 33 -8.66602 45 -15.999c30 -19.333 45 -47.333 45 -84c0 -33.333 -12.667 -61.666 -38 -84.999s-57.666 -35 -96.999 -35c-25.333 0 -48 3.33301 -68 10c-9.33301 3.33301 -16.666 6.66602 -21.999 9.99902v85c6.66699 -3.33301 15 -6.66602 25 -9.99902
c20 -6.66699 40 -10 60 -10c30 0 45 11.667 45 35c0 8 -3.66699 15 -11 21s-17 9 -29 9h-55l35 101c-84 7.33301 -146.667 40.333 -188 99c-17.333 25.333 -29.666 53.666 -36.999 84.999z" />
    <glyph glyph-name="Scaron" unicode="&#x160;" horiz-adv-x="690" 
d="M25 225l190.001 0.00292969c6 -16.667 15 -31 27 -43c28 -28 67.333 -42 118 -42c35.333 0 61.666 5.66699 78.999 17s26 25.666 26 42.999c0 7.33301 -1.83301 14.166 -5.5 20.499s-9.66699 12.166 -18 17.499s-16.5 9.83301 -24.5 13.5s-19.5 7.66699 -34.5 12
l-37.5 10.5c-10 2.66699 -24.5 6.33398 -43.5 11.001s-33.5 8.33398 -43.5 11.001c-63.333 17.333 -113.833 41.333 -151.5 72s-56.5 74.667 -56.5 132c0 60.667 26.167 112.5 78.5 155.5s122.833 64.5 211.5 64.5c113.333 0 198 -36.667 254 -110
c24.667 -32 41.667 -68.667 51 -110h-190c-4 10.667 -10.667 20.667 -20 30c-21.333 20 -53 30 -95 30c-32.667 0 -56.667 -4.83301 -72 -14.5s-23 -21.5 -23 -35.5c0 -18.667 11.167 -33.5 33.5 -44.5s55.166 -21.5 98.499 -31.5c25.333 -6 43.5 -10.5 54.5 -13.5
s28.667 -8.33301 53 -16s42.833 -14.834 55.5 -21.501s27.834 -15.834 45.501 -27.501s31 -24 40 -37s17 -28.833 24 -47.5s10.5 -39 10.5 -61c0 -64 -26.333 -118.333 -79 -163s-126.334 -67 -221.001 -67c-118.667 0 -210 40.667 -274 122
c-27.333 35.333 -47.666 76.333 -60.999 123zM165.001 935.003v5h115l55 -70h15l55 70h115v-5l-110 -150h-135z" />
    <glyph glyph-name="scaron" unicode="&#x161;" horiz-adv-x="555" 
d="M20 170l170.003 0.00195312c2.66699 -10 8.33398 -19.333 17.001 -28c18 -18 44 -27 78 -27c46.667 0 70 11.667 70 35c0 10.667 -6.66699 19.167 -20 25.5s-33.333 12.833 -60 19.5c-22 5.33301 -36.333 8.66602 -43 9.99902s-20.667 5.16602 -42 11.499
s-36.5 12 -45.5 17s-21.333 12.333 -37 22s-27 19.667 -34 30s-13.5 23.333 -19.5 39s-9 32.5 -9 50.5c0 44 19.667 81.667 59 113s94.666 47 165.999 47c89.333 0 160 -29.333 212 -88c20.667 -25.333 35 -54.333 43 -87h-165c-4 10.667 -8.66699 19 -14 25
c-15.333 16.667 -37.333 25 -66 25c-40 0 -60 -11.667 -60 -35c0 -11.333 6.66699 -20 20 -26s33.666 -11.667 60.999 -17c68.667 -16 115 -30 139 -42c60 -29.333 90 -74.333 90 -135c0 -48 -21.167 -88.333 -63.5 -121s-102.833 -49 -181.5 -49
c-96.667 0 -170.334 30.667 -221.001 92c-22.667 27.333 -37.334 58.333 -44.001 93zM95.0029 765.002v5h115l55 -70h15l55 70h115v-5l-110 -150h-135z" />
    <glyph glyph-name="Tcommaaccent" unicode="&#x162;" 
d="M10 530v170h625v-170h-220v-530h-185v530h-220zM240 -160c0 20 7.83203 37.5 23.499 52.5s34.5 22.5 56.5 22.5c56.667 0 85 -41.667 85 -125c0 -38 -14 -70 -42 -96s-64 -39 -108 -39v60c22 0 39.167 4.66699 51.5 14s18.5 21.333 18.5 36v10l-7 -3
c-6.66699 -1.33301 -12.667 -2 -18 -2c-19.333 0 -34.166 6.16699 -44.499 18.5s-15.5 29.5 -15.5 51.5z" />
    <glyph glyph-name="tcommaaccent" unicode="&#x163;" horiz-adv-x="420" 
d="M15 385v135h65v110h170v-110h135v-135h-135v-250h145v-135h-315v385h-65zM155 -160c0 20 7.83203 37.5 23.499 52.5s34.5 22.5 56.5 22.5c56.667 0 85 -41.667 85 -125c0 -38 -14 -70 -42 -96s-64 -39 -108 -39v60c22 0 39.167 4.66699 51.5 14s18.5 21.333 18.5 36v10
l-7 -3c-6.66699 -1.33301 -12.667 -2 -18 -2c-19.333 0 -34.166 6.16699 -44.499 18.5s-15.5 29.5 -15.5 51.5z" />
    <glyph glyph-name="Tcaron" unicode="&#x164;" 
d="M10 530v170h625v-170h-220v-530h-185v530h-220zM145 935v5h115l55 -70h15l55 70h115v-5l-110 -150h-135z" />
    <glyph glyph-name="tcaron" unicode="&#x165;" horiz-adv-x="460" 
d="M295 565c0 20 7.83203 37.5 23.499 52.5s34.5 22.5 56.5 22.5c56.667 0 85 -41.667 85 -125c0 -38 -14 -70 -42 -96s-64 -39 -108 -39v60c22 0 39.167 4.66699 51.5 14s18.5 21.333 18.5 36v10l-7 -3c-6.66699 -1.33301 -12.667 -2 -18 -2
c-19.333 0 -34.166 6.16699 -44.499 18.5s-15.5 29.5 -15.5 51.5zM14.999 385v135h65v110h170v-495h145v-135h-315v385h-65z" />
    <glyph glyph-name="Umacron" unicode="&#x16a;" horiz-adv-x="750" 
d="M60 280l0.00195312 420h185v-415c0 -42 11.667 -75 35 -99s55 -36 95 -36s71.667 12 95 36s35 57 35 99v415h185v-420c0 -90.667 -28.333 -163.334 -85 -218.001s-133.334 -82 -230.001 -82s-173.334 27.333 -230.001 82s-85 127.334 -85 218.001zM215.002 795v105h320
v-105h-320z" />
    <glyph glyph-name="umacron" unicode="&#x16b;" horiz-adv-x="630" 
d="M50 200l-0.000976562 320h170v-295c0 -30 8 -53.333 24 -70s38 -25 66 -25c28.667 0 52.5 10.5 71.5 31.5s28.5 48.833 28.5 83.5v275h170v-520h-170v70h-10c-8.66699 -16.667 -20.667 -31 -36 -43c-33.333 -28 -73 -42 -119 -42c-61.333 0 -109.166 18.5 -143.499 55.5
s-51.5 90.167 -51.5 159.5zM154.999 625v105h320v-105h-320z" />
    <glyph glyph-name="Uring" unicode="&#x16e;" horiz-adv-x="750" 
d="M60 280l0.00195312 420h185v-415c0 -42 11.667 -75 35 -99s55 -36 95 -36s71.667 12 95 36s35 57 35 99v415h185v-420c0 -90.667 -28.333 -163.334 -85 -218.001s-133.334 -82 -230.001 -82s-173.334 27.333 -230.001 82s-85 127.334 -85 218.001zM255.002 865
c0 32.667 11.167 60 33.5 82s51.166 33 86.499 33s64.166 -11 86.499 -33s33.5 -49.333 33.5 -82s-11.167 -60 -33.5 -82s-51.166 -33 -86.499 -33s-64.166 11 -86.499 33s-33.5 49.333 -33.5 82zM330.002 865c0 -12.667 4.33301 -23.334 13 -32.001s19.334 -13 32.001 -13
s23.334 4.33301 32.001 13s13 19.334 13 32.001s-4.33301 23.334 -13 32.001s-19.334 13 -32.001 13s-23.334 -4.33301 -32.001 -13s-13 -19.334 -13 -32.001z" />
    <glyph glyph-name="uring" unicode="&#x16f;" horiz-adv-x="630" 
d="M50 200l-0.000976562 320h170v-295c0 -30 8 -53.333 24 -70s38 -25 66 -25c28.667 0 52.5 10.5 71.5 31.5s28.5 48.833 28.5 83.5v275h170v-520h-170v70h-10c-8.66699 -16.667 -20.667 -31 -36 -43c-33.333 -28 -73 -42 -119 -42c-61.333 0 -109.166 18.5 -143.499 55.5
s-51.5 90.167 -51.5 159.5zM199.999 695c0 32.667 11.167 60 33.5 82s51.166 33 86.499 33s64.166 -11 86.499 -33s33.5 -49.333 33.5 -82s-11.167 -60 -33.5 -82s-51.166 -33 -86.499 -33s-64.166 11 -86.499 33s-33.5 49.333 -33.5 82zM274.999 695
c0 -12.667 4.33301 -23.334 13 -32.001s19.334 -13 32.001 -13s23.334 4.33301 32.001 13s13 19.334 13 32.001s-4.33301 23.334 -13 32.001s-19.334 13 -32.001 13s-23.334 -4.33301 -32.001 -13s-13 -19.334 -13 -32.001z" />
    <glyph glyph-name="Uhungarumlaut" unicode="&#x170;" horiz-adv-x="750" 
d="M60 280l0.00195312 420h185v-415c0 -42 11.667 -75 35 -99s55 -36 95 -36s71.667 12 95 36s35 57 35 99v415h185v-420c0 -90.667 -28.333 -163.334 -85 -218.001s-133.334 -82 -230.001 -82s-173.334 27.333 -230.001 82s-85 127.334 -85 218.001zM410.002 785l70 155
h145v-5l-120 -150h-95zM230.002 785l70 155h140v-5l-115 -150h-95z" />
    <glyph glyph-name="uhungarumlaut" unicode="&#x171;" horiz-adv-x="630" 
d="M50 200l-0.000976562 320h170v-295c0 -30 8 -53.333 24 -70s38 -25 66 -25c28.667 0 52.5 10.5 71.5 31.5s28.5 48.833 28.5 83.5v275h170v-520h-170v70h-10c-8.66699 -16.667 -20.667 -31 -36 -43c-33.333 -28 -73 -42 -119 -42c-61.333 0 -109.166 18.5 -143.499 55.5
s-51.5 90.167 -51.5 159.5zM349.999 615l70 155h145v-5l-120 -150h-95zM169.999 615l70 155h140v-5l-115 -150h-95z" />
    <glyph glyph-name="Uogonek" unicode="&#x172;" horiz-adv-x="750" 
d="M60 280l-0.000976562 419.997h185v-415c0 -42 11.667 -75 35 -99s55 -36 95 -36s71.667 12 95 36s35 57 35 99v415h185v-420c0 -75.333 -18.5 -136.833 -55.5 -184.5s-85.167 -81.167 -144.5 -100.5c-18.667 -11.333 -37 -25 -55 -41c-36.667 -31.333 -55 -61 -55 -89
c0 -10 3.66699 -18.333 11 -25s17 -10 29 -10c16.667 0 32 2.33301 46 7c0.666992 0.666992 3.5 1.83398 8.5 3.50098s8.5 3.16699 10.5 4.5v-80c-5.33301 -3.33301 -13.333 -6.66602 -24 -9.99902c-20 -6.66699 -40.333 -10 -61 -10c-39.333 0 -69.166 9 -89.499 27
s-30.5 42.333 -30.5 73c0 35.333 16.667 68.333 50 99c16.667 14 33.334 26 50.001 36h-5c-96.667 0 -173.334 27.333 -230.001 82s-85 127.334 -85 218.001z" />
    <glyph glyph-name="uogonek" unicode="&#x173;" horiz-adv-x="630" 
d="M50 200l-0.00195312 319.998h170v-295c0 -30 8 -53.333 24 -70s38 -25 66 -25c28.667 0 52.5 10.5 71.5 31.5s28.5 48.833 28.5 83.5v275h170v-520c-20.667 -12.667 -40 -27 -58 -43c-38 -35.333 -57 -66 -57 -92c0 -10 3.66699 -18.333 11 -25s17 -10 29 -10
c16.667 0 32 2.33301 46 7c0.666992 0.666992 3.5 1.83398 8.5 3.50098s8.5 3.16699 10.5 4.5v-80c-5.33301 -3.33301 -13.333 -6.66602 -24 -9.99902c-20 -6.66699 -40.333 -10 -61 -10c-39.333 0 -69.166 9 -89.499 27s-30.5 42.333 -30.5 73c0 10 1.5 19.833 4.5 29.5
s7.16699 18.667 12.5 27s11.333 16.333 18 24s13.834 14.667 21.501 21s15.167 12.166 22.5 17.499s14.666 10.333 21.999 15s13.5 8.33398 18.5 11.001l13.5 7l6 3h-94v70h-10c-8.66699 -16.667 -20.667 -31 -36 -43c-33.333 -28 -73 -42 -119 -42
c-61.333 0 -109.166 18.5 -143.499 55.5s-51.5 90.167 -51.5 159.5z" />
    <glyph glyph-name="Ydieresis" unicode="&#x178;" horiz-adv-x="685" 
d="M-10 700h195l150 -270h15l150 270h195l-260 -450v-250h-185v250zM365 855c0 22.667 7.66699 41.667 23 57s34.333 23 57 23s41.667 -7.66699 57 -23s23 -34.333 23 -57s-7.66699 -41.667 -23 -57s-34.333 -23 -57 -23s-41.667 7.66699 -57 23s-23 34.333 -23 57zM160 855
c0 22.667 7.66699 41.667 23 57s34.333 23 57 23s41.667 -7.66699 57 -23s23 -34.333 23 -57s-7.66699 -41.667 -23 -57s-34.333 -23 -57 -23s-41.667 7.66699 -57 23s-23 34.333 -23 57z" />
    <glyph glyph-name="Zacute" unicode="&#x179;" horiz-adv-x="665" 
d="M35 0v170l345 350v10h-335v170h575v-170l-345 -350v-10h355v-170h-595zM265 785l75 155h170v-5l-130 -150h-115z" />
    <glyph glyph-name="zacute" unicode="&#x17a;" horiz-adv-x="525" 
d="M25 0v145l245 220v10h-235v145h455v-145l-245 -220v-10h255v-145h-475zM205 615l75 155h170v-5l-130 -150h-115z" />
    <glyph glyph-name="Zdotaccent" unicode="&#x17b;" horiz-adv-x="665" 
d="M35 0v170l345 350v10h-335v170h575v-170l-345 -350v-10h355v-170h-595zM240 855c0 26 8 46.667 24 62s38 23 66 23s50 -7.66699 66 -23s24 -36 24 -62s-8 -46.667 -24 -62s-38 -23 -66 -23s-50 7.66699 -66 23s-24 36 -24 62z" />
    <glyph glyph-name="zdotaccent" unicode="&#x17c;" horiz-adv-x="525" 
d="M25 0v145l245 220v10h-235v145h455v-145l-245 -220v-10h255v-145h-475zM175 680c0 26 8 46.667 24 62s38 23 66 23s50 -7.66699 66 -23s24 -36 24 -62s-8 -46.667 -24 -62s-38 -23 -66 -23s-50 7.66699 -66 23s-24 36 -24 62z" />
    <glyph glyph-name="Zcaron" unicode="&#x17d;" horiz-adv-x="665" 
d="M35 0v170l345 350v10h-335v170h575v-170l-345 -350v-10h355v-170h-595zM155 935v5h115l55 -70h15l55 70h115v-5l-110 -150h-135z" />
    <glyph glyph-name="zcaron" unicode="&#x17e;" horiz-adv-x="525" 
d="M25 0v145l245 220v10h-235v145h455v-145l-245 -220v-10h255v-145h-475zM85 765v5h115l55 -70h15l55 70h115v-5l-110 -150h-135z" />
    <glyph glyph-name="florin" unicode="&#x192;" horiz-adv-x="465" 
d="M-55 -190v140h140l60 410h-50v140h70l30 200h290v-140h-140l-10 -60h110v-140h-130l-80 -550h-290z" />
    <glyph glyph-name="uni01FA" unicode="&#x1fa;" horiz-adv-x="720" 
d="M240 865c0 28 7.99805 51.999 23.998 71.999s37.667 33 65 39l26 59h135v-5l-60 -71c33.333 -21.333 50 -52.666 50 -93.999c0 -32.667 -11.167 -60 -33.5 -82s-51.166 -33 -86.499 -33s-64.166 11 -86.499 33s-33.5 49.333 -33.5 82zM314.998 864.999
c0 -12.667 4.33301 -23.334 13 -32.001s19.334 -13 32.001 -13s23.334 4.33301 32.001 13s13 19.334 13 32.001s-4.33301 23.334 -13 32.001s-19.334 13 -32.001 13s-23.334 -4.33301 -32.001 -13s-13 -19.334 -13 -32.001zM-0.00195312 -0.000976562l190 700h340l190 -700
h-190l-35 140h-270l-35 -140h-190zM264.998 299.999h190l-60 230h-70z" />
    <glyph glyph-name="uni01FB" unicode="&#x1fb;" 
d="M200 695c0 28 7.99805 51.999 23.998 71.999s37.667 33 65 39l26 59h135v-5l-60 -71c33.333 -21.333 50 -52.666 50 -93.999c0 -32.667 -11.167 -60 -33.5 -82s-51.166 -33 -86.499 -33s-64.166 11 -86.499 33s-33.5 49.333 -33.5 82zM274.998 694.999
c0 -12.667 4.33301 -23.334 13 -32.001s19.334 -13 32.001 -13s23.334 4.33301 32.001 13s13 19.334 13 32.001s-4.33301 23.334 -13 32.001s-19.334 13 -32.001 13s-23.334 -4.33301 -32.001 -13s-13 -19.334 -13 -32.001zM29.998 259.999
c0 82.667 22.333 149.167 67 199.5s99 75.5 163 75.5c41.333 0 80.333 -14.333 117 -43c15.333 -12.667 28 -26.667 38 -42h10v70h170v-520h-170v70h-10c-9.33301 -16 -22 -30.333 -38 -43c-36 -28 -75 -42 -117 -42c-64 0 -118.333 25.167 -163 75.5s-67 116.833 -67 199.5
zM204.998 259.999c0 -41.333 10 -73.333 30 -96s46.667 -34 80 -34s60 11.333 80 34s30 54.667 30 96s-10 73.333 -30 96s-46.667 34 -80 34s-60 -11.333 -80 -34s-30 -54.667 -30 -96z" />
    <glyph glyph-name="uni01FC" unicode="&#x1fc;" horiz-adv-x="1020" 
d="M0 0l190 700h790v-170h-340v-105h270v-150h-270v-105h340v-170h-525v140h-233l-37 -140h-185zM258 300h197v230h-133zM485 785l75 155h170v-5l-130 -150h-115z" />
    <glyph glyph-name="uni01FD" unicode="&#x1fd;" horiz-adv-x="985" 
d="M30 150c0 47.333 17.998 85.835 53.998 115.502s87.667 44.5 155 44.5h156v20c0 20.667 -7.33301 37.5 -22 50.5s-35.667 19.5 -63 19.5c-29.333 0 -52.333 -7.66699 -69 -23c-8 -8 -13.333 -15.333 -16 -22h-175c8 32.667 22.667 62.667 44 90c45.333 60 114 90 206 90
c57.333 0 105 -15 143 -45c16.667 -13.333 30.667 -28.333 42 -45h10c10.667 16.667 25.334 31.667 44.001 45c40.667 30 89.334 45 146.001 45c75.333 0 139.166 -26.833 191.499 -80.5s78.5 -120.167 78.5 -199.5v-25h-395c5.33301 -35.333 17.5 -62.5 36.5 -81.5
s43.5 -28.5 73.5 -28.5c35.333 0 62 9 80 27c8 7.33301 14.667 16.666 20 27.999h180c-12 -36.667 -30 -68.334 -54 -95.001c-52.667 -63.333 -124.667 -95 -216 -95c-66 0 -122 18.333 -168 55c-20.667 16.667 -36.334 35 -47.001 55h-10
c-10 -19.333 -25.333 -37.666 -46 -54.999c-43.333 -36.667 -99.666 -55 -168.999 -55c-65.333 0 -116.666 15.667 -153.999 47s-56 70.666 -56 117.999zM564.998 310.002h209.998c-6 26.667 -18.167 48.334 -36.5 65.001s-41.166 25 -68.499 25
s-50.166 -8.33301 -68.499 -25s-30.5 -38.334 -36.5 -65.001zM209.996 175.002c0 -16 6.16699 -29.167 18.5 -39.5s29.5 -15.5 51.5 -15.5c76.667 0 115 36.667 115 110h-115c-22 0 -39.167 -5.16699 -51.5 -15.5s-18.5 -23.5 -18.5 -39.5zM429.996 610.002l75 155h170v-5
l-130 -150h-115z" />
    <glyph glyph-name="uni01FE" unicode="&#x1fe;" horiz-adv-x="850" 
d="M15 -10l-0.000976562 110l75 55c-10.667 14.667 -20 32 -28 52c-18 42 -27 89.667 -27 143c0 102 36.833 189.167 110.5 261.5s166.834 108.5 279.501 108.5c72.667 0 141.667 -18.333 207 -55c30 -18.667 54.333 -37 73 -55l130 100v-110l-75 -55
c9.33301 -14.667 18.333 -32.334 27 -53.001c18.667 -43.333 28 -90.666 28 -141.999c0 -102 -36.833 -189.167 -110.5 -261.5s-166.834 -108.5 -279.501 -108.5c-77.333 0 -146.666 18.333 -207.999 55c-28.667 16.667 -52.667 35 -72 55zM229.999 350
c0 -20.667 2.33301 -39.666 7 -56.999l3.5 -11c1.66699 -5.33301 3.16699 -9.33301 4.5 -12l310 235c-8.66699 7.33301 -19 14.666 -31 21.999c-29.333 15.333 -62.333 23 -99 23c-58 0 -105 -18.333 -141 -55s-54 -85 -54 -145zM604.999 430.001l-310.001 -235
c8 -8 18.333 -15.667 31 -23c28 -14.667 61 -22 99 -22c58 0 105 18.333 141 55s54 85 54 145c0 18 -2.66699 37 -8 57c-1.33301 3.33301 -3.66602 11 -6.99902 23zM364.998 785.001l75 155h170v-5l-130 -150h-115z" />
    <glyph glyph-name="uni01FF" unicode="&#x1ff;" horiz-adv-x="630" 
d="M20 -10l-0.000976562 109.998l40 30c-6.66699 10 -12.667 22.333 -18 37c-11.333 28.667 -17 59.667 -17 93c0 75.333 28 140 84 194s124.667 81 206 81c51.333 0 100.333 -12.667 147 -38c18.667 -10.667 36.334 -23 53.001 -37l95 70v-110l-40 -30
c6 -11.333 11.667 -23.666 17 -36.999c12 -30.667 18 -61.667 18 -93c0 -75.333 -28 -140 -84 -194s-124.667 -81 -206 -81c-52.667 0 -101.667 12.333 -147 37c-20 10.667 -37.667 23.334 -53 38.001zM199.999 259.998c0 -5.33301 0.666992 -11.333 2 -18l3 -7l180 130
c-5.33301 4.66699 -12 8.66699 -20 12c-16 8.66699 -32.667 13 -50 13c-33.333 0 -60.833 -11.833 -82.5 -35.5s-32.5 -55.167 -32.5 -94.5zM424.999 284.998l-180 -130c7.33301 -6 14 -10.333 20 -13c14 -8 30.667 -12 50 -12c33.333 0 60.833 11.833 82.5 35.5
s32.5 55.167 32.5 94.5c0 4 -1 10 -3 18zM254.999 609.998l75 155h170v-5l-130 -150h-115z" />
    <glyph glyph-name="Scommaaccent" unicode="&#x218;" horiz-adv-x="690" 
d="M25 225l190.001 0.00292969c6 -16.667 15 -31 27 -43c28 -28 67.333 -42 118 -42c35.333 0 61.666 5.66699 78.999 17s26 25.666 26 42.999c0 7.33301 -1.83301 14.166 -5.5 20.499s-9.66699 12.166 -18 17.499s-16.5 9.83301 -24.5 13.5s-19.5 7.66699 -34.5 12
l-37.5 10.5c-10 2.66699 -24.5 6.33398 -43.5 11.001s-33.5 8.33398 -43.5 11.001c-63.333 17.333 -113.833 41.333 -151.5 72s-56.5 74.667 -56.5 132c0 60.667 26.167 112.5 78.5 155.5s122.833 64.5 211.5 64.5c113.333 0 198 -36.667 254 -110
c24.667 -32 41.667 -68.667 51 -110h-190c-4 10.667 -10.667 20.667 -20 30c-21.333 20 -53 30 -95 30c-32.667 0 -56.667 -4.83301 -72 -14.5s-23 -21.5 -23 -35.5c0 -18.667 11.167 -33.5 33.5 -44.5s55.166 -21.5 98.499 -31.5c25.333 -6 43.5 -10.5 54.5 -13.5
s28.667 -8.33301 53 -16s42.833 -14.834 55.5 -21.501s27.834 -15.834 45.501 -27.501s31 -24 40 -37s17 -28.833 24 -47.5s10.5 -39 10.5 -61c0 -64 -26.333 -118.333 -79 -163s-126.334 -67 -221.001 -67c-118.667 0 -210 40.667 -274 122
c-27.333 35.333 -47.666 76.333 -60.999 123zM265.001 -159.997c0 20 7.83203 37.5 23.499 52.5s34.5 22.5 56.5 22.5c56.667 0 85 -41.667 85 -125c0 -38 -14 -70 -42 -96s-64 -39 -108 -39v60c22 0 39.167 4.66699 51.5 14s18.5 21.333 18.5 36v10l-7 -3
c-6.66699 -1.33301 -12.667 -2 -18 -2c-19.333 0 -34.166 6.16699 -44.499 18.5s-15.5 29.5 -15.5 51.5z" />
    <glyph glyph-name="scommaaccent" unicode="&#x219;" horiz-adv-x="555" 
d="M20 170l170.003 0.00195312c2.66699 -10 8.33398 -19.333 17.001 -28c18 -18 44 -27 78 -27c46.667 0 70 11.667 70 35c0 10.667 -6.66699 19.167 -20 25.5s-33.333 12.833 -60 19.5c-22 5.33301 -36.333 8.66602 -43 9.99902s-20.667 5.16602 -42 11.499
s-36.5 12 -45.5 17s-21.333 12.333 -37 22s-27 19.667 -34 30s-13.5 23.333 -19.5 39s-9 32.5 -9 50.5c0 44 19.667 81.667 59 113s94.666 47 165.999 47c89.333 0 160 -29.333 212 -88c20.667 -25.333 35 -54.333 43 -87h-165c-4 10.667 -8.66699 19 -14 25
c-15.333 16.667 -37.333 25 -66 25c-40 0 -60 -11.667 -60 -35c0 -11.333 6.66699 -20 20 -26s33.666 -11.667 60.999 -17c68.667 -16 115 -30 139 -42c60 -29.333 90 -74.333 90 -135c0 -48 -21.167 -88.333 -63.5 -121s-102.833 -49 -181.5 -49
c-96.667 0 -170.334 30.667 -221.001 92c-22.667 27.333 -37.334 58.333 -44.001 93zM205.003 -158.998c0 20 7.83203 37.5 23.499 52.5s34.5 22.5 56.5 22.5c56.667 0 85 -41.667 85 -125c0 -38 -14 -70 -42 -96s-64 -39 -108 -39v60c22 0 39.167 4.66699 51.5 14
s18.5 21.333 18.5 36v10l-7 -3c-6.66699 -1.33301 -12.667 -2 -18 -2c-19.333 0 -34.166 6.16699 -44.499 18.5s-15.5 29.5 -15.5 51.5z" />
    <glyph glyph-name="uni021A" unicode="&#x21a;" 
d="M10 530v170h625v-170h-220v-530h-185v530h-220zM240 -160c0 20 7.83203 37.5 23.499 52.5s34.5 22.5 56.5 22.5c56.667 0 85 -41.667 85 -125c0 -38 -14 -70 -42 -96s-64 -39 -108 -39v60c22 0 39.167 4.66699 51.5 14s18.5 21.333 18.5 36v10l-7 -3
c-6.66699 -1.33301 -12.667 -2 -18 -2c-19.333 0 -34.166 6.16699 -44.499 18.5s-15.5 29.5 -15.5 51.5z" />
    <glyph glyph-name="uni021B" unicode="&#x21b;" horiz-adv-x="420" 
d="M15 385v135h65v110h170v-110h135v-135h-135v-250h145v-135h-315v385h-65zM155 -160c0 20 7.83203 37.5 23.499 52.5s34.5 22.5 56.5 22.5c56.667 0 85 -41.667 85 -125c0 -38 -14 -70 -42 -96s-64 -39 -108 -39v60c22 0 39.167 4.66699 51.5 14s18.5 21.333 18.5 36v10
l-7 -3c-6.66699 -1.33301 -12.667 -2 -18 -2c-19.333 0 -34.166 6.16699 -44.499 18.5s-15.5 29.5 -15.5 51.5z" />
    <glyph glyph-name="afii57929" unicode="&#x2bc;" horiz-adv-x="225" 
d="M30 630c0 20 7.83203 37.5 23.499 52.5s34.5 22.5 56.5 22.5c56.667 0 85 -41.667 85 -125c0 -38 -14 -70 -42 -96s-64 -39 -108 -39v60c22 0 39.167 4.66699 51.5 14s18.5 21.333 18.5 36v10l-7 -3c-6.66699 -1.33301 -12.667 -2 -18 -2
c-19.333 0 -34.166 6.16699 -44.499 18.5s-15.5 29.5 -15.5 51.5z" />
    <glyph glyph-name="circumflex" unicode="&#x2c6;" horiz-adv-x="415" 
d="M30 545v5l110 150h135l110 -150v-5h-115l-55 70h-15l-55 -70h-115z" />
    <glyph glyph-name="caron" unicode="&#x2c7;" horiz-adv-x="415" 
d="M30 695v5h115l55 -70h15l55 70h115v-5l-110 -150h-135z" />
    <glyph glyph-name="breve" unicode="&#x2d8;" horiz-adv-x="380" 
d="M30 695h100.002c0 -13.333 5.16699 -24.166 15.5 -32.499s25.166 -12.5 44.499 -12.5s34.166 4.16699 44.499 12.5s15.5 19.166 15.5 32.499h100c0 -43.333 -13.833 -77.5 -41.5 -102.5s-67.167 -37.5 -118.5 -37.5s-90.833 12.5 -118.5 37.5s-41.5 59.167 -41.5 102.5z
" />
    <glyph glyph-name="dotaccent" unicode="&#x2d9;" horiz-adv-x="240" 
d="M30 630c0 26 8 46.667 24 62s38 23 66 23s50 -7.66699 66 -23s24 -36 24 -62s-8 -46.667 -24 -62s-38 -23 -66 -23s-50 7.66699 -66 23s-24 36 -24 62z" />
    <glyph glyph-name="ring" unicode="&#x2da;" horiz-adv-x="300" 
d="M30 590c0 32.667 11.167 60 33.5 82s51.166 33 86.499 33s64.166 -11 86.499 -33s33.5 -49.333 33.5 -82s-11.167 -60 -33.5 -82s-51.166 -33 -86.499 -33s-64.166 11 -86.499 33s-33.5 49.333 -33.5 82zM105 590c0 -12.667 4.33301 -23.334 13 -32.001
s19.334 -13 32.001 -13s23.334 4.33301 32.001 13s13 19.334 13 32.001s-4.33301 23.334 -13 32.001s-19.334 13 -32.001 13s-23.334 -4.33301 -32.001 -13s-13 -19.334 -13 -32.001z" />
    <glyph glyph-name="ogonek" unicode="&#x2db;" horiz-adv-x="275" 
d="M30 -155c0 39.333 23.333 76.998 70 112.998c21.333 16.667 44.666 30.667 69.999 42h75c-20.667 -12.667 -40 -27 -58 -43c-38 -35.333 -57 -66 -57 -92c0 -10 3.66699 -18.333 11 -25s17 -10 29 -10c16.667 0 32 2.33301 46 7
c0.666992 0.666992 3.5 1.83398 8.5 3.50098s8.5 3.16699 10.5 4.5v-80c-5.33301 -3.33301 -13.333 -6.66602 -24 -9.99902c-20 -6.66699 -40.333 -10 -61 -10c-39.333 0 -69.166 9 -89.499 27s-30.5 42.333 -30.5 73z" />
    <glyph glyph-name="tilde" unicode="&#x2dc;" horiz-adv-x="405" 
d="M30 560v50c0 30 8.33301 53.333 25 70s40 25 70 25c26 0 52.333 -7.33301 79 -22c24 -15.333 41 -23 51 -23c16.667 0 25 8.33301 25 25v15h95v-50c0 -30 -8.33301 -53.333 -25 -70s-40 -25 -70 -25c-28 0 -54 7.66699 -78 23c-26.667 14.667 -44 22 -52 22
c-16.667 0 -25 -8.33301 -25 -25v-15h-95z" />
    <glyph glyph-name="hungarumlaut" unicode="&#x2dd;" horiz-adv-x="455" 
d="M210 545l70 155h145v-5l-120 -150h-95zM30 545l70 155h140v-5l-115 -150h-95z" />
    <glyph glyph-name="uni0301" unicode="&#x301;" horiz-adv-x="0" 
d="M-430 825l55 125h135v-5l-100 -120h-90z" />
    <glyph glyph-name="uni030A" unicode="&#x30a;" horiz-adv-x="0" 
d="M-455 760c0 32.667 11.167 60 33.5 82s51.166 33 86.499 33s64.166 -11 86.499 -33s33.5 -49.333 33.5 -82s-11.167 -60 -33.5 -82s-51.166 -33 -86.499 -33s-64.166 11 -86.499 33s-33.5 49.333 -33.5 82zM-380 760c0 -12.667 4.33301 -23.334 13 -32.001
s19.334 -13 32.001 -13s23.334 4.33301 32.001 13s13 19.334 13 32.001s-4.33301 23.334 -13 32.001s-19.334 13 -32.001 13s-23.334 -4.33301 -32.001 -13s-13 -19.334 -13 -32.001z" />
    <glyph glyph-name="afii10023" unicode="&#x401;" 
d="M65 0v700h540v-170h-355v-105h285v-150h-285v-105h355v-170h-540zM365 835c0 22.667 7.66699 41.667 23 57s34.333 23 57 23s41.667 -7.66699 57 -23s23 -34.333 23 -57s-7.66699 -41.667 -23 -57s-34.333 -23 -57 -23s-41.667 7.66699 -57 23s-23 34.333 -23 57z
M160 835c0 22.667 7.66699 41.667 23 57s34.333 23 57 23s41.667 -7.66699 57 -23s23 -34.333 23 -57s-7.66699 -41.667 -23 -57s-34.333 -23 -57 -23s-41.667 7.66699 -57 23s-23 34.333 -23 57z" />
    <glyph glyph-name="afii10051" unicode="&#x402;" horiz-adv-x="845" 
d="M10 530v170h590v-170h-205v-90h155c80 0 143.333 -23.333 190 -70s70 -110 70 -190v-290h-300v170h115v115c0 28 -8.83301 50.833 -26.5 68.5s-40.5 26.5 -68.5 26.5h-135v-270h-185v530h-200z" />
    <glyph glyph-name="afii10052" unicode="&#x403;" horiz-adv-x="590" 
d="M65 0v700h510v-170h-325v-530h-185zM265 770l75 155h170v-5l-130 -150h-115z" />
    <glyph glyph-name="afii10053" unicode="&#x404;" horiz-adv-x="825" 
d="M35 350c0 106 36.499 194.166 109.499 264.499s166.5 105.5 280.5 105.5c126 0 225 -46 297 -138c32 -42 54.667 -87.667 68 -137h-190c-10 20.667 -22.333 38 -37 52c-35.333 35.333 -81.333 53 -138 53c-49.333 0 -90.5 -13.167 -123.5 -39.5
s-53.833 -58.166 -62.5 -95.499h231v-130h-231c8.66699 -38 29.334 -70 62.001 -96s74 -39 124 -39c62.667 0 111.334 20 146.001 60c16 18 27.333 38 34 60h190c-14.667 -54 -38.334 -102.333 -71.001 -145c-71.333 -96.667 -171 -145 -299 -145
c-114 0 -207.5 35.167 -280.5 105.5s-109.5 158.5 -109.5 264.5z" />
    <glyph glyph-name="afii10054" unicode="&#x405;" horiz-adv-x="690" 
d="M25 225l190.001 0.00292969c6 -16.667 15 -31 27 -43c28 -28 67.333 -42 118 -42c35.333 0 61.666 5.66699 78.999 17s26 25.666 26 42.999c0 7.33301 -1.83301 14.166 -5.5 20.499s-9.66699 12.166 -18 17.499s-16.5 9.83301 -24.5 13.5s-19.5 7.66699 -34.5 12
l-37.5 10.5c-10 2.66699 -24.5 6.33398 -43.5 11.001s-33.5 8.33398 -43.5 11.001c-63.333 17.333 -113.833 41.333 -151.5 72s-56.5 74.667 -56.5 132c0 60.667 26.167 112.5 78.5 155.5s122.833 64.5 211.5 64.5c113.333 0 198 -36.667 254 -110
c24.667 -32 41.667 -68.667 51 -110h-190c-4 10.667 -10.667 20.667 -20 30c-21.333 20 -53 30 -95 30c-32.667 0 -56.667 -4.83301 -72 -14.5s-23 -21.5 -23 -35.5c0 -18.667 11.167 -33.5 33.5 -44.5s55.166 -21.5 98.499 -31.5c25.333 -6 43.5 -10.5 54.5 -13.5
s28.667 -8.33301 53 -16s42.833 -14.834 55.5 -21.501s27.834 -15.834 45.501 -27.501s31 -24 40 -37s17 -28.833 24 -47.5s10.5 -39 10.5 -61c0 -64 -26.333 -118.333 -79 -163s-126.334 -67 -221.001 -67c-118.667 0 -210 40.667 -274 122
c-27.333 35.333 -47.666 76.333 -60.999 123z" />
    <glyph glyph-name="afii10055" unicode="&#x406;" horiz-adv-x="315" 
d="M65 0v700h185v-700h-185z" />
    <glyph glyph-name="afii10056" unicode="&#x407;" horiz-adv-x="315" 
d="M65 0v700h185v-700h-185zM180 835c0 22.667 7.66699 41.667 23 57s34.333 23 57 23s41.667 -7.66699 57 -23s23 -34.333 23 -57s-7.66699 -41.667 -23 -57s-34.333 -23 -57 -23s-41.667 7.66699 -57 23s-23 34.333 -23 57zM-25 835c0 22.667 7.66699 41.667 23 57
s34.333 23 57 23s41.667 -7.66699 57 -23s23 -34.333 23 -57s-7.66699 -41.667 -23 -57s-34.333 -23 -57 -23s-41.667 7.66699 -57 23s-23 34.333 -23 57z" />
    <glyph glyph-name="afii10057" unicode="&#x408;" horiz-adv-x="610" 
d="M0 170l170 35.999c5.33301 -12 11.666 -22.333 18.999 -31c20 -20 45.333 -30 76 -30c66.667 0 100 33.333 100 100v455h185v-455c0 -83.333 -25.167 -149.166 -75.5 -197.499s-120.166 -72.5 -209.499 -72.5s-161 32.333 -215 97c-22 28 -38.667 60.667 -50 98z" />
    <glyph glyph-name="afii10058" unicode="&#x409;" horiz-adv-x="1085" 
d="M0 0l185 700h445v-210h140c90 0 160.833 -22.833 212.5 -68.5s77.5 -104.5 77.5 -176.5s-25.833 -130.833 -77.5 -176.5s-122.5 -68.5 -212.5 -68.5h-325v530h-120l-135 -530h-190zM630 170l150 -0.00195312c28 0 50 6.83301 66 20.5s24 31.834 24 54.501
s-8 40.834 -24 54.501s-38 20.5 -66 20.5h-150v-150z" />
    <glyph glyph-name="afii10059" unicode="&#x40a;" horiz-adv-x="1150" 
d="M65 0v700h185v-230h260v230h185v-230h150c85.333 0 153.333 -22.333 204 -67s76 -100.667 76 -168s-25.333 -123.333 -76 -168s-118.667 -67 -204 -67h-335v300h-260v-300h-185zM695 170h164.999c22.667 0 40.834 6.33301 54.501 19s20.5 28 20.5 46s-7 33.333 -21 46
s-32 19 -54 19h-165v-130z" />
    <glyph glyph-name="afii10060" unicode="&#x40b;" horiz-adv-x="845" 
d="M10 530v170h590v-170h-205v-90h155c80 0 143.333 -23.333 190 -70s70 -110 70 -190v-180h-185v175c0 28 -8.83301 50.833 -26.5 68.5s-40.5 26.5 -68.5 26.5h-135v-270h-185v530h-200z" />
    <glyph glyph-name="afii10061" unicode="&#x40c;" horiz-adv-x="725" 
d="M65 0v700h185v-260h80l170 260h210l-220 -330l235 -370h-210l-175 270h-90v-270h-185zM290 770l75 155h170v-5l-130 -150h-115z" />
    <glyph glyph-name="afii10062" unicode="&#x40e;" horiz-adv-x="670" 
d="M-5 700h195l115 -300h75l115 300h190l-270 -700h-190l90 230h-135zM160 925h119.998c0 -36.667 20 -55 60 -55s60 18.333 60 55h120c0 -48.667 -15.667 -87.5 -47 -116.5s-75.666 -43.5 -132.999 -43.5s-101.666 14.5 -132.999 43.5s-47 67.833 -47 116.5z" />
    <glyph glyph-name="afii10145" unicode="&#x40f;" horiz-adv-x="770" 
d="M65 0v700h185v-530h270v530h185v-700h-235v-120h-170v120h-235z" />
    <glyph glyph-name="afii10017" unicode="&#x410;" horiz-adv-x="720" 
d="M0 0l190 700h340l190 -700h-190l-35 140h-270l-35 -140h-190zM265 300h190l-60 230h-70z" />
    <glyph glyph-name="afii10018" unicode="&#x411;" horiz-adv-x="720" 
d="M65 0v700.002h570v-160h-385v-90h180c80.667 0 144.167 -20.833 190.5 -62.5s69.5 -95.834 69.5 -162.501s-23.167 -120.834 -69.5 -162.501s-109.833 -62.5 -190.5 -62.5h-365zM250 160.002h170c24.667 0 44.167 6.33301 58.5 19s21.5 28 21.5 46
s-7.16699 33.333 -21.5 46s-33.833 19 -58.5 19h-170v-130z" />
    <glyph glyph-name="afii10019" unicode="&#x412;" horiz-adv-x="730" 
d="M65 0v699.998h375c72 0 128.333 -16.667 169 -50s61 -75 61 -125s-18.333 -89.333 -55 -118c-17.333 -12 -35.666 -21 -54.999 -27v-5c25.333 -7.33301 47.666 -17.666 66.999 -30.999c45.333 -31.333 68 -77.666 68 -138.999c0 -60 -23 -109.167 -69 -147.5
s-111.333 -57.5 -196 -57.5h-365zM250 429.998h150c24.667 0 43.334 5.5 56.001 16.5s19 25.5 19 43.5s-6.33301 32.5 -19 43.5s-31.334 16.5 -56.001 16.5h-150v-120zM250 149.998h160c31.333 0 55 6.33301 71 19s24 29.667 24 51s-8 38.333 -24 51s-39.667 19 -71 19h-160
v-140z" />
    <glyph glyph-name="afii10020" unicode="&#x413;" horiz-adv-x="590" 
d="M65 0v700h510v-170h-325v-530h-185z" />
    <glyph glyph-name="afii10021" unicode="&#x414;" horiz-adv-x="795" 
d="M5 -120v290h80l140 530h345l140 -530h80v-290h-175v120h-435v-120h-175zM260 170h275l-95 360h-85z" />
    <glyph glyph-name="afii10022" unicode="&#x415;" 
d="M65 0v700h540v-170h-355v-105h285v-150h-285v-105h355v-170h-540z" />
    <glyph glyph-name="afii10024" unicode="&#x416;" horiz-adv-x="1075" 
d="M0 0l225 370l-210 330h210l160 -260h60v260h185v-260h60l160 260h210l-210 -330l225 -370h-210l-165 270h-70v-270h-185v270h-70l-165 -270h-210z" />
    <glyph glyph-name="afii10025" unicode="&#x417;" horiz-adv-x="695" 
d="M20 225l189.999 0.00292969c4.66699 -16 13.334 -30.333 26.001 -43c28 -28 69.333 -42 124 -42c34 0 60 7.16699 78 21.5s27 32.166 27 53.499c0 46.667 -39.667 70 -119 70h-92v150h92c66 0 99 20 99 60c0 18.667 -8.16699 34.167 -24.5 46.5s-39.833 18.5 -70.5 18.5
c-42 0 -74.667 -11.667 -98 -35c-10.667 -10.667 -18 -22.334 -22 -35.001h-190c10 43.333 28.333 81.666 55 114.999c62 76.667 150.333 115 265 115c88 0 156.667 -19.333 206 -58s74 -86 74 -142c0 -50 -18.333 -90.667 -55 -122c-16.667 -12.667 -35 -22 -55 -28v-10
c24 -6 45.667 -15.667 65 -29c43.333 -31.333 65 -75 65 -131c0 -63.333 -26.667 -115.833 -80 -157.5s-130 -62.5 -230 -62.5c-125.333 0 -218 40.667 -278 122c-26.667 35.333 -44 76.333 -52 123z" />
    <glyph glyph-name="afii10026" unicode="&#x418;" horiz-adv-x="780" 
d="M65 0v700h185v-345l-15 -90h10l255 435h215v-700h-185v345l15 90h-10l-255 -435h-215z" />
    <glyph glyph-name="afii10027" unicode="&#x419;" horiz-adv-x="780" 
d="M65 0v700h185v-345l-15 -90h10l255 435h215v-700h-185v345l15 90h-10l-255 -435h-215zM210 925h119.998c0 -36.667 20 -55 60 -55s60 18.333 60 55h120c0 -48.667 -15.667 -87.5 -47 -116.5s-75.666 -43.5 -132.999 -43.5s-101.666 14.5 -132.999 43.5
s-47 67.833 -47 116.5z" />
    <glyph glyph-name="afii10028" unicode="&#x41a;" horiz-adv-x="725" 
d="M65 0v700h185v-260h80l170 260h210l-220 -330l235 -370h-210l-175 270h-90v-270h-185z" />
    <glyph glyph-name="afii10029" unicode="&#x41b;" horiz-adv-x="710" 
d="M0 0l185 700h340l185 -700h-185l-140 530h-60l-140 -530h-185z" />
    <glyph glyph-name="afii10030" unicode="&#x41c;" horiz-adv-x="965" 
d="M65 0v700h260l145 -360h25l145 360h260v-700h-185v400l15 90h-10l-135 -330h-205l-135 330h-10l15 -90v-400h-185z" />
    <glyph glyph-name="afii10031" unicode="&#x41d;" horiz-adv-x="770" 
d="M65 0v700h185v-260h270v260h185v-700h-185v270h-270v-270h-185z" />
    <glyph glyph-name="afii10032" unicode="&#x41e;" horiz-adv-x="850" 
d="M35 350c0 102 36.833 189.167 110.5 261.5s166.834 108.5 279.501 108.5s205.834 -36.167 279.501 -108.5s110.5 -159.5 110.5 -261.5s-36.833 -189.167 -110.5 -261.5s-166.834 -108.5 -279.501 -108.5s-205.834 36.167 -279.501 108.5s-110.5 159.5 -110.5 261.5z
M230 350c0 -60 18 -108.333 54 -145s83 -55 141 -55s105 18.333 141 55s54 85 54 145s-18 108.333 -54 145s-83 55 -141 55s-105 -18.333 -141 -55s-54 -85 -54 -145z" />
    <glyph glyph-name="afii10033" unicode="&#x41f;" horiz-adv-x="770" 
d="M65 0v700h640v-700h-185v530h-270v-530h-185z" />
    <glyph glyph-name="afii10034" unicode="&#x420;" horiz-adv-x="725" 
d="M65 0v700h340c86 0 155.833 -24.5 209.5 -73.5s80.5 -109.5 80.5 -181.5s-26.833 -132.5 -80.5 -181.5s-123.5 -73.5 -209.5 -73.5h-155v-190h-185zM250 360h150c34.667 0 60.834 7.66699 78.501 23s26.5 36 26.5 62s-8.83301 46.667 -26.5 62s-43.834 23 -78.501 23
h-150v-170z" />
    <glyph glyph-name="afii10035" unicode="&#x421;" horiz-adv-x="825" 
d="M35 350c0 106 36.5 194.167 109.5 264.5s166.5 105.5 280.5 105.5c126 0 225 -46 297 -138c32 -42 54.667 -87.667 68 -137h-190c-10 20.667 -22.333 38 -37 52c-35.333 35.333 -81.333 53 -138 53c-58 0 -105 -18.333 -141 -55s-54 -85 -54 -145s18 -108.333 54 -145
s83 -55 141 -55c62.667 0 111.334 20 146.001 60c16 18 27.333 38 34 60h190c-14.667 -54 -38.334 -102.333 -71.001 -145c-71.333 -96.667 -171 -145 -299 -145c-114 0 -207.5 35.167 -280.5 105.5s-109.5 158.5 -109.5 264.5z" />
    <glyph glyph-name="afii10036" unicode="&#x422;" 
d="M10 530v170h625v-170h-220v-530h-185v530h-220z" />
    <glyph glyph-name="afii10037" unicode="&#x423;" horiz-adv-x="670" 
d="M-5 700h195l115 -300h75l115 300h190l-270 -700h-190l90 230h-135z" />
    <glyph glyph-name="afii10038" unicode="&#x424;" horiz-adv-x="955" 
d="M30 355c0 87.333 32.667 161.166 98 221.499s151 93.166 257 98.499v70h185v-70c106 -5.33301 191.667 -38.166 257 -98.499s98 -134.166 98 -221.499s-32.667 -161.166 -98 -221.499s-151 -93.166 -257 -98.499v-70h-185v70c-106 5.33301 -191.667 38.166 -257 98.499
s-98 134.166 -98 221.499zM570 510v-310c47.333 2.66699 85.833 18.5 115.5 47.5s44.5 64.833 44.5 107.5s-14.833 78.5 -44.5 107.5s-68.167 44.833 -115.5 47.5zM225 355c0 -42.667 14.833 -78.5 44.5 -107.5s68.167 -44.833 115.5 -47.5v310
c-47.333 -2.66699 -85.833 -18.5 -115.5 -47.5s-44.5 -64.833 -44.5 -107.5z" />
    <glyph glyph-name="afii10039" unicode="&#x425;" horiz-adv-x="700" 
d="M5 0l175 345l-160 355h195l110 -270h50l110 270h195l-160 -355l175 -345h-200l-120 260h-50l-120 -260h-200z" />
    <glyph glyph-name="afii10040" unicode="&#x426;" horiz-adv-x="780" 
d="M65 0v700h185v-530h240v530h185v-530h90v-290h-175v120h-525z" />
    <glyph glyph-name="afii10041" unicode="&#x427;" horiz-adv-x="740" 
d="M50 460v239.999h185v-225c0 -33.333 9.83301 -59.166 29.5 -77.499s48.167 -27.5 85.5 -27.5s72 7.33301 104 22c16 8 28 15.667 36 23v285h185v-700h-185v250c-15.333 -10.667 -30.333 -19 -45 -25c-40 -16.667 -85 -25 -135 -25c-80 0 -143.333 23.333 -190 70
s-70 110 -70 190z" />
    <glyph glyph-name="afii10042" unicode="&#x428;" horiz-adv-x="1045" 
d="M65 0v700h185v-530h180v530h185v-530h179v530h186v-700h-915z" />
    <glyph glyph-name="afii10043" unicode="&#x429;" horiz-adv-x="1085" 
d="M65 0v700h185v-530h180v530h185v-530h179v530h186v-530h90v-290h-175v120h-830z" />
    <glyph glyph-name="afii10044" unicode="&#x42a;" horiz-adv-x="785" 
d="M5 530v170h325v-210h140c90 0 160.833 -22.833 212.5 -68.5s77.5 -104.5 77.5 -176.5s-25.833 -130.833 -77.5 -176.5s-122.5 -68.5 -212.5 -68.5h-325v530h-140zM330 170l150 -0.00195312c28 0 50 6.83301 66 20.5s24 31.834 24 54.501s-8 40.834 -24 54.501
s-38 20.5 -66 20.5h-150v-150z" />
    <glyph glyph-name="afii10045" unicode="&#x42b;" horiz-adv-x="970" 
d="M720 0v700h185v-700h-185zM65 0v700h185v-210h125c90 0 160.833 -22.833 212.5 -68.5s77.5 -104.5 77.5 -176.5s-25.833 -130.833 -77.5 -176.5s-122.5 -68.5 -212.5 -68.5h-310zM250 170l135 -0.00195312c28 0 50 6.83301 66 20.5s24 31.834 24 54.501
s-8 40.834 -24 54.501s-38 20.5 -66 20.5h-135v-150z" />
    <glyph glyph-name="afii10046" unicode="&#x42c;" horiz-adv-x="715" 
d="M65 0v700h185v-210h150c90 0 160.833 -22.833 212.5 -68.5s77.5 -104.5 77.5 -176.5s-25.833 -130.833 -77.5 -176.5s-122.5 -68.5 -212.5 -68.5h-335zM250 170l160 -0.00195312c28 0 50 6.83301 66 20.5s24 31.834 24 54.501s-8 40.834 -24 54.501s-38 20.5 -66 20.5
h-160v-150z" />
    <glyph glyph-name="afii10047" unicode="&#x42d;" horiz-adv-x="825" 
d="M30 270l189.999 0.000976562c6.66699 -22 18 -42 34 -60c34.667 -40 83.334 -60 146.001 -60c50 0 91.333 13 124 39s53.334 58 62.001 96h-231v130h231c-8.66699 37.333 -29.5 69.166 -62.5 95.499s-74.167 39.5 -123.5 39.5c-56.667 0 -102.667 -17.667 -138 -53
c-14.667 -14 -27 -31.333 -37 -52h-190c13.333 49.333 36 95 68 137c70.667 92 169.667 138 297 138c114 0 207.5 -35.167 280.5 -105.5s109.5 -158.5 109.5 -264.5s-36.5 -194.167 -109.5 -264.5s-166.5 -105.5 -280.5 -105.5c-128 0 -227.667 48.333 -299 145
c-32.667 42.667 -56.334 91 -71.001 145z" />
    <glyph glyph-name="afii10048" unicode="&#x42e;" horiz-adv-x="1110" 
d="M65 0v699.998h185v-265h85c12.667 76.667 52.834 143.334 120.501 200.001s149.167 85 244.5 85c107.333 0 196.666 -35.333 267.999 -106s107 -158.667 107 -264s-35.667 -193.333 -107 -264s-160.666 -106 -267.999 -106c-95.333 0 -176.833 28.333 -244.5 85
s-107.834 123.334 -120.501 200.001h-85v-265h-185zM520 349.998c0 -61.333 16.667 -110 50 -146s76.666 -54 129.999 -54s96.666 18 129.999 54s50 84.667 50 146s-16.667 110 -50 146s-76.666 54 -129.999 54s-96.666 -18 -129.999 -54s-50 -84.667 -50 -146z" />
    <glyph glyph-name="afii10049" unicode="&#x42f;" horiz-adv-x="740" 
d="M45 455c0 69.333 25.833 127.5 77.5 174.5s119.167 70.5 202.5 70.5h350v-700h-185v210h-130l-120 -210h-200l145 250c-93.333 46.667 -140 115 -140 205zM235 455c0 -20.667 8.66699 -38.332 26 -52.999s40.333 -22 69 -22h160v150h-160
c-28.667 0 -51.667 -7.33301 -69 -22s-26 -32.334 -26 -53.001z" />
    <glyph glyph-name="afii10065" unicode="&#x430;" 
d="M30 260c0 82.667 22.333 149.167 67 199.5s99 75.5 163 75.5c41.333 0 80.333 -14.333 117 -43c15.333 -12.667 28 -26.667 38 -42h10v70h170v-520h-170v70h-10c-9.33301 -16 -22 -30.333 -38 -43c-36 -28 -75 -42 -117 -42c-64 0 -118.333 25.167 -163 75.5
s-67 116.833 -67 199.5zM205 260c0 -41.333 10 -73.333 30 -96s46.667 -34 80 -34s60 11.333 80 34s30 54.667 30 96s-10 73.333 -30 96s-46.667 34 -80 34s-60 -11.333 -80 -34s-30 -54.667 -30 -96z" />
    <glyph glyph-name="afii10066" unicode="&#x431;" horiz-adv-x="620" 
d="M35 300c0 132.667 29.666 232.5 88.999 299.5s143 100.5 251 100.5h170v-145h-145c-128 0 -194.667 -51.667 -200 -155h10c8.66699 12 20 23.667 34 35c32.667 23.333 71.334 35 116.001 35c68 0 124.167 -22.167 168.5 -66.5s66.5 -100.5 66.5 -168.5
c0 -71.333 -25.833 -130.833 -77.5 -178.5s-119.167 -71.5 -202.5 -71.5c-82 0 -149.167 28.5 -201.5 85.5s-78.5 133.5 -78.5 229.5zM209.999 240c0 -33.333 9.83105 -60 29.498 -80s44.834 -30 75.501 -30s55.834 10 75.501 30s29.5 46.667 29.5 80
c0 32 -10 58.333 -30 79s-45 31 -75 31s-55 -10.333 -75 -31s-30 -47 -30 -79z" />
    <glyph glyph-name="afii10067" unicode="&#x432;" horiz-adv-x="585" 
d="M50 0l0.000976562 520h300c57.333 0 101.666 -12.167 132.999 -36.5s47 -53.833 47 -88.5c0 -40 -15 -71 -45 -93c-12 -9.33301 -27 -16.666 -45 -21.999v-10c19.333 -2.66699 38.333 -9 57 -19c38.667 -21.333 58 -55 58 -101c0 -44.667 -17.333 -80.834 -52 -108.501
s-85.667 -41.5 -153 -41.5h-300zM220.001 325h100c30 0 45 13.333 45 40s-15 40 -45 40h-100v-80zM220.001 115h110c17.333 0 30.833 4.5 40.5 13.5s14.5 21.167 14.5 36.5s-4.83301 27.5 -14.5 36.5s-23.167 13.5 -40.5 13.5h-110v-100z" />
    <glyph glyph-name="afii10068" unicode="&#x433;" horiz-adv-x="470" 
d="M50 0v520h410v-145h-240v-375h-170z" />
    <glyph glyph-name="afii10069" unicode="&#x434;" horiz-adv-x="625" 
d="M5 -100v245h60l95 375h305l95 -375h60v-245h-160v100h-295v-100h-160zM235 145h155l-55 230h-45z" />
    <glyph glyph-name="afii10070" unicode="&#x435;" horiz-adv-x="625" 
d="M25 260c0 75.333 27.666 140.002 82.999 194.002s122.666 81 201.999 81c80.667 0 148.334 -27 203.001 -81s82 -118.667 82 -194v-30h-395c5.33301 -35.333 17.5 -62.5 36.5 -81.5s43.5 -28.5 73.5 -28.5c35.333 0 62 9 80 27c8 7.33301 14.667 16.666 20 27.999h180
c-12 -36.667 -30 -68.334 -54 -95.001c-52.667 -63.333 -128 -95 -226 -95c-79.333 0 -146.666 27 -201.999 81s-83 118.667 -83 194zM204.999 315.002h210.002c-6 24 -18.333 44.167 -37 60.5s-41.334 24.5 -68.001 24.5s-49.334 -8.16699 -68.001 -24.5
s-31 -36.5 -37 -60.5z" />
    <glyph glyph-name="afii10072" unicode="&#x436;" horiz-adv-x="870" 
d="M0 0l165 275l-150 245h180l110 -185h45v185h170v-185h45l110 185h180l-150 -245l165 -275h-185l-110 190h-55v-190h-170v190h-55l-110 -190h-185z" />
    <glyph glyph-name="afii10073" unicode="&#x437;" horiz-adv-x="555" 
d="M20 170l170.003 0.000976562c3.33301 -10 9 -19.333 17 -28c15.333 -18 39.666 -27 72.999 -27c50 0 75 16.333 75 49c0 30.667 -25 46 -75 46h-66v110h61c24.667 0 41.667 3.5 51 10.5s14 17.5 14 31.5c0 12.667 -5.5 23 -16.5 31s-27.167 12 -48.5 12
c-26 0 -46.667 -7.66699 -62 -23c-6.66699 -6.66699 -11 -14 -13 -22h-170c9.33301 32 24.333 61 45 87c46.667 58.667 116.667 88 210 88c73.333 0 129.166 -14.333 167.499 -43s57.5 -64.334 57.5 -107.001c0 -38 -15 -66.667 -45 -86c-12 -8.66699 -27 -15 -45 -19v-10
c20 -4 37.333 -11 52 -21c35.333 -22 53 -55.667 53 -101c0 -44 -20.5 -82.167 -61.5 -114.5s-102.167 -48.5 -183.5 -48.5c-98.667 0 -171.334 30.667 -218.001 92c-21.333 27.333 -35.333 58.333 -42 93z" />
    <glyph glyph-name="afii10074" unicode="&#x438;" horiz-adv-x="630" 
d="M50 0v520h170v-210l-10 -80h10l185 290h175v-520h-170v210l10 80h-10l-185 -290h-175z" />
    <glyph glyph-name="afii10075" unicode="&#x439;" horiz-adv-x="630" 
d="M50 0v520h170v-210l-10 -80h10l185 290h175v-520h-170v210l10 80h-10l-185 -290h-175zM155 720h100.002c0 -13.333 5.16699 -24.166 15.5 -32.499s25.166 -12.5 44.499 -12.5s34.166 4.16699 44.499 12.5s15.5 19.166 15.5 32.499h100
c0 -43.333 -13.833 -77.5 -41.5 -102.5s-67.167 -37.5 -118.5 -37.5s-90.833 12.5 -118.5 37.5s-41.5 59.167 -41.5 102.5z" />
    <glyph glyph-name="afii10076" unicode="&#x43a;" horiz-adv-x="585" 
d="M50 0v520h170v-185h55l115 185h180l-150 -245l165 -275h-185l-115 190h-65v-190h-170z" />
    <glyph glyph-name="afii10077" unicode="&#x43b;" horiz-adv-x="570" 
d="M0 0l130 520h310l130 -520h-170l-95 375h-40l-95 -375h-170z" />
    <glyph glyph-name="afii10078" unicode="&#x43c;" horiz-adv-x="775" 
d="M50 0v520h225l105 -260h15l105 260h225v-520h-165v260l10 70h-10l-100 -230h-145l-100 230h-10l10 -70v-260h-165z" />
    <glyph glyph-name="afii10079" unicode="&#x43d;" horiz-adv-x="620" 
d="M50 0v520h170v-185h180v185h170v-520h-170v190h-180v-190h-170z" />
    <glyph glyph-name="afii10080" unicode="&#x43e;" horiz-adv-x="630" 
d="M25 260c0 75.333 28 140 84 194s124.667 81 206 81s150 -27 206 -81s84 -118.667 84 -194s-28 -140 -84 -194s-124.667 -81 -206 -81s-150 27 -206 81s-84 118.667 -84 194zM200 260c0 -39.333 10.833 -70.833 32.5 -94.5s49.167 -35.5 82.5 -35.5
s60.833 11.833 82.5 35.5s32.5 55.167 32.5 94.5s-10.833 70.833 -32.5 94.5s-49.167 35.5 -82.5 35.5s-60.833 -11.833 -82.5 -35.5s-32.5 -55.167 -32.5 -94.5z" />
    <glyph glyph-name="afii10081" unicode="&#x43f;" horiz-adv-x="615" 
d="M50 0v520h515v-520h-170v375h-175v-375h-170z" />
    <glyph glyph-name="afii10082" unicode="&#x440;" 
d="M50 -190v710h170v-70h10c9.33301 15.333 22 29.333 38 42c36.667 28.667 75.667 43 117 43c64 0 118.333 -25.167 163 -75.5s67 -116.833 67 -199.5s-22.333 -149.167 -67 -199.5s-99 -75.5 -163 -75.5c-42 0 -81 14 -117 42c-16 12.667 -28.667 27 -38 43h-10v-260h-170
zM220 260c0 -41.333 10 -73.333 30 -96s46.667 -34 80 -34s60 11.333 80 34s30 54.667 30 96s-10 73.333 -30 96s-46.667 34 -80 34s-60 -11.333 -80 -34s-30 -54.667 -30 -96z" />
    <glyph glyph-name="afii10083" unicode="&#x441;" horiz-adv-x="605" 
d="M25 260c0 74.667 27.332 139.166 81.999 193.499s120.667 81.5 198 81.5c96.667 0 172.334 -36 227.001 -108c22.667 -32 38.667 -67.667 48 -107h-175c-4 10 -11.333 21.667 -22 35c-22 23.333 -48 35 -78 35c-29.333 0 -54.166 -12 -74.499 -36
s-30.5 -55.333 -30.5 -94s10.167 -70 30.5 -94s45.166 -36 74.499 -36c34.667 0 61.334 11.667 80.001 35c7.33301 8.66699 14 20.334 20 35.001h175c-9.33301 -40 -25.333 -76 -48 -108c-52.667 -71.333 -128.334 -107 -227.001 -107c-77.333 0 -143.333 27.167 -198 81.5
s-82 118.833 -82 193.5z" />
    <glyph glyph-name="afii10084" unicode="&#x442;" horiz-adv-x="520" 
d="M5 375v145h510v-145h-170v-375h-170v375h-170z" />
    <glyph glyph-name="afii10085" unicode="&#x443;" horiz-adv-x="575" 
d="M10 520h175l90 -375h30l100 375h175l-200 -710h-175l55 190h-115z" />
    <glyph glyph-name="afii10086" unicode="&#x444;" horiz-adv-x="760" 
d="M25 260c0 72.667 25.5 134.5 76.5 185.5s115.5 79.167 193.5 84.5v180h170v-180c78 -5.33301 142.5 -33.5 193.5 -84.5s76.5 -112.833 76.5 -185.5s-25.5 -134.5 -76.5 -185.5s-115.5 -79.167 -193.5 -84.5v-180h-170v180c-78 5.33301 -142.5 33.5 -193.5 84.5
s-76.5 112.833 -76.5 185.5zM465 395v-270c30 6 54.167 20.5 72.5 43.5s27.5 53.5 27.5 91.5s-9.16699 68.5 -27.5 91.5s-42.5 37.5 -72.5 43.5zM195 260c0 -38 9.16699 -68.5 27.5 -91.5s42.5 -37.5 72.5 -43.5v270c-30 -6 -54.167 -20.5 -72.5 -43.5
s-27.5 -53.5 -27.5 -91.5z" />
    <glyph glyph-name="afii10087" unicode="&#x445;" horiz-adv-x="580" 
d="M0 0l145 270l-135 250h185l80 -180h30l80 180h185l-135 -250l145 -270h-190l-85 185h-30l-85 -185h-190z" />
    <glyph glyph-name="afii10088" unicode="&#x446;" horiz-adv-x="630" 
d="M50 0v520h170v-375h160v375h170v-375h65v-250h-160v105h-405z" />
    <glyph glyph-name="afii10089" unicode="&#x447;" horiz-adv-x="590" 
d="M40 320l0.000976562 200.001h170v-180c0 -46.667 25 -70 75 -70c24.667 0 45.667 4 63 12c5.33301 2 12.666 6.33301 21.999 13v225h170v-520h-170v155c-10.667 -6 -22 -11 -34 -15c-28.667 -10 -60.667 -15 -96 -15c-61.333 0 -110 17.167 -146 51.5
s-54 82.166 -54 143.499z" />
    <glyph glyph-name="afii10090" unicode="&#x448;" horiz-adv-x="840" 
d="M50 0v520h170v-375h115v375h170v-375h115v375h170v-520h-740z" />
    <glyph glyph-name="afii10091" unicode="&#x449;" horiz-adv-x="870" 
d="M50 0v520h170v-375h115v375h170v-375h115v375h170v-375h65v-245h-160v100h-645z" />
    <glyph glyph-name="afii10092" unicode="&#x44a;" horiz-adv-x="600" 
d="M5 375v144.998h270v-160h95c64 0 115 -17.167 153 -51.5s57 -77.166 57 -128.499s-19 -94.166 -57 -128.499s-89 -51.5 -153 -51.5h-265v375h-100zM275 129.998h75c40 0 60 16.667 60 50s-20 50 -60 50h-75v-100z" />
    <glyph glyph-name="afii10093" unicode="&#x44b;" horiz-adv-x="785" 
d="M565 0v520h170v-520h-170zM50 0v519.998h170v-160h90c64 0 115 -17.167 153 -51.5s57 -77.166 57 -128.499s-19 -94.166 -57 -128.499s-89 -51.5 -153 -51.5h-260zM220 129.998h70c40 0 60 16.667 60 50s-20 50 -60 50h-70v-100z" />
    <glyph glyph-name="afii10094" unicode="&#x44c;" horiz-adv-x="560" 
d="M50 0v519.998h170v-160h110c64 0 115 -17.167 153 -51.5s57 -77.166 57 -128.499s-19 -94.166 -57 -128.499s-89 -51.5 -153 -51.5h-280zM220 129.998h90c40 0 60 16.667 60 50s-20 50 -60 50h-90v-100z" />
    <glyph glyph-name="afii10095" unicode="&#x44d;" horiz-adv-x="605" 
d="M25 195l175.002 0.000976562c6 -14.667 12.667 -26.334 20 -35.001c18.667 -23.333 45.334 -35 80.001 -35c24.667 0 46 8.16699 64 24.5s30 36.5 36 60.5h-140v100h140c-6 24 -18 44.167 -36 60.5s-39.333 24.5 -64 24.5c-32.667 0 -59.334 -11.667 -80.001 -35
c-8 -10 -14.667 -21.667 -20 -35h-175c9.33301 40 24.666 75 45.999 105c51.333 70 127.666 105 228.999 105c77.333 0 143.333 -27.167 198 -81.5s82 -118.833 82 -193.5s-27.333 -139.167 -82 -193.5s-120.667 -81.5 -198 -81.5c-99.333 0 -175.333 35 -228 105
c-22 30 -37.667 65 -47 105z" />
    <glyph glyph-name="afii10096" unicode="&#x44e;" horiz-adv-x="840" 
d="M50 0l-0.000976562 519.999h160v-195h50c12.667 60.667 42.834 110.834 90.501 150.501s107.5 59.5 179.5 59.5c79.333 0 145.833 -26.333 199.5 -79s80.5 -118 80.5 -196s-26.833 -143.333 -80.5 -196s-120.167 -79 -199.5 -79c-70 0 -130 20.667 -180 62
s-80 89 -90 143h-50v-190h-160zM424.999 259.999c0 -41.333 9.66699 -73.333 29 -96s44.666 -34 75.999 -34s56.666 11.333 75.999 34s29 54.667 29 96s-9.66699 73.333 -29 96s-44.666 34 -75.999 34s-56.666 -11.333 -75.999 -34s-29 -54.667 -29 -96z" />
    <glyph glyph-name="afii10097" unicode="&#x44f;" horiz-adv-x="585" 
d="M25 0l110 190.001c-16.667 8 -31.667 18.667 -45 32c-30 30 -45 69.333 -45 118c0 51.333 19.333 94.166 58 128.499s91 51.5 157 51.5h275v-520h-170v155h-80l-79 -155h-181zM220 335.001c0 -33.333 20 -50 60 -50h85v100h-85c-40 0 -60 -16.667 -60 -50z" />
    <glyph glyph-name="afii10071" unicode="&#x451;" horiz-adv-x="625" 
d="M25 260c0 75.333 27.666 140.002 82.999 194.002s122.666 81 201.999 81c80.667 0 148.334 -27 203.001 -81s82 -118.667 82 -194v-30h-395c5.33301 -35.333 17.5 -62.5 36.5 -81.5s43.5 -28.5 73.5 -28.5c35.333 0 62 9 80 27c8 7.33301 14.667 16.666 20 27.999h180
c-12 -36.667 -30 -68.334 -54 -95.001c-52.667 -63.333 -128 -95 -226 -95c-79.333 0 -146.666 27 -201.999 81s-83 118.667 -83 194zM204.999 315.002h210.002c-6 24 -18.333 44.167 -37 60.5s-41.334 24.5 -68.001 24.5s-49.334 -8.16699 -68.001 -24.5
s-31 -36.5 -37 -60.5zM335.001 659.002c0 22.667 7.66699 41.667 23 57s34.333 23 57 23s41.667 -7.66699 57 -23s23 -34.333 23 -57s-7.66699 -41.667 -23 -57s-34.333 -23 -57 -23s-41.667 7.66699 -57 23s-23 34.333 -23 57zM130.001 659.002
c0 22.667 7.66699 41.667 23 57s34.333 23 57 23s41.667 -7.66699 57 -23s23 -34.333 23 -57s-7.66699 -41.667 -23 -57s-34.333 -23 -57 -23s-41.667 7.66699 -57 23s-23 34.333 -23 57z" />
    <glyph glyph-name="afii10099" unicode="&#x452;" horiz-adv-x="640" 
d="M5 485l0.000976562 135h65v80h170v-80h120v-135h-120v-140h10c9.33301 16 21.333 30 36 42c34 28.667 73.667 43 119 43c61.333 0 109.166 -18.5 143.499 -55.5s51.5 -90.167 51.5 -159.5v-405h-285v135h115v245c0 30 -8 53.333 -24 70s-38 25 -66 25
c-28.667 0 -52.5 -10.5 -71.5 -31.5s-28.5 -48.833 -28.5 -83.5v-170h-170v485h-65z" />
    <glyph glyph-name="afii10100" unicode="&#x453;" horiz-adv-x="470" 
d="M50 0v520h410v-145h-240v-375h-170zM200 585l75 155h170v-5l-130 -150h-115z" />
    <glyph glyph-name="afii10101" unicode="&#x454;" horiz-adv-x="605" 
d="M25 260c0 74.667 27.3359 139.166 82.0029 193.499s120.667 81.5 198 81.5c101.333 0 177.666 -35 228.999 -105c21.333 -30 36.666 -65 45.999 -105h-175c-5.33301 13.333 -12 25 -20 35c-20.667 23.333 -47.334 35 -80.001 35c-24.667 0 -46 -8.16699 -64 -24.5
s-30 -36.5 -36 -60.5h140v-100h-140c6 -24 18 -44.167 36 -60.5s39.333 -24.5 64 -24.5c34.667 0 61.334 11.667 80.001 35c7.33301 8.66699 14 20.334 20 35.001h175c-9.33301 -39.333 -25.333 -74.333 -48 -105c-52.667 -70 -128.334 -105 -227.001 -105
c-77.333 0 -143.333 27.167 -198 81.5s-82 118.833 -82 193.5z" />
    <glyph glyph-name="afii10102" unicode="&#x455;" horiz-adv-x="555" 
d="M20 170l170.003 0.00195312c2.66699 -10 8.33398 -19.333 17.001 -28c18 -18 44 -27 78 -27c46.667 0 70 11.667 70 35c0 10.667 -6.66699 19.167 -20 25.5s-33.333 12.833 -60 19.5c-22 5.33301 -36.333 8.66602 -43 9.99902s-20.667 5.16602 -42 11.499
s-36.5 12 -45.5 17s-21.333 12.333 -37 22s-27 19.667 -34 30s-13.5 23.333 -19.5 39s-9 32.5 -9 50.5c0 44 19.667 81.667 59 113s94.666 47 165.999 47c89.333 0 160 -29.333 212 -88c20.667 -25.333 35 -54.333 43 -87h-165c-4 10.667 -8.66699 19 -14 25
c-15.333 16.667 -37.333 25 -66 25c-40 0 -60 -11.667 -60 -35c0 -11.333 6.66699 -20 20 -26s33.666 -11.667 60.999 -17c68.667 -16 115 -30 139 -42c60 -29.333 90 -74.333 90 -135c0 -48 -21.167 -88.333 -63.5 -121s-102.833 -49 -181.5 -49
c-96.667 0 -170.334 30.667 -221.001 92c-22.667 27.333 -37.334 58.333 -44.001 93z" />
    <glyph glyph-name="afii10103" unicode="&#x456;" horiz-adv-x="280" 
d="M45 660c0 24 9 44.167 27 60.5s40.667 24.5 68 24.5s50 -8.16699 68 -24.5s27 -36.5 27 -60.5c0 -23.333 -9 -43.333 -27 -60s-40.667 -25 -68 -25s-50 8.33301 -68 25s-27 36.667 -27 60zM55 0v520h170v-520h-170z" />
    <glyph glyph-name="afii10104" unicode="&#x457;" horiz-adv-x="280" 
d="M55 0v520h170v-520h-170zM165 660c0 22.667 7.66699 41.667 23 57s34.333 23 57 23s41.667 -7.66699 57 -23s23 -34.333 23 -57s-7.66699 -41.667 -23 -57s-34.333 -23 -57 -23s-41.667 7.66699 -57 23s-23 34.333 -23 57zM-40 660c0 22.667 7.66699 41.667 23 57
s34.333 23 57 23s41.667 -7.66699 57 -23s23 -34.333 23 -57s-7.66699 -41.667 -23 -57s-34.333 -23 -57 -23s-41.667 7.66699 -57 23s-23 34.333 -23 57z" />
    <glyph glyph-name="afii10105" unicode="&#x458;" horiz-adv-x="280" 
d="M45 660c0 24 9 44.167 27 60.5s40.667 24.5 68 24.5s50 -8.16699 68 -24.5s27 -36.5 27 -60.5c0 -23.333 -9 -43.333 -27 -60s-40.667 -25 -68 -25s-50 8.33301 -68 25s-27 36.667 -27 60zM-80 -190v135h135v575h170v-710h-305z" />
    <glyph glyph-name="afii10106" unicode="&#x459;" horiz-adv-x="840" 
d="M0 0l135 519.998h385v-160h90c64 0 115 -17.167 153 -51.5s57 -77.166 57 -128.499s-19 -94.166 -57 -128.499s-89 -51.5 -153 -51.5h-260v375h-80l-95 -375h-175zM520 129.998h70c40 0 60 16.667 60 50s-20 50 -60 50h-70v-100z" />
    <glyph glyph-name="afii10107" unicode="&#x45a;" horiz-adv-x="885" 
d="M50 0v519.998h170v-160h175v160h170v-160h90c64 0 115 -17.167 153 -51.5s57 -77.166 57 -128.499s-19 -94.166 -57 -128.499s-89 -51.5 -153 -51.5h-260v215h-175v-215h-170zM565 129.998h70c40 0 60 16.667 60 50s-20 50 -60 50h-70v-100z" />
    <glyph glyph-name="afii10108" unicode="&#x45b;" horiz-adv-x="640" 
d="M5 485l0.000976562 135h65v80h170v-80h120v-135h-120v-140h10c9.33301 16 21.333 30 36 42c34 28.667 73.667 43 119 43c61.333 0 109.166 -18.5 143.499 -55.5s51.5 -90.167 51.5 -159.5v-215h-170v190c0 30 -8 53.333 -24 70s-38 25 -66 25
c-28.667 0 -52.5 -10.5 -71.5 -31.5s-28.5 -48.833 -28.5 -83.5v-170h-170v485h-65z" />
    <glyph glyph-name="afii10109" unicode="&#x45c;" horiz-adv-x="585" 
d="M50 0v520h170v-185h55l115 185h180l-150 -245l165 -275h-185l-115 190h-65v-190h-170zM235 585l75 155h170v-5l-130 -150h-115z" />
    <glyph glyph-name="afii10110" unicode="&#x45e;" horiz-adv-x="575" 
d="M10 520h175l90 -375h30l100 375h175l-200 -710h-175l55 190h-115zM135 720h100.002c0 -13.333 5.16699 -24.166 15.5 -32.499s25.166 -12.5 44.499 -12.5s34.166 4.16699 44.499 12.5s15.5 19.166 15.5 32.499h100c0 -43.333 -13.833 -77.5 -41.5 -102.5
s-67.167 -37.5 -118.5 -37.5s-90.833 12.5 -118.5 37.5s-41.5 59.167 -41.5 102.5z" />
    <glyph glyph-name="afii10193" unicode="&#x45f;" horiz-adv-x="620" 
d="M50 0v520h170v-375h180v375h170v-520h-180v-100h-160v100h-180z" />
    <glyph glyph-name="afii10050" unicode="&#x490;" horiz-adv-x="590" 
d="M65 0v700h325v100h185v-270h-325v-530h-185z" />
    <glyph glyph-name="afii10098" unicode="&#x491;" horiz-adv-x="470" 
d="M50 0v520h240v80h170v-225h-240v-375h-170z" />
    <glyph glyph-name="uni1E9E" unicode="&#x1e9e;" horiz-adv-x="760" 
d="M60 0v460c0 72 24.667 130 74 174s118 66 206 66h325v-160l-115 -100v-10c31.333 -4.66699 61.333 -16 90 -34c60 -38.667 90 -99 90 -181c0 -64.667 -22.5 -116.667 -67.5 -156s-109.167 -59 -192.5 -59h-115v170h105c53.333 0 80 20 80 60s-26.667 60 -80 60h-100v150
l100 90h-120c-63.333 0 -95 -26.667 -95 -80v-450h-185z" />
    <glyph glyph-name="endash" unicode="&#x2013;" horiz-adv-x="750" 
d="M50 205v130h650v-130h-650z" />
    <glyph glyph-name="emdash" unicode="&#x2014;" horiz-adv-x="940" 
d="M50 205v130h840v-130h-840z" />
    <glyph glyph-name="quoteleft" unicode="&#x2018;" horiz-adv-x="245" 
d="M30 540c0 60 14.999 105.832 44.999 137.499s71.667 47.5 125 47.5v-65c-24.667 0 -44.167 -6.5 -58.5 -19.5s-21.5 -29.833 -21.5 -50.5v-10l7 2c8 2 14 3 18 3c20.667 0 37.5 -7.16699 50.5 -21.5s19.5 -33.833 19.5 -58.5c0 -25.333 -8.66699 -46.666 -26 -63.999
s-38.666 -26 -63.999 -26c-29.333 0 -52.5 10.5 -69.5 31.5s-25.5 52.167 -25.5 93.5z" />
    <glyph glyph-name="quoteright" unicode="&#x2019;" horiz-adv-x="245" 
d="M30 635c0 25.333 8.66797 46.667 26.001 64s38.666 26 63.999 26c29.333 0 52.5 -10.5 69.5 -31.5s25.5 -52.167 25.5 -93.5c0 -60 -15 -105.833 -45 -137.5s-71.667 -47.5 -125 -47.5v65c24.667 0 44.167 6.5 58.5 19.5s21.5 29.833 21.5 50.5v10l-7 -3
c-6.66699 -1.33301 -12.667 -2 -18 -2c-20.667 0 -37.5 7.16699 -50.5 21.5s-19.5 33.833 -19.5 58.5z" />
    <glyph glyph-name="quotesinglbase" unicode="&#x201a;" horiz-adv-x="240" 
d="M30 75c0 25.333 8.66797 46.667 26.001 64s38.666 26 63.999 26c29.333 0 52.5 -10.5 69.5 -31.5s25.5 -52.167 25.5 -93.5c0 -60 -15 -105.833 -45 -137.5s-71.667 -47.5 -125 -47.5v65c24.667 0 44.167 6.5 58.5 19.5s21.5 29.833 21.5 50.5v10l-7 -3
c-6.66699 -1.33301 -12.667 -2 -18 -2c-20.667 0 -37.5 7.16699 -50.5 21.5s-19.5 33.833 -19.5 58.5z" />
    <glyph glyph-name="quotedblleft" unicode="&#x201c;" horiz-adv-x="465" 
d="M30 540c0 60 14.999 105.832 44.999 137.499s71.667 47.5 125 47.5v-65c-24.667 0 -44.167 -6.5 -58.5 -19.5s-21.5 -29.833 -21.5 -50.5v-10l7 2c8 2 14 3 18 3c20.667 0 37.5 -7.16699 50.5 -21.5s19.5 -33.833 19.5 -58.5c0 -25.333 -8.66699 -46.666 -26 -63.999
s-38.666 -26 -63.999 -26c-29.333 0 -52.5 10.5 -69.5 31.5s-25.5 52.167 -25.5 93.5zM249.999 539.999c0 60 14.999 105.832 44.999 137.499s71.667 47.5 125 47.5v-65c-24.667 0 -44.167 -6.5 -58.5 -19.5s-21.5 -29.833 -21.5 -50.5v-10l7 2c8 2 14 3 18 3
c20.667 0 37.5 -7.16699 50.5 -21.5s19.5 -33.833 19.5 -58.5c0 -25.333 -8.66699 -46.666 -26 -63.999s-38.666 -26 -63.999 -26c-29.333 0 -52.5 10.5 -69.5 31.5s-25.5 52.167 -25.5 93.5z" />
    <glyph glyph-name="quotedblright" unicode="&#x201d;" horiz-adv-x="465" 
d="M30 635c0 25.333 8.66797 46.667 26.001 64s38.666 26 63.999 26c29.333 0 52.5 -10.5 69.5 -31.5s25.5 -52.167 25.5 -93.5c0 -60 -15 -105.833 -45 -137.5s-71.667 -47.5 -125 -47.5v65c24.667 0 44.167 6.5 58.5 19.5s21.5 29.833 21.5 50.5v10l-7 -3
c-6.66699 -1.33301 -12.667 -2 -18 -2c-20.667 0 -37.5 7.16699 -50.5 21.5s-19.5 33.833 -19.5 58.5zM250.001 635.001c0 25.333 8.66797 46.667 26.001 64s38.666 26 63.999 26c29.333 0 52.5 -10.5 69.5 -31.5s25.5 -52.167 25.5 -93.5c0 -60 -15 -105.833 -45 -137.5
s-71.667 -47.5 -125 -47.5v65c24.667 0 44.167 6.5 58.5 19.5s21.5 29.833 21.5 50.5v10l-7 -3c-6.66699 -1.33301 -12.667 -2 -18 -2c-20.667 0 -37.5 7.16699 -50.5 21.5s-19.5 33.833 -19.5 58.5z" />
    <glyph glyph-name="quotedblbase" unicode="&#x201e;" horiz-adv-x="460" 
d="M30 75c0 25.333 8.66797 46.667 26.001 64s38.666 26 63.999 26c29.333 0 52.5 -10.5 69.5 -31.5s25.5 -52.167 25.5 -93.5c0 -60 -15 -105.833 -45 -137.5s-71.667 -47.5 -125 -47.5v65c24.667 0 44.167 6.5 58.5 19.5s21.5 29.833 21.5 50.5v10l-7 -3
c-6.66699 -1.33301 -12.667 -2 -18 -2c-20.667 0 -37.5 7.16699 -50.5 21.5s-19.5 33.833 -19.5 58.5zM250.001 75.001c0 25.333 8.66797 46.667 26.001 64s38.666 26 63.999 26c29.333 0 52.5 -10.5 69.5 -31.5s25.5 -52.167 25.5 -93.5c0 -60 -15 -105.833 -45 -137.5
s-71.667 -47.5 -125 -47.5v65c24.667 0 44.167 6.5 58.5 19.5s21.5 29.833 21.5 50.5v10l-7 -3c-6.66699 -1.33301 -12.667 -2 -18 -2c-20.667 0 -37.5 7.16699 -50.5 21.5s-19.5 33.833 -19.5 58.5z" />
    <glyph glyph-name="dagger" unicode="&#x2020;" horiz-adv-x="470" 
d="M35 375v145h120v180h160v-180h120v-145h-120v-375h-160v375h-120z" />
    <glyph glyph-name="daggerdbl" unicode="&#x2021;" horiz-adv-x="470" 
d="M35 125v145h120v160h-120v145h120v125h160v-125h120v-145h-120v-160h120v-145h-120v-125h-160v125h-120z" />
    <glyph glyph-name="bullet" unicode="&#x2022;" horiz-adv-x="470" 
d="M120 290c0 33.333 11 60.833 33 82.5s49.333 32.5 82 32.5s60 -10.833 82 -32.5s33 -49.167 33 -82.5c0 -32 -11.167 -59.167 -33.5 -81.5s-49.5 -33.5 -81.5 -33.5s-59.167 11.167 -81.5 33.5s-33.5 49.5 -33.5 81.5z" />
    <glyph glyph-name="ellipsis" unicode="&#x2026;" horiz-adv-x="820" 
d="M30 75c0 25.333 8.66699 46.666 26 63.999s38.666 26 63.999 26s46.666 -8.66699 63.999 -26s26 -38.666 26 -63.999s-8.66699 -46.666 -26 -63.999s-38.666 -26 -63.999 -26s-46.666 8.66699 -63.999 26s-26 38.666 -26 63.999zM320 75
c0 25.333 8.66699 46.666 26 63.999s38.666 26 63.999 26s46.666 -8.66699 63.999 -26s26 -38.666 26 -63.999s-8.66699 -46.666 -26 -63.999s-38.666 -26 -63.999 -26s-46.666 8.66699 -63.999 26s-26 38.666 -26 63.999zM610 75c0 25.333 8.66699 46.666 26 63.999
s38.666 26 63.999 26s46.666 -8.66699 63.999 -26s26 -38.666 26 -63.999s-8.66699 -46.666 -26 -63.999s-38.666 -26 -63.999 -26s-46.666 8.66699 -63.999 26s-26 38.666 -26 63.999z" />
    <glyph glyph-name="perthousand" unicode="&#x2030;" horiz-adv-x="1210" 
d="M35 540c0 48 16.667 88.333 50 121s75 49 125 49s91.667 -16.333 125 -49s50 -73 50 -121s-16.667 -88.333 -50 -121s-75 -49 -125 -49s-91.667 16.333 -125 49s-50 73 -50 121zM140 0l420 700h130l-420 -700h-130zM150 540c0 -17.333 5.66699 -31.666 17 -42.999
s25.666 -17 42.999 -17s31.666 5.66699 42.999 17s17 25.666 17 42.999s-5.66699 31.666 -17 42.999s-25.666 17 -42.999 17s-31.666 -5.66699 -42.999 -17s-17 -25.666 -17 -42.999zM825 160c0 48 16.667 88.333 50 121s75 49 125 49s91.667 -16.333 125 -49
s50 -73 50 -121s-16.667 -88.333 -50 -121s-75 -49 -125 -49s-91.667 16.333 -125 49s-50 73 -50 121zM435 160c0 48 16.667 88.333 50 121s75 49 125 49s91.667 -16.333 125 -49s50 -73 50 -121s-16.667 -88.333 -50 -121s-75 -49 -125 -49s-91.667 16.333 -125 49
s-50 73 -50 121zM940 160c0 -17.333 5.66699 -31.666 17 -42.999s25.666 -17 42.999 -17s31.666 5.66699 42.999 17s17 25.666 17 42.999s-5.66699 31.666 -17 42.999s-25.666 17 -42.999 17s-31.666 -5.66699 -42.999 -17s-17 -25.666 -17 -42.999zM550 160
c0 -17.333 5.66699 -31.666 17 -42.999s25.666 -17 42.999 -17s31.666 5.66699 42.999 17s17 25.666 17 42.999s-5.66699 31.666 -17 42.999s-25.666 17 -42.999 17s-31.666 -5.66699 -42.999 -17s-17 -25.666 -17 -42.999z" />
    <glyph glyph-name="guilsinglleft" unicode="&#x2039;" horiz-adv-x="410" 
d="M20 260l255 260l100 -100l-165 -160l165 -160l-100 -100z" />
    <glyph glyph-name="guilsinglright" unicode="&#x203a;" horiz-adv-x="410" 
d="M35 100l165 160l-165 160l100 100l255 -260l-255 -260z" />
    <glyph glyph-name="fraction" unicode="&#x2044;" horiz-adv-x="150" 
d="M-200 0l420 700h130l-420 -700h-130z" />
    <glyph glyph-name="zerosuperior" unicode="&#x2070;" horiz-adv-x="390" 
d="M25 630c0 52 16.333 95 49 129s73 51 121 51s88.333 -17 121 -51s49 -77 49 -129s-16.333 -95 -49 -129s-73 -51 -121 -51s-88.333 17 -121 51s-49 77 -49 129zM145 630c0 -26.667 4.83301 -46.667 14.5 -60s21.834 -20 36.501 -20c13.333 0 24.833 6.83301 34.5 20.5
s14.5 33.5 14.5 59.5s-4.83301 45.833 -14.5 59.5s-21.167 20.5 -34.5 20.5c-14.667 0 -26.834 -6.66699 -36.501 -20s-14.5 -33.333 -14.5 -60z" />
    <glyph glyph-name="foursuperior" unicode="&#x2074;" horiz-adv-x="350" 
d="M10 520v90l120 190h120l-115 -180h50l25 50h90v-50h40v-100h-40v-60h-115v60h-175z" />
    <glyph glyph-name="fivesuperior" unicode="&#x2075;" horiz-adv-x="365" 
d="M30 570l114.999 -0.000976562c0.666992 -5.33301 3 -9.66602 7 -12.999c8 -8 19 -12 33 -12c12 0 21.667 3.33301 29 10s11 15 11 25c0 8 -3.66699 15 -11 21s-17 9 -29 9c-12.667 0 -21.667 -1.66699 -27 -5l-8 -5l-100 10l15 190h245v-90h-145l-5 -45h1l14 7
c14.667 5.33301 29.667 8 45 8c39.333 0 70 -10 92 -30s33 -46.667 33 -80c0 -34 -13.833 -62.5 -41.5 -85.5s-65.5 -34.5 -113.5 -34.5c-63.333 0 -108.666 20 -135.999 60c-12 17.333 -20 37.333 -24 60z" />
    <glyph glyph-name="sixsuperior" unicode="&#x2076;" horiz-adv-x="350" 
d="M20 575c0 44 20 89 60 135l75 90h125l-85 -100l-35 -20v-5l16 7c14.667 5.33301 27.667 8 39 8c32 0 59.167 -11.167 81.5 -33.5s33.5 -49.5 33.5 -81.5c0 -36.667 -13.667 -66.667 -41 -90s-65.333 -35 -114 -35s-86.667 11.667 -114 35s-41 53.333 -41 90zM135 575
c0 -10 3.66699 -18.333 11 -25s17 -10 29 -10s21.667 3.33301 29 10s11 15 11 25c0 10.667 -3.66699 19.5 -11 26.5s-17 10.5 -29 10.5s-21.667 -3.5 -29 -10.5s-11 -15.833 -11 -26.5z" />
    <glyph glyph-name="sevensuperior" unicode="&#x2077;" horiz-adv-x="315" 
d="M15 700v100h290v-100l-130 -240h-120l125 230v10h-165z" />
    <glyph glyph-name="eightsuperior" unicode="&#x2078;" horiz-adv-x="390" 
d="M25 550c0 29.333 12.332 52.333 36.999 69c12.667 8 25.334 13.333 38.001 16v5c-10.667 2.66699 -20.667 7.66699 -30 15c-20 14.667 -30 34.667 -30 60c0 27.333 12.833 50 38.5 68s64.5 27 116.5 27c51.333 0 90 -9 116 -27s39 -40.667 39 -68
c0 -25.333 -10 -45.333 -30 -60c-9.33301 -7.33301 -19.333 -12.333 -30 -15v-5c12.667 -2.66699 25 -8 37 -16c25.333 -17.333 38 -40.333 38 -69c0 -28 -14.333 -51.667 -43 -71s-71 -29 -127 -29s-98.333 9.66699 -127 29s-43 43 -43 71zM154.999 695
c0 -16.667 13.333 -25 40 -25s40 8.33301 40 25s-13.333 25 -40 25s-40 -8.33301 -40 -25zM144.999 565c0 -8 4.16699 -15 12.5 -21s20.833 -9 37.5 -9s29.167 3 37.5 9s12.5 13 12.5 21s-4.16699 15 -12.5 21s-20.833 9 -37.5 9s-29.167 -3 -37.5 -9s-12.5 -13 -12.5 -21z
" />
    <glyph glyph-name="ninesuperior" unicode="&#x2079;" horiz-adv-x="350" 
d="M20 685c0 36.667 13.667 66.667 41 90s65.333 35 114 35s86.667 -11.667 114 -35s41 -53.333 41 -90c0 -44 -20 -89 -60 -135l-75 -90h-125l85 100l35 20v5l-16 -8c-12.667 -4.66699 -25.667 -7 -39 -7c-32 0 -59.167 11.167 -81.5 33.5s-33.5 49.5 -33.5 81.5zM135 685
c0 -10.667 3.66699 -19.5 11 -26.5s17 -10.5 29 -10.5s21.667 3.5 29 10.5s11 15.833 11 26.5c0 10 -3.66699 18.333 -11 25s-17 10 -29 10s-21.667 -3.33301 -29 -10s-11 -15 -11 -25z" />
    <glyph glyph-name="zeroinferior" unicode="&#x2080;" horiz-adv-x="390" 
d="M25 70c0 52 16.333 95 49 129s73 51 121 51s88.333 -17 121 -51s49 -77 49 -129s-16.333 -95 -49 -129s-73 -51 -121 -51s-88.333 17 -121 51s-49 77 -49 129zM145 70c0 -26.667 4.83301 -46.667 14.5 -60s21.834 -20 36.501 -20c13.333 0 24.833 6.83301 34.5 20.5
s14.5 33.5 14.5 59.5s-4.83301 45.833 -14.5 59.5s-21.167 20.5 -34.5 20.5c-14.667 0 -26.834 -6.66699 -36.501 -20s-14.5 -33.333 -14.5 -60z" />
    <glyph glyph-name="oneinferior" unicode="&#x2081;" horiz-adv-x="360" 
d="M40 -100v100h90v130l-80 -45v105l90 50h110v-240h80v-100h-290z" />
    <glyph glyph-name="twoinferior" unicode="&#x2082;" horiz-adv-x="370" 
d="M30 -100v100l80 40c44 22 72.5 38.167 85.5 48.5s19.5 20.833 19.5 31.5c0 8 -3.33301 15 -10 21s-15 9 -25 9c-12 0 -23 -5 -33 -15c-4 -6.66699 -6.33301 -11.667 -7 -15h-115c4.66699 23.333 14 45 28 65c31.333 43.333 77 65 137 65c48 0 85 -10.667 111 -32
s39 -49 39 -83c0 -60.667 -40 -104 -120 -130l-15 -5l-15 -5v-5l45 10h105v-100h-310z" />
    <glyph glyph-name="threeinferior" unicode="&#x2083;" horiz-adv-x="355" 
d="M20 10h114.999c2 -6 5 -11 9 -15c8.66699 -10 20.667 -15 36 -15c10 0 18.333 3 25 9s10 13 10 21c0 10 -3.66699 18.333 -11 25s-17 10 -29 10h-70v60l85 50v5l-40 -10h-110v90h275v-85l-75 -45l-10 -5v-5h1c32 0 57.333 -8.83301 76 -26.5s28 -40.5 28 -68.5
c0 -32 -13.167 -59.167 -39.5 -81.5s-63.166 -33.5 -110.499 -33.5c-62 0 -108 20 -138 60c-12.667 17.333 -21.667 37.333 -27 60z" />
    <glyph glyph-name="fourinferior" unicode="&#x2084;" horiz-adv-x="350" 
d="M10 -40v90l120 190h120l-115 -180h50l25 50h90v-50h40v-100h-40v-60h-115v60h-175z" />
    <glyph glyph-name="fiveinferior" unicode="&#x2085;" horiz-adv-x="365" 
d="M30 10l114.999 -0.000976562c0.666992 -5.33301 3 -9.66602 7 -12.999c8 -8 19 -12 33 -12c12 0 21.667 3.33301 29 10s11 15 11 25c0 8 -3.66699 15 -11 21s-17 9 -29 9c-12.667 0 -21.667 -1.66699 -27 -5l-8 -5l-100 10l15 190h245v-90h-145l-5 -45h1l14 7
c14.667 5.33301 29.667 8 45 8c39.333 0 70 -10 92 -30s33 -46.667 33 -80c0 -34 -13.833 -62.5 -41.5 -85.5s-65.5 -34.5 -113.5 -34.5c-63.333 0 -108.666 20 -135.999 60c-12 17.333 -20 37.333 -24 60z" />
    <glyph glyph-name="sixinferior" unicode="&#x2086;" horiz-adv-x="350" 
d="M20 15c0 44 20 89 60 135l75 90h125l-85 -100l-35 -20v-5l16 7c14.667 5.33301 27.667 8 39 8c32 0 59.167 -11.167 81.5 -33.5s33.5 -49.5 33.5 -81.5c0 -36.667 -13.667 -66.667 -41 -90s-65.333 -35 -114 -35s-86.667 11.667 -114 35s-41 53.333 -41 90zM135 15
c0 -10 3.66699 -18.333 11 -25s17 -10 29 -10s21.667 3.33301 29 10s11 15 11 25c0 10.667 -3.66699 19.5 -11 26.5s-17 10.5 -29 10.5s-21.667 -3.5 -29 -10.5s-11 -15.833 -11 -26.5z" />
    <glyph glyph-name="seveninferior" unicode="&#x2087;" horiz-adv-x="315" 
d="M15 140v100h290v-100l-130 -240h-120l125 230v10h-165z" />
    <glyph glyph-name="eightinferior" unicode="&#x2088;" horiz-adv-x="390" 
d="M25 -10c0 29.333 12.332 52.333 36.999 69c12.667 8 25.334 13.333 38.001 16v5c-10.667 2.66699 -20.667 7.66699 -30 15c-20 14.667 -30 34.667 -30 60c0 27.333 12.833 50 38.5 68s64.5 27 116.5 27c51.333 0 90 -9 116 -27s39 -40.667 39 -68
c0 -25.333 -10 -45.333 -30 -60c-9.33301 -7.33301 -19.333 -12.333 -30 -15v-5c12.667 -2.66699 25 -8 37 -16c25.333 -17.333 38 -40.333 38 -69c0 -28 -14.333 -51.667 -43 -71s-71 -29 -127 -29s-98.333 9.66699 -127 29s-43 43 -43 71zM154.999 135
c0 -16.667 13.333 -25 40 -25s40 8.33301 40 25s-13.333 25 -40 25s-40 -8.33301 -40 -25zM144.999 5c0 -8 4.16699 -15 12.5 -21s20.833 -9 37.5 -9s29.167 3 37.5 9s12.5 13 12.5 21s-4.16699 15 -12.5 21s-20.833 9 -37.5 9s-29.167 -3 -37.5 -9s-12.5 -13 -12.5 -21z
" />
    <glyph glyph-name="nineinferior" unicode="&#x2089;" horiz-adv-x="350" 
d="M20 125c0 36.667 13.667 66.667 41 90s65.333 35 114 35s86.667 -11.667 114 -35s41 -53.333 41 -90c0 -44 -20 -89 -60 -135l-75 -90h-125l85 100l35 20v5l-16 -8c-12.667 -4.66699 -25.667 -7 -39 -7c-32 0 -59.167 11.167 -81.5 33.5s-33.5 49.5 -33.5 81.5zM135 125
c0 -10.667 3.66699 -19.5 11 -26.5s17 -10.5 29 -10.5s21.667 3.5 29 10.5s11 15.833 11 26.5c0 10 -3.66699 18.333 -11 25s-17 10 -29 10s-21.667 -3.33301 -29 -10s-11 -15 -11 -25z" />
    <glyph glyph-name="Euro" unicode="&#x20ac;" horiz-adv-x="865" 
d="M15 225l0.000976562 90.001h60c-1.33301 16 -2 27.667 -2 35s0.666992 19 2 35h-60v90h80c25.333 69.333 69.5 127.5 132.5 174.5s142.167 70.5 237.5 70.5c126 0 225 -46 297 -138c32 -42 54.667 -87.667 68 -137h-190c-10 20.667 -22.333 38 -37 52
c-35.333 35.333 -81.333 53 -138 53c-44.667 0 -85 -12.667 -121 -38c-13.333 -10 -26.333 -22.333 -39 -37h165v-90h-200c-1.33301 -16 -2 -27.667 -2 -35s0.666992 -19 2 -35h200v-90h-165c11.333 -14.667 24.333 -27.334 39 -38.001
c35.333 -24.667 75.666 -37 120.999 -37c62.667 0 111.334 20 146.001 60c16 18 27.333 38 34 60h190c-14.667 -54 -38.334 -102.333 -71.001 -145c-71.333 -96.667 -171 -145 -299 -145c-95.333 0 -174.5 23.5 -237.5 70.5s-107.167 105.167 -132.5 174.5h-80z" />
    <glyph glyph-name="uni20B4" unicode="&#x20b4;" horiz-adv-x="690" 
d="M45 375v90.001h370c4 3.33301 7.33301 7 10 11c6.66699 9.33301 10 20.666 10 33.999c0 18.667 -9 35 -27 49s-42.333 21 -73 21c-37.333 0 -67 -11.667 -89 -35c-9.33301 -11.333 -16.333 -23 -21 -35h-180c8.66699 38.667 25.667 73.667 51 105
c59.333 70 144 105 254 105c91.333 0 160.833 -16.667 208.5 -50s71.5 -73 71.5 -119c0 -20 -5 -40.667 -15 -62c-4.66699 -8.66699 -9.66699 -16.667 -15 -24h45v-90h-600zM45 235.001v89.999h600v-90h-370c-2.66699 -2 -6 -5.66699 -10 -11
c-6.66699 -10.667 -10 -22 -10 -34c0 -18.667 9 -35 27 -49s42.333 -21 73 -21c40 0 69.667 11.667 89 35c8.66699 10 15.667 21.667 21 35h180c-8.66699 -38.667 -25.667 -73.667 -51 -105c-56 -70 -140.667 -105 -254 -105c-91.333 0 -160.833 16.667 -208.5 50
s-71.5 73 -71.5 119c0 22.667 5 43.334 15 62.001c4 8.66699 9 16.667 15 24h-45z" />
    <glyph glyph-name="uni20BD" unicode="&#x20bd;" horiz-adv-x="715" 
d="M25 80v120h75v60h-75v130h75v310h311c92 0 161.5 -19.667 208.5 -59s70.5 -93 70.5 -161s-23.667 -121.667 -71 -161s-117 -59 -209 -59h-125v-60h215v-120h-215v-80h-185v80h-75zM285 390h115c31.333 0 55.833 7.5 73.5 22.5s26.5 34.167 26.5 57.5
s-8.83301 42.5 -26.5 57.5s-42.167 22.5 -73.5 22.5h-115v-160z" />
    <glyph glyph-name="afii61352" unicode="&#x2116;" horiz-adv-x="1135" 
d="M770 540c0 48 16.333 88.333 49 121s73 49 121 49s88.333 -16.333 121 -49s49 -73 49 -121s-16.333 -88.333 -49 -121s-73 -49 -121 -49s-88.333 16.333 -121 49s-49 73 -49 121zM65 0v700h225l190 -350l45 -90h10l-15 90v350h185v-700h-225l-190 350l-45 90h-10l15 -90
v-350h-185zM885 540c0 -17.333 5.33301 -31.666 16 -42.999s23.667 -17 39 -17s28.333 5.66699 39 17s16 25.666 16 42.999s-5.33301 31.666 -16 42.999s-23.667 17 -39 17s-28.333 -5.66699 -39 -17s-16 -25.666 -16 -42.999zM785 200v120h310v-120h-310z" />
    <glyph glyph-name="trademark" unicode="&#x2122;" horiz-adv-x="850" 
d="M370 380v320h168l52 -135h10l52 135h168v-320h-130v130l10 60h-10l-50 -120h-90l-50 120h-10l10 -60v-130h-130zM5 585v115h330v-115h-100v-205h-130v205h-100z" />
    <glyph glyph-name="arrowleft" unicode="&#x2190;" horiz-adv-x="900" 
d="M95 335v20l210 210h20v-170h480v-100h-480v-170h-20z" />
    <glyph glyph-name="arrowup" unicode="&#x2191;" horiz-adv-x="900" 
d="M230 470v20l210 210h20l210 -210v-20h-170v-470h-100v470h-170z" />
    <glyph glyph-name="arrowright" unicode="&#x2192;" horiz-adv-x="900" 
d="M95 295v100h480v170h20l210 -210v-20l-210 -210h-20v170h-480z" />
    <glyph glyph-name="arrowdown" unicode="&#x2193;" horiz-adv-x="900" 
d="M230 210v20h170v470h100v-470h170v-20l-210 -210h-20z" />
    <glyph glyph-name="uni2196" unicode="&#x2196;" horiz-adv-x="900" 
d="M180 305v305l15 15h305v-20l-115 -115l335 -335l-70 -70l-335 335l-115 -115h-20z" />
    <glyph glyph-name="uni2197" unicode="&#x2197;" horiz-adv-x="900" 
d="M180 155l335 335l-115 115v20h305l15 -15v-305h-20l-115 115l-335 -335z" />
    <glyph glyph-name="uni2198" unicode="&#x2198;" horiz-adv-x="900" 
d="M180 565l70 70l335 -335l115 115h20v-305l-15 -15h-305v20l115 115z" />
    <glyph glyph-name="uni2199" unicode="&#x2199;" horiz-adv-x="900" 
d="M180 110v305h20l115 -115l335 335l70 -70l-335 -335l115 -115v-20h-305z" />
    <glyph glyph-name="minus" unicode="&#x2212;" horiz-adv-x="540" 
d="M55 200v140h430v-140h-430z" />
    <glyph glyph-name="approxequal" unicode="&#x2248;" horiz-adv-x="540" 
d="M45 295v39c0 40 11 71.833 33 95.5s51 35.5 87 35.5c33.333 0 67.333 -9 102 -27c31.333 -18.667 54 -28 68 -28c10 0 18.333 3.33301 25 10s10 15 10 25v15h125v-39c0 -40 -11 -71.833 -33 -95.5s-51 -35.5 -87 -35.5c-36.667 0 -70.667 9.33301 -102 28l-14 8
c-6 3.33301 -10.833 5.83301 -14.5 7.5l-12.5 5.5c-4.66699 2 -9.16699 3.5 -13.5 4.5s-8.83301 1.5 -13.5 1.5c-10 0 -18.333 -3.33301 -25 -10s-10 -15 -10 -25v-15h-125zM45 85v39c0 40 11 71.833 33 95.5s51 35.5 87 35.5c33.333 0 67.333 -9 102 -27
c31.333 -18.667 54 -28 68 -28c10 0 18.333 3.33301 25 10s10 15 10 25v15h125v-39c0 -40 -11 -71.833 -33 -95.5s-51 -35.5 -87 -35.5c-36.667 0 -70.667 9.33301 -102 28l-14 8c-6 3.33301 -10.833 5.83301 -14.5 7.5l-12.5 5.5c-4.66699 2 -9.16699 3.5 -13.5 4.5
s-8.83301 1.5 -13.5 1.5c-10 0 -18.333 -3.33301 -25 -10s-10 -15 -10 -25v-15h-125z" />
    <glyph glyph-name="notequal" unicode="&#x2260;" horiz-adv-x="540" 
d="M65 100v135h120l30 70h-150v135h210l45 100h140l-45 -100h60v-135h-120l-30 -70h150v-135h-210l-45 -100h-140l45 100h-60z" />
    <glyph glyph-name="lessequal" unicode="&#x2264;" horiz-adv-x="540" 
d="M55 280v160l425 150v-130l-280 -95v-10l280 -95v-130zM55 110v125l425 -150v-125z" />
    <glyph glyph-name="greaterequal" unicode="&#x2265;" horiz-adv-x="540" 
d="M60 130v130l280 95v10l-280 95v130l425 -150v-160zM60 -40v125l425 150v-125z" />
    <glyph glyph-name="commaaccent" unicode="&#xf6c3;" horiz-adv-x="225" 
d="M30 -145c0 20 7.83203 37.5 23.499 52.5s34.5 22.5 56.5 22.5c56.667 0 85 -41.667 85 -125c0 -38 -14 -70 -42 -96s-64 -39 -108 -39v60c22 0 39.167 4.66699 51.5 14s18.5 21.333 18.5 36v10l-7 -3c-6.66699 -1.33301 -12.667 -2 -18 -2
c-19.333 0 -34.166 6.16699 -44.499 18.5s-15.5 29.5 -15.5 51.5z" />
    <glyph glyph-name="cyrBreve" unicode="&#xf6d1;" horiz-adv-x="420" 
d="M30 915h119.998c0 -36.667 20 -55 60 -55s60 18.333 60 55h120c0 -48.667 -15.667 -87.5 -47 -116.5s-75.666 -43.5 -132.999 -43.5s-101.666 14.5 -132.999 43.5s-47 67.833 -47 116.5z" />
    <glyph glyph-name="cyrbreve" unicode="&#xf6d4;" horiz-adv-x="380" 
d="M30 695h100.002c0 -13.333 5.16699 -24.166 15.5 -32.499s25.166 -12.5 44.499 -12.5s34.166 4.16699 44.499 12.5s15.5 19.166 15.5 32.499h100c0 -43.333 -13.833 -77.5 -41.5 -102.5s-67.167 -37.5 -118.5 -37.5s-90.833 12.5 -118.5 37.5s-41.5 59.167 -41.5 102.5z
" />
    <glyph glyph-name="zero.oldstyle" unicode="&#xf730;" horiz-adv-x="640" 
d="M30 260c0 78.667 27.167 144.167 81.5 196.5s123.833 78.5 208.5 78.5s154.167 -26.167 208.5 -78.5s81.5 -117.833 81.5 -196.5s-27.167 -144.167 -81.5 -196.5s-123.833 -78.5 -208.5 -78.5s-154.167 26.167 -208.5 78.5s-81.5 117.833 -81.5 196.5zM205 260
c0 -41.333 10.833 -74.166 32.5 -98.499s49.167 -36.5 82.5 -36.5s60.833 12.167 82.5 36.5s32.5 57.166 32.5 98.499s-10.833 74.166 -32.5 98.499s-49.167 36.5 -82.5 36.5s-60.833 -12.167 -82.5 -36.5s-32.5 -57.166 -32.5 -98.499z" />
    <glyph glyph-name="one.oldstyle" unicode="&#xf731;" horiz-adv-x="360" 
d="M30 265v165l130 90h150v-520h-170v345z" />
    <glyph glyph-name="two.oldstyle" unicode="&#xf732;" horiz-adv-x="555" 
d="M64 435c46 66.667 118 100.001 216 100.001c72 0 129.167 -17.5 171.5 -52.5s63.5 -77.5 63.5 -127.5c0 -92 -55 -157 -165 -195l-30 -10l-40 -15v-10l70 15h180v-140h-500v124l185 101c50 26.667 83.333 48 100 64s25 33 25 51c0 16 -6.16699 29.167 -18.5 39.5
s-29.5 15.5 -51.5 15.5c-29.333 0 -51.333 -10 -66 -30c-6 -8 -10.667 -18 -14 -30h-170c8 37.333 22.667 70.666 44 99.999z" />
    <glyph glyph-name="three.oldstyle" unicode="&#xf733;" horiz-adv-x="570" 
d="M5 15l170.001 0.00292969c4 -14.667 10 -28 18 -40c20 -26.667 47.333 -40 82 -40c29.333 0 52.5 7.66699 69.5 23s25.5 36 25.5 62c0 23.333 -9 42.5 -27 57.5s-44 22.5 -78 22.5h-100v140h100c27.333 0 49.166 7.5 65.499 22.5s24.5 34.167 24.5 57.5
c0 20 -7.83301 37.5 -23.5 52.5s-34.5 22.5 -56.5 22.5c-31.333 0 -55.666 -10 -72.999 -30c-7.33301 -10 -13 -20 -17 -30h-165c6.66699 36.667 21 70 43 100c46 66.667 116.667 100 212 100c74.667 0 135 -19.333 181 -58s69 -84.334 69 -137.001
c0 -54.667 -19.333 -96 -58 -124c-18 -12.667 -37 -21.334 -57 -26.001v-10c24 -4.66699 46.333 -14.334 67 -29.001c45.333 -30.667 68 -77.667 68 -141c0 -62.667 -23.833 -114.167 -71.5 -154.5s-113.834 -60.5 -198.501 -60.5c-108.667 0 -185.667 36.667 -231 110
c-20.667 32 -33.667 68.667 -39 110z" />
    <glyph glyph-name="four.oldstyle" unicode="&#xf734;" horiz-adv-x="590" 
d="M10 0v145l215 375h190l-215 -380h120l40 150h130v-150h95v-140h-95v-190h-170v190h-310z" />
    <glyph glyph-name="five.oldstyle" unicode="&#xf735;" horiz-adv-x="590" 
d="M25 25l170.001 -0.000976562c2 -16 6.66699 -30.333 14 -43c17.333 -28 46 -42 86 -42c30 0 54.167 9.5 72.5 28.5s27.5 44.5 27.5 76.5s-9.16699 57.5 -27.5 76.5s-42.5 28.5 -72.5 28.5c-28.667 0 -52.334 -9.33301 -71.001 -28
c-7.33301 -7.33301 -13.666 -16.333 -18.999 -27h-155l25 425h452v-140h-302l-10 -140h10c6.66699 6.66699 16 13.334 28 20.001c23.333 13.333 54 20 92 20c63.333 0 116.666 -22.333 159.999 -67s65 -100.667 65 -168c0 -74 -24.833 -134.167 -74.5 -180.5
s-116.5 -69.5 -200.5 -69.5c-111.333 0 -189.333 38.333 -234 115c-20 32.667 -32 71 -36 115z" />
    <glyph glyph-name="six.oldstyle" unicode="&#xf736;" horiz-adv-x="620" 
d="M25 250c0 48 9.00098 91.501 27.001 130.501s50.667 88.833 98 149.5l130 170h195l-155 -200l-55 -30v-10c5.33301 3.33301 13.333 6.66602 24 9.99902c21.333 6.66699 43.333 10 66 10c67.333 0 124.166 -23.167 170.499 -69.5s69.5 -103.166 69.5 -170.499
c0 -68.667 -27.333 -128.334 -82 -179.001s-122.334 -76 -203.001 -76c-81.333 0 -149.166 25.833 -203.499 77.5s-81.5 114.167 -81.5 187.5zM200.001 235.001c0 -32.667 10.167 -59.167 30.5 -79.5s46.833 -30.5 79.5 -30.5s59.167 10.167 79.5 30.5
s30.5 46.833 30.5 79.5c0 31.333 -10.667 57.5 -32 78.5s-47.333 31.5 -78 31.5s-56.667 -10.5 -78 -31.5s-32 -47.167 -32 -78.5z" />
    <glyph glyph-name="seven.oldstyle" unicode="&#xf737;" horiz-adv-x="520" 
d="M10 380v140h505v-145l-250 -565h-175l250 560v10h-330z" />
    <glyph glyph-name="eight.oldstyle" unicode="&#xf738;" horiz-adv-x="640" 
d="M25 190c0 58.667 25 106 75 142c22.667 16.667 47.667 29.334 75 38.001v10c-22.667 6.66699 -42.667 17.334 -60 32.001c-40 30.667 -60 71.667 -60 123c0 48.667 23.5 90.834 70.5 126.501s111.833 53.5 194.5 53.5s147.5 -17.833 194.5 -53.5
s70.5 -77.834 70.5 -126.501c0 -51.333 -20 -92.333 -60 -123c-17.333 -14.667 -37.333 -25.334 -60 -32.001v-10c27.333 -8.66699 52.333 -21.334 75 -38.001c50 -38 75 -85.333 75 -142c0 -56 -26 -104.167 -78 -144.5s-124.333 -60.5 -217 -60.5s-165 20.167 -217 60.5
s-78 88.5 -78 144.5zM240 505c0 -20.667 7.16699 -37.5 21.5 -50.5s33.833 -19.5 58.5 -19.5s44.167 6.5 58.5 19.5s21.5 29.833 21.5 50.5s-7.16699 37.667 -21.5 51s-33.833 20 -58.5 20s-44.167 -6.66699 -58.5 -20s-21.5 -30.333 -21.5 -51zM210 215
c0 -26.667 9.66699 -48.334 29 -65.001s46.333 -25 81 -25s61.667 8.33301 81 25s29 38.334 29 65.001s-9.66699 48.334 -29 65.001s-46.333 25 -81 25s-61.667 -8.33301 -81 -25s-29 -38.334 -29 -65.001z" />
    <glyph glyph-name="nine.oldstyle" unicode="&#xf739;" horiz-adv-x="620" 
d="M25 280c0 68.667 27.332 128.333 81.999 179s122.334 76 203.001 76c81.333 0 149.166 -25.833 203.499 -77.5s81.5 -114.167 81.5 -187.5c0 -47.333 -8.83301 -89.833 -26.5 -127.5s-50.5 -88.5 -98.5 -152.5l-135 -180h-195l160 210l55 30v10
c-5.33301 -3.33301 -13.333 -6.66602 -24 -9.99902c-21.333 -6.66699 -43.333 -10 -66 -10c-67.333 0 -124.166 23.167 -170.499 69.5s-69.5 103.166 -69.5 170.499zM199.999 284.999c0 -31.333 10.667 -57.5 32 -78.5s47.333 -31.5 78 -31.5s56.667 10.5 78 31.5
s32 47.167 32 78.5c0 32.667 -10.167 59.167 -30.5 79.5s-46.833 30.5 -79.5 30.5s-59.167 -10.167 -79.5 -30.5s-30.5 -46.833 -30.5 -79.5z" />
    <glyph glyph-name=".null" horiz-adv-x="0" 
 />
    <glyph glyph-name="nonmarkingreturn" horiz-adv-x="333" 
 />
    <glyph glyph-name="ecaron.sc" horiz-adv-x="595" 
d="M65 0v600h490v-150h-305v-75h245v-145h-245v-80h305v-150h-490zM135 835v5h115l55 -70h15l55 70h115v-5l-110 -150h-135z" />
    <glyph glyph-name="ecircumflex.sc" horiz-adv-x="595" 
d="M65 0v600h490v-150h-305v-75h245v-145h-245v-80h305v-150h-490zM130 685v5l110 150h135l110 -150v-5h-115l-55 70h-15l-55 -70h-115z" />
    <glyph glyph-name="parenright.case" horiz-adv-x="410" 
d="M100 90c56.667 82 85 168.665 85 259.998s-28.333 178 -85 260c-24.667 35.333 -53 67 -85 95l85 115c49.333 -35.333 91.666 -75.666 126.999 -120.999c85.333 -106.667 128 -223 128 -349s-42.667 -242.333 -128 -349
c-35.333 -45.333 -77.666 -85.666 -126.999 -120.999l-85 115c32 28 60.333 59.667 85 95z" />
    <glyph glyph-name="bracketleft.case" horiz-adv-x="385" 
d="M65 -90v880h300v-150h-130v-580h130v-150h-300z" />
    <glyph glyph-name="bracketright.case" horiz-adv-x="385" 
d="M20 -90v150h130v580h-130v150h300v-880h-300z" />
    <glyph glyph-name="braceleft.case" horiz-adv-x="405" 
d="M30 275v149.998h40c10 0 18.333 3.33301 25 10s10 15 10 25v170c0 50 14.5 89.167 43.5 117.5s69.5 42.5 121.5 42.5h115v-145h-65c-14 0 -25 -4 -33 -12s-12 -18.333 -12 -31v-147c0 -36 -13.333 -64 -40 -84c-11.333 -7.33301 -24.666 -12.666 -39.999 -15.999v-10
c15.333 -3.33301 28.666 -8.66602 39.999 -15.999c26.667 -20 40 -48 40 -84v-147c0 -12.667 4 -23 12 -31s19 -12 33 -12h65v-145h-115c-52 0 -92.5 14.167 -121.5 42.5s-43.5 67.5 -43.5 117.5v170c0 10 -3.33301 18.333 -10 25s-15 10 -25 10h-40z" />
    <glyph glyph-name="braceright.case" horiz-adv-x="405" 
d="M20 -90v145.002h65c14 0 25 4 33 12s12 18.333 12 31v147c0 36 13.333 64 40 84c11.333 7.33301 24.666 12.666 39.999 15.999v10c-15.333 3.33301 -28.666 8.66602 -39.999 15.999c-26.667 20 -40 48 -40 84v147c0 12.667 -4 23 -12 31s-19 12 -33 12h-65v145h115
c52 0 92.5 -14.167 121.5 -42.5s43.5 -67.5 43.5 -117.5v-170c0 -10 3.33301 -18.333 10 -25s15 -10 25 -10h40v-150h-40c-10 0 -18.333 -3.33301 -25 -10s-10 -15 -10 -25v-170c0 -50 -14.5 -89.167 -43.5 -117.5s-69.5 -42.5 -121.5 -42.5h-115z" />
    <glyph glyph-name="exclamdown.case" horiz-adv-x="310" 
d="M65 625c0 25.333 8.66699 46.666 26 63.999s38.666 26 63.999 26s46.666 -8.66699 63.999 -26s26 -38.666 26 -63.999s-8.66699 -46.666 -26 -63.999s-38.666 -26 -63.999 -26s-46.666 8.66699 -63.999 26s-26 38.666 -26 63.999zM70 0v310l30 160h110l30 -160v-310h-170
z" />
    <glyph glyph-name="questiondown.case" horiz-adv-x="600" 
d="M220 625c0 25.333 8.66699 46.666 26 63.999s38.666 26 63.999 26s46.666 -8.66699 63.999 -26s26 -38.666 26 -63.999s-8.66699 -46.666 -26 -63.999s-38.666 -26 -63.999 -26s-46.666 8.66699 -63.999 26s-26 38.666 -26 63.999zM25 190
c0 69.333 32.668 124.335 98.001 165.002c20.667 12.667 36.667 23 48 31s22.333 19.667 33 35s16 31.666 16 48.999h180c0 -70.667 -32.333 -126.334 -97 -167.001c-42.667 -26.667 -69.334 -46 -80.001 -58c-12 -14 -18 -29 -18 -45c0 -21.333 8 -38.333 24 -51
s39.667 -19 71 -19c41.333 0 72 14 92 42c9.33301 12 15.333 26.333 18 43h180c-8.66699 -43.333 -25.667 -82.666 -51 -117.999c-56.667 -78 -139.667 -117 -249 -117c-79.333 0 -143.333 20.667 -192 62s-73 90.666 -73 147.999z" />
    <glyph glyph-name="guillemotleft.case" horiz-adv-x="640" 
d="M285 345l225 260l95 -90l-150 -170l150 -170l-95 -90zM20 345l225 260l95 -90l-150 -170l150 -170l-95 -90z" />
    <glyph glyph-name="guillemotright.case" horiz-adv-x="640" 
d="M300 175l150 170l-150 170l95 90l225 -260l-225 -260zM35 175l150 170l-150 170l95 90l225 -260l-225 -260z" />
    <glyph glyph-name="guilsinglleft.case" horiz-adv-x="410" 
d="M20 345l255 260l100 -100l-165 -160l165 -160l-100 -100z" />
    <glyph glyph-name="guilsinglright.case" horiz-adv-x="410" 
d="M35 185l165 160l-165 160l100 100l255 -260l-255 -260z" />
    <glyph glyph-name="hyphen.case" horiz-adv-x="490" 
d="M50 305v140h390v-140h-390z" />
    <glyph glyph-name="endash.case" horiz-adv-x="750" 
d="M50 305v130h650v-130h-650z" />
    <glyph glyph-name="emdash.case" horiz-adv-x="940" 
d="M50 305v130h840v-130h-840z" />
    <glyph glyph-name="periodcentered.case" horiz-adv-x="280" 
d="M50 365c0 25.333 8.66699 46.666 26 63.999s38.666 26 63.999 26s46.666 -8.66699 63.999 -26s26 -38.666 26 -63.999s-8.66699 -46.666 -26 -63.999s-38.666 -26 -63.999 -26s-46.666 8.66699 -63.999 26s-26 38.666 -26 63.999z" />
    <glyph glyph-name="Iogonek.alt" horiz-adv-x="575" 
d="M40 0l-0.000976562 149.998h155v400h-155v150h495v-150h-155v-400h155v-150c-20.667 -12.667 -40 -27 -58 -43c-38 -35.333 -57 -66 -57 -92c0 -10 3.66699 -18.333 11 -25s17 -10 29 -10c16.667 0 32 2.33301 46 7c0.666992 0.666992 3.5 1.83398 8.5 3.50098
s8.5 3.16699 10.5 4.5v-80c-5.33301 -3.33301 -13.333 -6.66602 -24 -9.99902c-20 -6.66699 -40.333 -10 -61 -10c-39.333 0 -69.166 9 -89.499 27s-30.5 42.333 -30.5 73c0 10 1.5 19.833 4.5 29.5s7.16699 18.667 12.5 27s11.333 16.333 18 24s13.834 14.667 21.501 21
s15.167 12.166 22.5 17.499s14.666 10.333 21.999 15s13.5 8.33398 18.5 11.001l13.5 7l6 3h-419z" />
    <glyph glyph-name="gbreve.alt" horiz-adv-x="620" 
d="M0 -44c0 42 20.001 76.667 60.001 104c17.333 12 37.333 22 60 30v110c-14 8 -27.333 19.667 -40 35c-26.667 32 -40 68.667 -40 110c0 54.667 21.833 100 65.5 136s105.167 54 184.5 54c28.667 0 55.667 -2.66699 81 -8l29 -7h220v-125h-30l-60 20l-5 -5l7 -16
c5.33301 -14.667 8 -32.667 8 -54c0 -52.667 -22 -96.667 -66 -132s-105.333 -53 -184 -53h-18c-6.66699 0 -11.334 0.333008 -14.001 1l-13 2v-46c5.33301 0 9.66602 0.333008 12.999 1c10.667 1.33301 21.334 2 32.001 2c97.333 0 170 -15.667 218 -47s72 -69 72 -113
c0 -45.333 -23.833 -83.333 -71.5 -114s-120.5 -46 -218.5 -46c-98.667 0 -171.667 15.667 -219 47s-71 69.333 -71 114zM205.001 345c0 -20.667 7.33301 -37.5 22 -50.5s35.667 -19.5 63 -19.5s48.333 6.5 63 19.5s22 29.833 22 50.5s-7.33301 37.5 -22 50.5
s-35.667 19.5 -63 19.5s-48.333 -6.5 -63 -19.5s-22 -29.833 -22 -50.5zM175.001 -45c0 -33.333 38.333 -50 115 -50s115 16.667 115 50s-38.333 50 -115 50s-115 -16.667 -115 -50zM125.001 755h100.002c0 -13.333 5.16699 -24.166 15.5 -32.499s25.166 -12.5 44.499 -12.5
s34.166 4.16699 44.499 12.5s15.5 19.166 15.5 32.499h100c0 -43.333 -13.833 -77.5 -41.5 -102.5s-67.167 -37.5 -118.5 -37.5s-90.833 12.5 -118.5 37.5s-41.5 59.167 -41.5 102.5z" />
    <glyph glyph-name="gcommaaccent.alt" horiz-adv-x="620" 
d="M205 725c0 38 14.001 70 42.001 96s64 39 108 39v-60c-22 0 -39.167 -4.66699 -51.5 -14s-18.5 -21.333 -18.5 -36v-10l7 2c8 2 14 3 18 3c19.333 0 34.166 -6.16699 44.499 -18.5s15.5 -29.5 15.5 -51.5c0 -20 -7.83301 -37.5 -23.5 -52.5s-34.5 -22.5 -56.5 -22.5
c-56.667 0 -85 41.667 -85 125zM0.000976562 -44c0 42 20.001 76.667 60.001 104c17.333 12 37.333 22 60 30v110c-14 8 -27.333 19.667 -40 35c-26.667 32 -40 68.667 -40 110c0 54.667 21.833 100 65.5 136s105.167 54 184.5 54c28.667 0 55.667 -2.66699 81 -8l29 -7h220
v-125h-30l-60 20l-5 -5l7 -16c5.33301 -14.667 8 -32.667 8 -54c0 -52.667 -22 -96.667 -66 -132s-105.333 -53 -184 -53h-18c-6.66699 0 -11.334 0.333008 -14.001 1l-13 2v-46c5.33301 0 9.66602 0.333008 12.999 1c10.667 1.33301 21.334 2 32.001 2
c97.333 0 170 -15.667 218 -47s72 -69 72 -113c0 -45.333 -23.833 -83.333 -71.5 -114s-120.5 -46 -218.5 -46c-98.667 0 -171.667 15.667 -219 47s-71 69.333 -71 114zM205.002 345c0 -20.667 7.33301 -37.5 22 -50.5s35.667 -19.5 63 -19.5s48.333 6.5 63 19.5
s22 29.833 22 50.5s-7.33301 37.5 -22 50.5s-35.667 19.5 -63 19.5s-48.333 -6.5 -63 -19.5s-22 -29.833 -22 -50.5zM175.002 -45c0 -33.333 38.333 -50 115 -50s115 16.667 115 50s-38.333 50 -115 50s-115 -16.667 -115 -50z" />
    <glyph glyph-name="Adieresis.alt2" horiz-adv-x="730" 
d="M545 630c0 22.667 7.66699 41.667 23 57s34.333 23 57 23s41.667 -7.66699 57 -23s23 -34.333 23 -57s-7.66699 -41.667 -23 -57s-34.333 -23 -57 -23s-41.667 7.66699 -57 23s-23 34.333 -23 57zM25 630c0 22.667 7.66699 41.667 23 57s34.333 23 57 23
s41.667 -7.66699 57 -23s23 -34.333 23 -57s-7.66699 -41.667 -23 -57s-34.333 -23 -57 -23s-41.667 7.66699 -57 23s-23 34.333 -23 57zM5 0l145 535c10.667 4.66699 20.667 11.667 30 21c20 20 30 44.667 30 74c0 12 -3 26.333 -9 43
c-4 8.66699 -6.66699 14.334 -8 17.001l2 10h340l2 -10c-4 -6.66699 -7 -12.334 -9 -17.001c-5.33301 -14.667 -8 -29 -8 -43c0 -29.333 10 -54 30 -74c9.33301 -9.33301 19.333 -16.333 30 -21l145 -535h-190l-35 140h-270l-35 -140h-190zM270 300h190l-60 230h-70z" />
    </font>
</defs>
</svg>
